SplineFontDB: 3.2
FontName: NewBaskerville-Regular
FullName: New Baskerville
FamilyName: New Baskerville
Weight: Regular
Copyright: Copyright (c) 2020, Daniel Benjamin Miller\nCopyright (c) 2012, Pablo Impallari (www.impallari.com|impallari@gmail.com), \nCopyright (c) 2012, Rodrigo Fuenzalida (www.rfuenzalida.com|hello :rfuenzalida.com), with Reserved Font Name Libre Baskerville.
Version: 1.000
ItalicAngle: 0
UnderlinePosition: -100
UnderlineWidth: 50
Ascent: 800
Descent: 200
InvalidEm: 0
sfntRevision: 0x00010000
LayerCount: 2
Layer: 0 0 "Back" 1
Layer: 1 0 "Fore" 0
XUID: [1021 572 -1837316912 5318819]
StyleMap: 0x0040
FSType: 0
OS2Version: 3
OS2_WeightWidthSlopeOnly: 0
OS2_UseTypoMetrics: 0
CreationTime: 1354221900
ModificationTime: 1586457789
PfmFamily: 17
TTFWeight: 400
TTFWidth: 5
LineGap: 0
VLineGap: 0
Panose: 2 0 0 0 0 0 0 0 0 0
OS2TypoAscent: 970
OS2TypoAOffset: 0
OS2TypoDescent: -270
OS2TypoDOffset: 0
OS2TypoLinegap: 0
OS2WinAscent: 970
OS2WinAOffset: 0
OS2WinDescent: 270
OS2WinDOffset: 0
HheadAscent: 970
HheadAOffset: 0
HheadDescent: -270
HheadDOffset: 0
OS2SubXSize: 700
OS2SubYSize: 650
OS2SubXOff: 0
OS2SubYOff: 140
OS2SupXSize: 700
OS2SupYSize: 650
OS2SupXOff: 0
OS2SupYOff: 477
OS2StrikeYSize: 50
OS2StrikeYPos: 250
OS2CapHeight: 770
OS2XHeight: 530
OS2Vendor: 'XDBM'
Lookup: 4 0 1 "'liga' Standard Ligatures in Latin lookup 0" { "'liga' Standard Ligatures in Latin lookup 0 subtable"  } ['liga' ('latn' <'dflt' > ) ]
Lookup: 4 0 0 "'dlig' Discretionary Ligatures in Latin lookup 1" { "'dlig' Discretionary Ligatures in Latin lookup 1 subtable"  } ['dlig' ('latn' <'dflt' > ) ]
Lookup: 4 0 0 "'frac' Diagonal Fractions in Latin lookup 2" { "'frac' Diagonal Fractions in Latin lookup 2 subtable"  } ['frac' ('latn' <'dflt' > ) ]
Lookup: 1 0 0 "'sinf' Scientific Inferiors in Latin lookup 3" { "'sinf' Scientific Inferiors in Latin lookup 3 subtable"  } ['sinf' ('latn' <'dflt' > ) ]

StartChar: .notdef
Encoding: 65536 -1 0
Width: 756
Flags: W
HStem: -260 61<240 515> 911 59<240 515>
VStem: 130 110<-199 911> 515 111<-199 911>
LayerCount: 2
Fore
SplineSet
130 970 m 1
 626 970 l 1
 626 -260 l 1
 130 -260 l 1
 130 970 l 1
240 -199 m 1
 515 -199 l 1
 515 911 l 1
 240 911 l 1
 240 -199 l 1
EndSplineSet
EndChar

StartChar: n
Encoding: 110 110 4
Width: 689
Flags: W
HStem: 0 34<37 101.443 233.17 299 406 470.158 602 665> 470 32<35 64.4737> 486 54<308.814 442.318>
VStem: 121 95<48.8915 402.686> 489 95<48.715 431.728>
LayerCount: 2
Fore
SplineSet
489 282 m 2xb8
 489 391.02089591 480.368805796 486 375 486 c 0xb8
 298.911915593 486 247.884382894 436.559841727 225.5 379 c 0
 216.136677807 354.922885789 216 325.976700936 216 291 c 2
 216 157 l 2
 216 145.464803698 215.76281406 134.160483495 215.76281406 123.390094838 c 0
 215.76281406 81.8757880821 219.286699412 48.2941334759 253.5 40 c 0
 264.5 37.3333333333 279.666666667 35.3333333333 299 34 c 1
 299 0 l 1
 37 0 l 1
 37 34 l 1
 86.8702188928 37.5621584923 113.160393376 43.0114617088 118.5 90 c 0
 120.166666667 104.666666667 121 124.666666667 121 150 c 2
 121 283 l 2
 121 362.333333333 119 410.666666667 115 428 c 0
 109.066659587 453.711141788 99.5505735383 465.441009978 71 468.5 c 0
 61.6666666667 469.5 49.6666666667 470 35 470 c 1
 35 502 l 1xd8
 195 540 l 1
 207 441 l 1
 211 441 l 1
 254.939259721 495.345926498 319.975848583 540 411 540 c 0
 471.862765981 540 526.613583799 518.302341061 553 484 c 0
 580.993054423 446.127044015 584 396.831111973 584 324 c 2
 584 157 l 2
 584 147.378988403 583.865347157 137.864628901 583.865347157 128.658396203 c 0
 583.865347157 85.0717594985 586.883618967 48.3918499474 621.5 40 c 0
 632.5 37.3333333333 647 35.3333333333 665 34 c 1
 665 0 l 1
 406 0 l 1
 406 34 l 1
 456.851672932 35.8161311761 481.311879461 43.8069151449 486.5 90.5 c 0
 488.166666667 105.5 489 125.333333333 489 150 c 2
 489 282 l 2xb8
EndSplineSet
EndChar

StartChar: u
Encoding: 117 117 5
Width: 670
Flags: W
HStem: -10 60<249.313 367.634> 1 35<575.733 648> 495 35<21 84.8602 380 443.86>
VStem: 104 98<107.208 479.817> 463 98<154.471 479.817>
LayerCount: 2
Fore
SplineSet
463 370 m 2xb8
 463 381.330436443 463.212011362 392.349240414 463.212011362 402.822858947 c 0
 463.212011362 444.880611845 459.793336788 478.147271785 425.5 487.5 c 0
 414.5 490.5 399.333333333 493 380 495 c 1
 380 530 l 1
 561 530 l 1
 561 223 l 2
 561 210.316843523 560.953892805 198.167365348 560.953892805 186.488455749 c 0
 560.953892805 144.569360634 561.547894803 108.712631184 567 76 c 0
 572.945475638 37.35440835 602.264763958 36 648 36 c 1
 648 1 l 1x78
 483 -11 l 1
 472 109 l 1
 468 109 l 1
 442.666666667 67.6666666667 413.5 37.5 380.5 18.5 c 0
 347.5 -0.5 313 -10 277 -10 c 0
 219.144513881 -10 161.054637681 15.1762391309 136 49 c 0
 108.276744904 84.8771536531 104 141.084302195 104 211 c 2
 104 370 l 2
 104 381.330436443 104.212011362 392.349240414 104.212011362 402.822858947 c 0
 104.212011362 444.880611845 100.793336788 478.147271785 66.5 487.5 c 0
 55.5 490.5 40.3333333333 493 21 495 c 1
 21 530 l 1
 202 530 l 1
 202 257 l 2
 202 184.333333333 210.5 131.666666667 227.5 99 c 0
 244.5 66.3333333333 271.666666667 50 309 50 c 0
 367.666666667 50 413.333333333 88.3333333333 446 165 c 0
 458.712905467 195.51097312 463 227.232183441 463 272 c 2
 463 370 l 2xb8
EndSplineSet
EndChar

StartChar: h
Encoding: 104 104 6
Width: 688
Flags: W
HStem: 0 35<24 91.1827 224.952 290 400 465.898 599.92 665> 485 55<305.471 437.175> 758 34<22 55.8947> 810 20G<109.158 206>
VStem: 110 97.7561<50.5279 401.934 449 745.374> 484 99<49.5972 427.64>
LayerCount: 2
Fore
SplineSet
208 159 m 6
 208 147.366802375 207.756100664 135.918520601 207.756100664 124.987137648 c 0
 207.756100664 83.4840759039 211.271872415 49.4320318961 245 41 c 4
 255.666666667 38.3333333333 270.666666667 36.3333333333 290 35 c 5
 290 0 l 5
 24 0 l 5
 24 35 l 5
 75.1971739762 38.5308395846 102.14701602 43.3231441819 107.5 91.5 c 4
 109.166666667 106.5 110 126.666666667 110 152 c 6
 110 571 l 6
 110 590.566209296 110.232911116 608.546719463 110.232911116 625.326730059 c 0
 110.232911116 660.262895494 109.223295113 689.995171994 103 718 c 4
 96.8292701501 755.024379099 66.2901418295 758 22 758 c 5
 22 792 l 5
 206 830 l 5
 206 449 l 5
 210 449 l 5
 240.652331798 489.869775731 293.301578382 518.951264866 350.5 533 c 4
 369.5 537.666666667 388 540 406 540 c 4
 467.869994231 540 522.787309974 515.987744319 550 481 c 4
 578.041129827 443.062000822 583 391.883743289 583 319 c 6
 583 159 l 6
 583 147.82155055 582.783910414 136.791361907 582.783910414 126.216312202 c 0
 582.783910414 84.251144679 586.18679269 49.4533018274 620 41 c 4
 630.666666667 38.3333333333 645.666666667 36.3333333333 665 35 c 5
 665 0 l 5
 400 0 l 5
 400 35 l 5
 451.12695878 36.8259628136 476.27949367 44.5154430298 481.5 91.5 c 4
 483.166666667 106.5 484 126.666666667 484 152 c 6
 484 278 l 6
 484 352.666666667 475.333333333 405.833333333 458 437.5 c 4
 440.666666667 469.166666667 411.666666667 485 371 485 c 4
 292.189889149 485 238.783279404 434.983186955 216.5 374.5 c 4
 208.33880754 352.348191895 207.99714709 326.627482611 207.99714709 295.630808679 c 0
 207.99714709 292.79836164 208 289.921859592 208 287 c 6
 208 159 l 6
EndSplineSet
EndChar

StartChar: l
Encoding: 108 108 7
Width: 325
Flags: W
HStem: 0 35<22 90.7404 230.822 298> 759 34<20 55.7568> 810 20G<106.838 209>
VStem: 116 93<54.8239 746.697>
LayerCount: 2
Fore
SplineSet
209 156 m 2
 209 98.487196328 209.816827251 53.195192214 251.5 41 c 4
 263.145348151 37.5929354764 278.666666667 35.6666666667 298 35 c 1
 298 0 l 1
 22 0 l 1
 22 35 l 1
 74.1441393845 36.7381379795 105.113064414 47.1231099707 112.5 92.5 c 0
 114.833333333 106.833333333 116 125.666666667 116 149 c 2
 116 580 l 2
 116 616 115.5 646.166666667 114.5 670.5 c 0
 112.718678109 713.845499344 113.243185999 739.435379027 86.5 751 c 0
 74.1666666667 756.333333333 52 759 20 759 c 1
 20 793 l 1
 209 830 l 1
 209 156 l 2
EndSplineSet
EndChar

StartChar: r
Encoding: 114 114 8
Width: 477
Flags: W
HStem: 0 35<38 105.357 238.952 304> 456 35<36 68.2368> 457 83<328.256 431.279> 509 20G<118.895 213.258>
VStem: 124 98<50.0212 348.68 405 445.174>
LayerCount: 2
Fore
SplineSet
472 483 m 0xa8
 472 449.129231298 449.087882553 432 414 432 c 0
 385.797030725 432 369.472166747 443.414844402 351.5 453 c 0
 346.5 455.666666667 341 457 335 457 c 0xa8
 317 457 299 445.5 281 422.5 c 0
 240.484500986 370.730195705 222 287.664536979 222 193 c 2
 222 159 l 2
 222 147.366802375 221.756100664 135.918520601 221.756100664 124.987137648 c 0
 221.756100664 83.4840759039 225.271872415 49.4320318961 259 41 c 0
 269.666666667 38.3333333333 284.666666667 36.3333333333 304 35 c 1
 304 0 l 1
 38 0 l 1
 38 35 l 1
 89.6531581816 36.7811433856 116.255599341 44.3003940714 121.5 91.5 c 0
 123.166666667 106.5 124 126.666666667 124 152 c 2
 124 269 l 2
 124 314.333333333 123.5 349.666666667 122.5 375 c 0
 120.916865535 415.106073116 115.797737437 446.705995498 86 452.5 c 0
 74 454.833333333 57.3333333333 456 36 456 c 1
 36 491 l 1
 211 529 l 1xd8
 225 405 l 1
 229 405 l 1
 253.251709591 460.965483671 295.775767274 507.51030691 352 530 c 0
 368.666666667 536.666666667 385.666666667 540 403 540 c 0
 442.139510516 540 472 520.394192396 472 483 c 0xa8
EndSplineSet
EndChar

StartChar: dotlessi
Encoding: 305 305 9
Width: 341
Flags: W
HStem: 0 37<34 105.749 251.169 321> 465 37<32 68.1053> 520 20G<124.842 228>
VStem: 130 98<58.4301 451.172>
LayerCount: 2
Fore
SplineSet
228 162 m 2
 228 102.860169436 229.028639928 55.2142666867 273 43 c 0
 285 39.6666666667 301 37.6666666667 321 37 c 1
 321 0 l 1
 34 0 l 1
 34 37 l 1
 87.7748058523 38.7924935284 119.134451461 49.1500451032 126.5 96.5 c 0
 128.833333333 111.5 130 130.666666667 130 154 c 2
 130 278 l 2
 130 316.666666667 129.5 348.333333333 128.5 373 c 0
 126.760232816 415.914257197 125.818383179 444.307985721 100 456.5 c 0
 88 462.166666667 65.3333333333 465 32 465 c 1
 32 502 l 1
 228 540 l 1
 228 162 l 2
EndSplineSet
EndChar

StartChar: o
Encoding: 111 111 10
Width: 654
Flags: W
HStem: -10 51<248.359 403.873> 492 48<247.576 402.476>
VStem: 48 113<159.033 375.913> 493 113<158.847 375.44>
LayerCount: 2
Fore
SplineSet
325 540 m 0
 408.827232024 540 476.685949801 505.839111874 522.5 463 c 0
 568.964230183 419.552927622 606 354.597724328 606 269 c 0
 606 181.198490975 569.309497864 113.985751194 522.5 69 c 0
 476.870216028 25.1479998186 409.327955353 -10 325 -10 c 4
 241.775511533 -10 174.84135518 24.3386804822 130 68 c 0
 83.6834205435 113.097722102 48 181.418922038 48 269 c 0
 48 354.362758344 84.0530353769 420.471296673 130 464 c 0
 175.116750918 506.742185081 242.142152488 540 325 540 c 0
325 492 m 0
 237.930958224 492 192.003259961 429.881329426 172.5 359.5 c 0
 164.833333333 331.833333333 161 301.333333333 161 268 c 0
 161 168.436335726 192.724061885 91.2805003279 257 57 c 0
 277 46.3333333333 299.666666667 41 325 41 c 256
 414.160931377 41 460.560552828 103.461934898 481 175 c 0
 489 203 493 234 493 268 c 0
 493 366.460335598 457.991331831 441.440097574 394 475.5 c 0
 373.333333333 486.5 350.333333333 492 325 492 c 0
EndSplineSet
Substitution2: "Single Substitution lookup 6 subtable" ordmasculine
EndChar

StartChar: p
Encoding: 112 112 11
Width: 679
Flags: W
HStem: -250 35<20 90.0883 242.753 328> -10 49<288.442 437.024> 464 34<18 53.3684> 492 48<284.134 427.749>
VStem: 116 98<-192.195 56 113.156 419.859> 517 113<146.709 379.358>
LayerCount: 2
Fore
SplineSet
368 -10 m 4xdc
 296.325031677 -10 252.279033367 15.4010252165 214 56 c 1
 214 -90 l 2
 214 -155.219109162 217.036227776 -197.563606173 268.5 -209 c 0
 283.5 -212.333333333 303.333333333 -214.333333333 328 -215 c 1
 328 -250 l 1
 20 -250 l 1
 20 -215 l 1
 74.9499388696 -213.168335371 103.566981927 -202.935726662 112 -155.5 c 0
 114.666666667 -140.5 116 -121 116 -97 c 2
 116 277 l 2
 116 315.666666667 115.5 347.333333333 114.5 372 c 0
 112.760232816 414.914257197 111.818383179 443.307985721 86 455.5 c 0
 74 461.166666667 51.3333333333 464 18 464 c 1
 18 498 l 1xec
 210 536 l 1
 210 458 l 1
 214 458 l 1
 235.333333333 483.333333333 258.333333333 503.333333333 283 518 c 0
 307.666666667 532.666666667 336.333333333 540 369 540 c 0
 451.842740197 540 513.655549573 506.764133308 556 462 c 0
 599.176693946 416.356066399 630 349.491064056 630 264 c 0
 630 135.062219691 563.928108824 48.3033786767 472 10 c 0
 440 -3.33333333333 405.333333333 -10 368 -10 c 4xdc
363 39 m 0
 470.427274516 39 517 141.938511773 517 260 c 0
 517 359.646887491 485.164615039 438.888187943 422.5 475 c 0
 402.833333333 486.333333333 381 492 357 492 c 256xdc
 283.248869819 492 235.14034784 443.439933168 220.5 381.5 c 0
 216.166666667 363.166666667 214 339.333333333 214 310 c 2
 214 232 l 2
 214 177.371722683 217.340035562 135.574955548 241 106 c 0
 266.508854559 70.5094197441 307.691915644 39 363 39 c 0
EndSplineSet
EndChar

StartChar: d
Encoding: 100 100 12
Width: 675
Flags: W
HStem: -10 48<236.485 390.307> 1 34<579.452 650> 492 48<235.29 389.716> 762 30<357 394.763> 810 20G<454.105 562>
VStem: 48 113<149.545 383.094> 464 98<109.073 423.57 473 747.771> 484 79<46.6485 84>
LayerCount: 2
Fore
SplineSet
308 540 m 0xbd
 382.236196029 540 425.163089077 513.836910923 466 473 c 1
 466 575 l 2
 466 613 465.5 644.666666667 464.5 670 c 0
 462.610904959 717.857074364 464.269096025 740.372962425 432 753 c 0
 416.666666667 759 391.666666667 762 357 762 c 1
 357 792 l 1
 562 830 l 1
 562 253 l 2xbe
 562 207 562.333333333 169.166666667 563 139.5 c 0
 563.943520738 97.513327146 564.498221754 77.3364946598 576.5 56 c 0
 587.729906843 36.0357211684 616.798992272 35 650 35 c 1
 650 1 l 1x7d
 484 -10 l 1
 484 84 l 1
 480 84 l 1
 439.171658111 26.1598489911 395.691400437 -10 308 -10 c 4
 225.636860994 -10 163.428532388 23.1408280533 121.5 67.5 c 0
 78.772670944 112.704275668 48 181.036148561 48 266 c 0
 48 393.352612259 113.555897848 480.872831372 204 519.5 c 0
 236 533.166666667 270.666666667 540 308 540 c 0xbd
308 492 m 0
 199.57530699 492 161 387.984904684 161 271 c 0
 161 173.272605447 184.310590757 90.6136455461 244.5 54.5 c 0
 262.833333333 43.5 284 38 308 38 c 0
 352.54514839 38 386.909287387 54.4971203302 413 74.5 c 0
 456.103949952 107.54636163 464 159.047450522 464 239 c 2
 464 305 l 2
 464 366.747593304 462.244022412 399.444971985 437 431 c 0
 411.058057461 464.837316356 363.014447727 492 308 492 c 0
EndSplineSet
EndChar

StartChar: b
Encoding: 98 98 13
Width: 654
Flags: W
HStem: -10 47<263.148 408.864> 0 21G<91 127.03> 493 47<257.613 403.595> 765 25<-1 31.9> 810 20G<93 187>
VStem: 91 96<117.238 414.802 459 745.117> 493 113<152.09 377.879>
LayerCount: 2
Fore
SplineSet
189 209 m 2xbe
 189 130.385049166 223.794130048 75.3882294316 277.5 50 c 0
 295.833333333 41.3333333333 315.666666667 37 337 37 c 0
 390.215934671 37 425.879325267 64.5092729455 449.5 98.5 c 0
 476.933815079 137.977929017 493 194.707879402 493 262 c 256
 493 360.379979933 459.459258189 440.294664772 397.5 476 c 0
 377.833333333 487.333333333 356.333333333 493 333 493 c 0
 273.327294855 493 231.488956477 461.183145688 211 419 c 0
 196.333333333 389.666666667 189 349.333333333 189 298 c 2
 189 209 l 2xbe
348 -10 m 4
 267.234375 -10 199.31136818 22.7747107974 160 67 c 1
 113 0 l 1
 91 0 l 1x7e
 91 604 l 2
 91 671.333333333 86.6666666667 714.333333333 78 733 c 0
 66.9875458273 758.695726403 34.2631986684 760.592100166 -1 765 c 1
 -1 790 l 1
 187 830 l 1
 187 459 l 1
 191 459 l 1
 228.221876444 507.853712832 272.472716608 540 351 540 c 0
 430.787404937 540 491.626446381 504.835405331 532.5 461 c 0
 574.565232923 415.886561792 606 348.497548867 606 265 c 0
 606 180.790316586 573.761140228 113.323541694 531.5 68 c 0
 490.289792101 23.8035451521 428.766601562 -10 348 -10 c 4
EndSplineSet
EndChar

StartChar: q
Encoding: 113 113 14
Width: 653
Flags: W
HStem: -250 35<360 434.86 582.773 665> -10 48<245.14 395.749> 491 49<243.277 389.517>
VStem: 48 113<141.757 373.532> 467 95<-188.825 72 118.076 405.813>
LayerCount: 2
Fore
SplineSet
464 320 m 2
 464 398.183265791 428.116754002 452.425266592 375 478 c 0
 357 486.666666667 337.666666667 491 317 491 c 0
 262.845438709 491 227.398046196 463.889871355 203.5 429.5 c 0
 176.089136576 390.055098975 161 332.234753061 161 265 c 0
 161 166.717420238 190.409089922 88.5329159051 253 54 c 0
 272.333333333 43.3333333333 294 38 318 38 c 0
 377.764822463 38 421.482865715 68.7588411784 442 111 c 0
 456.666666667 140.333333333 464 180.666666667 464 232 c 2
 464 320 l 2
306 540 m 256
 384.99240285 540 453.871210633 502.871672927 493 459 c 1
 537 528 l 1
 562 528 l 1
 562 -90 l 2
 562 -98.0232299063 561.937781953 -105.812950965 561.937781953 -113.316693926 c 0
 561.937781953 -163.885321643 564.763460876 -201.466041146 608.5 -210 c 0
 622.166666667 -212.666666667 641 -214.333333333 665 -215 c 1
 665 -250 l 1
 360 -250 l 1
 360 -215 l 1
 418.236335169 -213.180114526 451.253957401 -201.857191696 462 -153.5 c 0
 465.333333333 -138.5 467 -119.666666667 467 -97 c 2
 467 72 l 1
 463 72 l 1
 422.391830453 20.9497297121 382.535002813 -10 300 -10 c 0
 177.395032264 -10 100.45241438 58.6543507136 66.5 149.5 c 0
 54.1666666667 182.5 48 218.666666667 48 258 c 256
 48 386.432051198 116.273641641 476.468513108 205 518 c 0
 236.333333333 532.666666667 270 540 306 540 c 256
EndSplineSet
EndChar

StartChar: j
Encoding: 106 106 15
Width: 304
Flags: W
HStem: -260 43<-11.4649 86.5246> 467 35<17 53.1053> 520 20G<109.842 213> 681 124<115.064 208.936>
VStem: 100 124<696.064 789.936> 115 98<-134.765 453.165>
LayerCount: 2
Fore
SplineSet
162 681 m 256xf8
 127.593856659 681 100 708.594773551 100 743 c 256
 100 777.406143341 127.594773551 805 162 805 c 256
 196.406143341 805 224 777.405226449 224 743 c 256
 224 708.593856659 196.405226449 681 162 681 c 256xf8
EndSplineSet
Refer: 57 567 S 1 0 0 1 0 0 3
EndChar

StartChar: c
Encoding: 99 99 16
Width: 536
Flags: W
HStem: -10 52<242.73 405.797> 493 47<231.489 372.001>
VStem: 49 114<140.692 379.002>
LayerCount: 2
Fore
SplineSet
322 42 m 0
 392.370863138 42 434.690768539 71.777853577 476 112 c 1
 506 83 l 1
 461.923581738 29.1288221245 384.283509016 -10 290 -10 c 4
 171.135736793 -10 97.9881443211 60.0338733683 66.5 150 c 0
 54.8333333333 183.333333333 49 220.333333333 49 261 c 0
 49 395.553498195 114.955951926 483.187205098 213.5 520.5 c 0
 247.833333333 533.5 285.666666667 540 327 540 c 0
 395.734169169 540 460.241488173 525.270418858 490 487.5 c 0
 498.666666667 476.5 503 464.666666667 503 452 c 0
 503 423.94785825 482.91235903 410 454 410 c 0
 442 410 432 412.5 424 417.5 c 0
 416 422.5 405.666666667 433.666666667 393 451 c 0
 369.57029679 477.944158691 352.05104073 493 307 493 c 0
 197.405197549 493 163 396.732887451 163 276 c 0
 163 144.970782667 202.40172685 42 322 42 c 0
EndSplineSet
EndChar

StartChar: e
Encoding: 101 101 17
Width: 573
Flags: W
HStem: -10 52<258.718 417.447> 317 46<173 416.565> 492 48<233.095 380.159>
VStem: 49 113<152.318 314.418> 417 109<327.426 442.141>
LayerCount: 2
Fore
SplineSet
166 317 m 1
 162.915946945 304.66378778 162 288.468427877 162 272 c 0
 162 169.182397099 198.660856275 92.9414114295 266.5 58.5 c 0
 288.166666667 47.5 312.333333333 42 339 42 c 0
 367 42 393 48.1666666667 417 60.5 c 0
 441 72.8333333333 465.666666667 93 491 121 c 1
 522 93 l 1
 465.333333333 24.3333333333 395 -10 311 -10 c 4
 184.276922449 -10 103.629629156 56.6754398309 68 149.5 c 0
 55.3333333333 182.5 49 219 49 259 c 0
 49 392.062083247 117.238257407 479.386206051 212.5 519 c 0
 246.166666667 533 283 540 323 540 c 0
 452.615547858 540 526 466.966538334 526 337 c 0
 526 317.851032138 519.808040412 316.991643498 500.953335995 316.991643498 c 0
 499.094088534 316.991643498 497.111711382 317 495 317 c 2
 166 317 l 1
417 391 m 0
 417 454.603610351 372.076637024 492 307 492 c 0
 235 492 190.333333333 449 173 363 c 1
 357 363 l 2
 364.107589099 363 370.984299696 362.779688338 377.389362655 362.779688338 c 0
 400.180587853 362.779688338 417 365.569186149 417 391 c 0
EndSplineSet
EndChar

StartChar: f
Encoding: 102 102 18
Width: 412
Flags: W
HStem: 0 35<49 114.623 259.121 333> 467 47<22 135 229 390> 782 48<273.257 386.81>
VStem: 135 94<60.0175 467 514 704.4>
LayerCount: 2
Fore
SplineSet
508 762 m 0
 508 736.061239781 489.689217451 715 464 715 c 0
 456 715 447.5 717.5 438.5 722.5 c 0
 406.460807006 740.299551663 376.572871239 782 331 782 c 0
 273.566474971 782 240.075674773 734.769876689 232.5 672 c 0
 230.166666667 652.666666667 229 626 229 592 c 2
 229 514 l 1
 390 514 l 1
 390 467 l 1
 229 467 l 1
 229 161 l 2
 229 100.284072033 235.002892202 54.1492046445 281 41.5 c 0
 294.333333333 37.8333333333 311.666666667 35.6666666667 333 35 c 1
 333 0 l 1
 49 0 l 1
 49 35 l 1
 100.952027808 36.8554295646 125.751932817 45.6394961294 132 92.5 c 0
 134 107.5 135 127.666666667 135 153 c 2
 135 467 l 1
 22 467 l 1
 22 514 l 1
 135 514 l 1
 135 586 l 2
 135 737.379840834 217.383396095 830 368 830 c 0
 428.388773685 830 508 813.217928956 508 762 c 0
EndSplineSet
EndChar

StartChar: g
Encoding: 103 103 19
Width: 599
Flags: W
HStem: -260 44<167.838 407.476> 473 67<464.174 537.897> 503 37<221.376 322.71>
VStem: 32 89<-176.122 -65.1261> 74 105<281.612 448.151> 75 73<65.8898 158.88> 363 106<269.387 457.266> 459 84<-170.129 -52.2381>
LayerCount: 2
Fore
SplineSet
179 361 m 256xaa
 179 287.698421644 207.176842636 215 274 215 c 0
 340.735801499 215 363 285.198492354 363 360 c 0
 363 434.926184952 340.434356938 503 273 503 c 256
 206.111798686 503 179 434.53988907 179 361 c 256xaa
609 479 m 0
 609 456.411490331 591.509802536 442 569 442 c 0
 542.837992175 442 530.287863492 457.820085318 514 468 c 0
 508.666666667 471.333333333 502 473 494 473 c 0
 478 473 461.666666667 467.333333333 445 456 c 1
 461 431.333333333 469 400.333333333 469 363 c 0
 469 236.595112668 382.869716935 182.499601278 257 173 c 0
 216.333333333 169.666666667 188 165.333333333 172 160 c 0
 156 154.666666667 148 145 148 131 c 0xc6
 148 103.552369351 186.446946242 99.8601745005 219 98 c 0
 277.601978353 93.116501804 328.716265069 86.2109219475 384 79 c 0
 471.408162282 65.645975207 543 8.42504789827 543 -88 c 0
 543 -217.42643345 426.225920173 -260 284 -260 c 4
 181.787607715 -260 92.2539829681 -235.681273361 50.5 -177 c 0
 38.1666666667 -159.666666667 32 -140.666666667 32 -120 c 0
 32 -74.877359346 55.6569838617 -42.9541896428 86.5 -28 c 0
 97.5 -22.6666666667 109 -20 121 -20 c 0
 143.666666667 -20 164 -27 182 -41 c 1
 147.635011398 -48.6366641338 121 -82.7804387148 121 -124 c 0xd1
 121 -196.079487136 205.002508704 -216 288 -216 c 0
 402 -216 459 -181 459 -111 c 0
 459 -56.9704919759 415.806967869 -19.4604010634 368 -13 c 0
 321.123372217 -7.14042152709 270.589833994 0.4676348577 223 5 c 0
 146.026229954 12.3308352425 75 26.7795063079 75 105 c 0xc5
 75 158.398234421 127.435836641 193.114792193 177 201 c 1
 177 205 l 1
 131.034729892 223.803974135 97.9677205849 264.598855709 82 313.5 c 0
 76.6666666667 329.833333333 74 346.666666667 74 364 c 0
 74 450.344720755 127.723517482 502.396319056 192 526.5 c 0
 216 535.5 242.333333333 540 271 540 c 0xa8
 334.268108483 540 386.79371721 518.762976877 421 487 c 1
 443.666666667 505.666666667 463.666666667 519.166666667 481 527.5 c 0
 498.333333333 535.833333333 514.666666667 540 530 540 c 0xc8
 573.141594922 540 609 519.927718414 609 479 c 0
EndSplineSet
EndChar

StartChar: k
Encoding: 107 107 20
Width: 616
Flags: W
HStem: 0 35<17 86.9629 230.789 301 348 405.979 543.453 611> 495 35<309 387.79 496.446 569> 758 34<15 50.5526> 810 20G<106.421 208>
VStem: 113 95<56.301 218 281 748.978>
LayerCount: 2
Fore
SplineSet
390 471 m 256
 390 492.542988393 339.97405316 495 309 495 c 1
 309 530 l 1
 569 530 l 1
 569 495 l 1
 508.207121867 495 484.407841866 471.695859436 451 442 c 2
 307 314 l 1
 505 90 l 1
 532.030280037 57.177517098 552.99636794 35 611 35 c 1
 611 0 l 1
 348 0 l 1
 348 35 l 1
 349.867952284 35 351.811956506 34.9967155433 353.807587781 34.9967155433 c 0
 376.551052898 34.9967155433 406 35.4233109826 406 46 c 0
 405.333333333 51.3333333333 400 61 390 75 c 0
 380 89 367 105.666666667 351 125 c 2
 245 253 l 1
 208 218 l 1
 208 159 l 2
 208 100.494451765 208.699382216 52.8380048066 252.5 41 c 0
 264.833333333 37.6666666667 281 35.6666666667 301 35 c 1
 301 0 l 1
 17 0 l 1
 17 35 l 1
 71.6825722544 36.8227524085 100.465696183 47.0613290084 109 94 c 0
 111.666666667 108.666666667 113 128 113 152 c 2
 113 571 l 2
 113 621.666666667 112.5 660 111.5 686 c 0
 109.844032961 729.055143009 105.189097428 751.429869354 71 755.5 c 0
 57 757.166666667 38.3333333333 758 15 758 c 1
 15 792 l 1
 208 830 l 1
 208 281 l 1
 301 372 l 2
 331 402 353.333333333 424.166666667 368 438.5 c 0
 382.666666667 452.833333333 390 463.666666667 390 471 c 256
EndSplineSet
EndChar

StartChar: s
Encoding: 115 115 21
Width: 454
Flags: W
HStem: -10 41<163.042 294.988> 0 21G<64 97.4286> 499 41<167.431 281.501> 510 20G<323.952 362>
VStem: 64 25<135.132 172> 67 82<378.414 469.876> 318 89<60.4235 157.379> 336 26<386 417.544>
LayerCount: 2
Fore
SplineSet
407 142 m 0x26
 407 45.6122622321 337.357664163 -10 240 -10 c 4xa6
 188 -10 143.333333333 5 106 35 c 1
 86 0 l 1
 64 0 l 1
 64 172 l 1
 89 172 l 1x4a
 115 78 162.333333333 31 231 31 c 0
 284.150967005 31 318 56.6405226449 318 110 c 0
 318 134.204550461 310.877959477 144.272277281 296.5 157.5 c 0
 243.97217065 205.825603002 150.150369723 244.012832948 101 297.5 c 0
 80.159523236 320.179342361 67 344.995880471 67 386 c 0
 67 458.781690903 105.410471866 506.526682462 157 528.5 c 0
 175 536.166666667 194.666666667 540 216 540 c 0xa6
 255.813630577 540 297.358736506 525.317167678 323 509 c 1
 343 530 l 1
 362 530 l 1
 362 386 l 1
 336 386 l 1x15
 321.333333333 426.666666667 305.333333333 455.666666667 288 473 c 0
 270.666666667 490.333333333 249.333333333 499 224 499 c 0
 179.942886474 499 149 474.553148186 149 431 c 0
 149 405.051617272 157.802986967 391.197013033 172 377 c 0
 192.732199758 356.267800242 218.030622054 341.827309505 247 324 c 0
 294.69773934 294.050256693 336.993830218 270.111920028 370 234.5 c 0
 392.438048364 210.290526765 407 184.770052174 407 142 c 0x26
EndSplineSet
EndChar

StartChar: t
Encoding: 116 116 22
Width: 378
Flags: W
HStem: -10 49<218.047 323.299> 467 47<198 332>
VStem: 100 98<58.3398 467> 169 29<608.525 640>
LayerCount: 2
Fore
SplineSet
235 -10 m 0xe0
 150.844705118 -10 100 29.990561501 100 112 c 2
 100 467 l 1xe0
 40 467 l 1
 40 504 l 1
 102.793195504 540.728095483 144.273265029 573.546899765 169 640 c 1
 198 640 l 1
 198 514 l 1xd0
 332 514 l 1
 332 467 l 1
 198 467 l 1
 198 163 l 2
 198 95.8442984687 201.716756563 39 267 39 c 0
 307.525994592 39 325.167652611 57.3053714862 344 85 c 1
 369 66 l 1
 350.376517478 16.7807961906 302.862709184 -10 235 -10 c 0xe0
EndSplineSet
EndChar

StartChar: v
Encoding: 118 118 23
Width: 610
Flags: W
HStem: -11 21G<264.894 339.673> 495 35<5 61.3001 206.642 270 393 453.187 548.933 592>
LayerCount: 2
Fore
SplineSet
457 456 m 256
 457 493.159882678 436.99784208 495 393 495 c 1
 393 530 l 1
 592 530 l 1
 592 495 l 1
 539.056076469 495 522.878312614 437.537206151 506.5 399 c 0
 497.075392575 376.824453117 487.720026208 347.440052415 478 328 c 1
 331 -11 l 1
 273 -11 l 1
 104 406 l 2
 91.4150360531 437.462409867 82.506213658 463.222188825 62 480 c 0
 47.0948235004 492.195144409 30.6063561888 493.652297043 5 495 c 1
 5 530 l 1
 270 530 l 1
 270 495 l 1
 234.233021481 493.211651074 203 498.305531997 203 460 c 0
 203 435.897083446 210.716723676 416.849828971 217 398 c 2
 323 108 l 1
 327 108 l 1
 418 323 l 2
 432 356.333333333 442 383 448 403 c 0
 454 423 457 440.666666667 457 456 c 256
EndSplineSet
EndChar

StartChar: w
Encoding: 119 119 24
Width: 852
Flags: W
HStem: -10 21G<234.75 285.967 544.388 596.094> 495 35<12 75.8943 212.572 277 638 701.673 795.441 838>
LayerCount: 2
Fore
SplineSet
705 459 m 0
 705 494.983329341 681.585853771 495 638 495 c 1
 638 530 l 1
 838 530 l 1
 838 495 l 1
 813.952090669 495 803.652480647 488.04592842 791.5 473 c 0
 784.5 464.333333333 777.333333333 452 770 436 c 0
 762.666666667 420 753.666666667 399 743 373 c 2
 588 -10 l 1
 551 -10 l 1
 429 359 l 1
 425 359 l 1
 278 -10 l 1
 241 -10 l 1
 111 406 l 2
 98.3066605023 445.490389548 88.2425314349 482.343409332 49 491.5 c 0
 39 493.833333333 26.6666666667 495 12 495 c 1
 12 530 l 1
 277 530 l 1
 277 495 l 1
 235.267493509 495 206 490.615635169 206 455 c 0
 206 434.636409963 211.806094835 418.775620659 217 398 c 2
 285 159 l 1
 289 159 l 1
 436 530 l 1
 467 530 l 1
 600 159 l 1
 604 159 l 1
 664 321 l 2
 679.866711889 364.633457693 694.341697622 396.708488109 703 440 c 0
 704.333333333 446.666666667 705 453 705 459 c 0
EndSplineSet
EndChar

StartChar: x
Encoding: 120 120 25
Width: 609
Flags: W
HStem: 0 35<10 83.8676 193.424 239 332 394.418 540.671 598> 495 35<38 93.8838 234.141 284 357 411.837 514.39 576>
LayerCount: 2
Fore
SplineSet
284 495 m 1
 258.385187555 495 233 491.155596979 233 471 c 0
 233 461 239.333333333 447 252 429 c 2
 324 324 l 1
 392 412 l 2
 408 432 416 449 416 463 c 0
 416 484.333333333 396.333333333 495 357 495 c 1
 357 530 l 1
 576 530 l 1
 576 495 l 1
 532.497986471 495 508.846410403 477.387542154 486.5 453.5 c 0
 476.833333333 443.166666667 466 430.333333333 454 415 c 2
 351 284 l 1
 484 109 l 2
 504.666666667 81.6666666667 523.833333333 62.5 541.5 51.5 c 0
 559.166666667 40.5 578 35 598 35 c 1
 598 0 l 1
 332 0 l 1
 332 35 l 2
 332.856764155 35 333.710017798 34.999792906 334.559417321 34.999792906 c 0
 368.324921279 34.999792906 396 35.3270506502 396 62 c 0
 396 66.6666666667 393.166666667 73.5 387.5 82.5 c 0
 381.833333333 91.5 372.333333333 104.666666667 359 122 c 2
 289 212 l 1
 204 104 l 2
 194 92 189 80 189 68 c 0
 189 44.2671804564 211.434035923 35 239 35 c 1
 239 0 l 1
 10 0 l 1
 10 35 l 1
 64.1677755478 35 91.513949307 52.2143478586 119.5 81 c 0
 131.166666667 93 144.333333333 108 159 126 c 2
 261 251 l 1
 128 440 l 2
 112.666666667 461.333333333 98.6666666667 475.833333333 86 483.5 c 0
 73.3333333333 491.166666667 57.3333333333 495 38 495 c 1
 38 530 l 1
 284 530 l 1
 284 495 l 1
EndSplineSet
EndChar

StartChar: y
Encoding: 121 121 26
Width: 639
Flags: W
HStem: -260 103<93.0541 215.435> 495 35<4 59.1131 207.3 269 408 471.739 578.019 628>
LayerCount: 2
Fore
SplineSet
478 451 m 0
 478 491.601577149 454.172468196 495 408 495 c 1
 408 530 l 1
 628 530 l 1
 628 495 l 1
 596.804445374 495 585.101211062 487.723792118 569.5 467.5 c 0
 560.5 455.833333333 550.5 439 539.5 417 c 0
 528.5 395 515 365.333333333 499 328 c 2
 281 -157 l 2
 250.333333333 -225.666666667 202.666666667 -260 138 -260 c 0
 96 -260 75 -244.333333333 75 -213 c 0
 75 -196.333333333 80.8333333333 -184.166666667 92.5 -176.5 c 0
 104.166666667 -168.833333333 125.666666667 -162.333333333 157 -157 c 0
 213.251939696 -148.964008615 239.173858863 -124.966297955 260 -81 c 1
 295 -11 l 1
 103 406 l 2
 89.0719560722 435.998863845 80.1182657602 458.750140503 60.5 476.5 c 0
 45.7403026268 489.854011909 30.0071962911 492.399280371 4 495 c 1
 4 530 l 1
 269 530 l 1
 269 495 l 1
 224.333333333 495 202 484 202 462 c 0
 202 432.826003885 219.178958621 390.15085 230 364 c 2
 340 98 l 1
 345 98 l 1
 436 323 l 2
 449.67707965 357.71874065 460.670981639 382.012944918 470.5 411.5 c 0
 475.376320818 426.128962453 478 435.23643542 478 451 c 0
EndSplineSet
EndChar

StartChar: z
Encoding: 122 122 27
Width: 557
Flags: W
HStem: 0 46<170 428.205> 488 42<132.639 364>
VStem: 65 32<392 443.539> 482 33<108.857 155>
LayerCount: 2
Fore
SplineSet
498 0 m 1
 18 0 l 1
 18 4 l 1
 364 488 l 1
 253 488 l 2
 184.675118297 488 132.474776892 485.642596945 111 441.5 c 0
 105 429.166666667 100.333333333 412.666666667 97 392 c 1
 65 392 l 1
 81 530 l 1
 511 530 l 1
 511 526 l 1
 170 46 l 1
 287 46 l 2
 369.536548253 46 430.859101585 49.2032906629 460.5 99 c 0
 468.833333333 113 476 131.666666667 482 155 c 1
 515 155 l 1
 498 0 l 1
EndSplineSet
EndChar

StartChar: a
Encoding: 97 97 28
Width: 554
Flags: W
HStem: -10 61<166.221 267.51 413.045 521.692> 502 38<191.352 308.683>
VStem: 43 101<72.7466 179.695> 67 102<398.02 482.337> 349 98<124.573 296 339 463.026> 357 90<58.2934 97>
LayerCount: 2
Fore
SplineSet
144 126 m 4xe8
 144 80.7057517771 177.832550957 51 224 51 c 4
 264.289518847 51 292.991775061 74.3420552284 312 99.5 c 4
 333.134860889 127.47261 349 169.296792102 349 217 c 6
 349 296 l 5
 285.843938157 271.623976131 230.549257584 247.355600386 189 211 c 4
 164.059705536 189.177242344 144 165.042619894 144 126 c 4xe8
178 -10 m 4
 99.19921875 -10 43 32.8503578227 43 109 c 4xe4
 43 175.21009431 84.9955918656 208.819807786 129 236.5 c 4
 149.666666667 249.5 175 262.666666667 205 276 c 6
 349 339 l 5
 349 380 l 6
 349 461.333333333 314.333333333 502 245 502 c 4
 193.373220552 502 181.635570252 477.012639131 169 437 c 4
 157.448237245 406.545352737 151.009041636 389 117 389 c 4
 83.6666666667 389 67 405.666666667 67 439 c 4
 67 471 84 495.833333333 118 513.5 c 4
 152 531.166666667 200.333333333 540 263 540 c 4
 388.664211415 540 447 504.655259876 447 384 c 6
 447 160 l 6xd8
 447 84 462 46 492 46 c 4
 516.152776723 46 530.670622014 50.7843700234 541 68 c 5
 555 44 l 5
 539.286292348 13.8820603343 490.005333681 -10 444 -10 c 4
 382.089096591 -10 357 33.1209514382 357 97 c 5xc4
 352 97 l 5
 321.433834709 39.3945346444 261.078125 -10 178 -10 c 4
EndSplineSet
Substitution2: "Single Substitution lookup 6 subtable" ordfeminine
EndChar

StartChar: I
Encoding: 73 73 29
Width: 415
Flags: W
HStem: 0 38<45 125.212 287.105 369> 732 38<55 125.945 289.12 359>
VStem: 155 105<63.668 705.038>
LayerCount: 2
Fore
SplineSet
260 189 m 2
 260 185.12304343 259.995321109 181.274028021 259.995321109 177.459438073 c 0
 259.995321109 111.530741756 261.392963786 55.885357259 312.5 44 c 0
 326.833333333 40.6666666667 345.666666667 38.6666666667 369 38 c 1
 369 0 l 1
 45 0 l 1
 45 38 l 1
 109.301422238 39.8371834925 142.709298523 50.5014273429 151 107.5 c 0
 153.666666667 125.833333333 155 150.666666667 155 182 c 2
 155 588 l 2
 155 653.419771653 154.334194298 708.116386853 107 723.5 c 0
 93.6666666667 727.833333333 76.3333333333 730.666666667 55 732 c 1
 55 770 l 1
 359 770 l 1
 359 732 l 1
 296.853286299 730.057915197 270.391212787 712.098620233 263.5 655 c 0
 261.166666667 635.666666667 260 611 260 581 c 2
 260 189 l 2
EndSplineSet
EndChar

StartChar: H
Encoding: 72 72 30
Width: 925
Flags: W
HStem: 0 38<45 130.24 284.977 369 555 640.24 794.977 879> 369 50<260 665> 732 38<55 132.268 283.308 359 565 642.268 793.308 869>
VStem: 155 105<60.4735 369 419 711.251> 665 105<60.4735 369 419 711.251>
LayerCount: 2
Fore
SplineSet
770 159 m 2
 770 96.4218704767 773.43298781 55.4109330675 822.5 44 c 0
 836.833333333 40.6666666667 855.666666667 38.6666666667 879 38 c 1
 879 0 l 1
 555 0 l 1
 555 38 l 1
 613.051161073 39.6586046021 652.09841972 46.0413084581 661 95 c 0
 663.666666667 109.666666667 665 128.666666667 665 152 c 2
 665 369 l 1
 260 369 l 1
 260 159 l 2
 260 96.4218704767 263.43298781 55.4109330675 312.5 44 c 0
 326.833333333 40.6666666667 345.666666667 38.6666666667 369 38 c 1
 369 0 l 1
 45 0 l 1
 45 38 l 1
 103.051161073 39.6586046021 142.09841972 46.0413084581 151 95 c 0
 153.666666667 109.666666667 155 128.666666667 155 152 c 2
 155 618 l 2
 155 675.152130641 152.113493311 715.349464005 107 725.5 c 0
 93.6666666667 728.5 76.3333333333 730.666666667 55 732 c 1
 55 770 l 1
 359 770 l 1
 359 732 l 1
 302.290631887 730.227832246 271.071086397 721.752853468 263.5 672 c 0
 261.166666667 656.666666667 260 636.333333333 260 611 c 2
 260 419 l 1
 665 419 l 1
 665 618 l 2
 665 675.152130641 662.113493311 715.349464005 617 725.5 c 0
 603.666666667 728.5 586.333333333 730.666666667 565 732 c 1
 565 770 l 1
 869 770 l 1
 869 732 l 1
 812.290631887 730.227832246 781.071086397 721.752853468 773.5 672 c 0
 771.166666667 656.666666667 770 636.333333333 770 611 c 2
 770 159 l 2
EndSplineSet
EndChar

StartChar: L
Encoding: 76 76 31
Width: 727
Flags: W
HStem: 0 45<304.092 582.867> 0 38<45 130.24> 732 38<55 132.268 283.308 359>
VStem: 155 105<88.3919 711.251> 668 38<137.407 197>
LayerCount: 2
Fore
SplineSet
691 0 m 1x78
 45 0 l 1
 45 38 l 1x78
 103.051161073 39.6586046021 142.09841972 46.0413084581 151 95 c 0
 153.666666667 109.666666667 155 128.666666667 155 152 c 2
 155 618 l 2
 155 675.152130641 152.113493311 715.349464005 107 725.5 c 0
 93.6666666667 728.5 76.3333333333 730.666666667 55 732 c 1
 55 770 l 1
 359 770 l 1
 359 732 l 1
 302.290631887 730.227832246 271.071086397 721.752853468 263.5 672 c 0
 261.166666667 656.666666667 260 636.333333333 260 611 c 2
 260 180 l 2
 260 99.0581023681 282.785562484 61.6964531276 352 50.5 c 0
 374.666666667 46.8333333333 403.333333333 45 438 45 c 0xb8
 537.562195836 45 607.906953432 56.5648468535 641.5 120.5 c 0
 651.833333333 140.166666667 660.666666667 165.666666667 668 197 c 1
 706 197 l 1
 691 0 l 1x78
EndSplineSet
EndChar

StartChar: E
Encoding: 69 69 32
Width: 726
Flags: W
HStem: 0 43<45 137.734 300.41 557.852> 383 40<260 390.883> 518 20G<449 484> 727 43<55 139.159 260 538.512>
VStem: 155 105<80.7239 383 423 712.458> 449 35<265 329.926 474.062 538> 607 35<594 654.296> 643 38<137.1 197>
LayerCount: 2
Fore
SplineSet
260 423 m 1
 365.635657936 423 449 435.834047104 449 538 c 1
 484 538 l 1
 484 265 l 1
 449 265 l 1
 449 368.248554125 366.656070121 383 260 383 c 1
 260 157 l 2
 260 88.0190643852 287.39434318 58.744722266 347 48.5 c 0
 368.333333333 44.8333333333 394.666666667 43 426 43 c 0
 522.905507087 43 585.842249643 60.2564242985 618 123.5 c 0
 628 143.166666667 636.333333333 167.666666667 643 197 c 1
 681 197 l 1
 666 0 l 1
 45 0 l 1
 45 38 l 1
 103.051161073 39.6586046021 142.09841972 46.0413084581 151 95 c 0
 153.666666667 109.666666667 155 128.666666667 155 152 c 2
 155 618 l 2
 155 675.152130641 152.113493311 715.349464005 107 725.5 c 0
 93.6666666667 728.5 76.3333333333 730.666666667 55 732 c 1
 55 770 l 1
 633 770 l 1
 642 594 l 1
 607 594 l 1
 595.72584326 669.161044933 564.416212674 708.763964554 491 721 c 0
 467 725 438 727 404 727 c 2
 277 727 l 2
 265.666666667 727 260 721.333333333 260 710 c 2
 260 423 l 1
EndSplineSet
EndChar

StartChar: F
Encoding: 70 70 33
Width: 670
Flags: W
HStem: 0 38<45 130.24 290.112 399> 363 40<260 388.978> 722 48<260 539.716> 732 38<55 132.268>
VStem: 155 105<64.2887 363 403 712.458> 449 35<235 300.811 463.502 528> 609 35<579 643.088>
LayerCount: 2
Fore
SplineSet
260 159 m 2xee
 260 114.479280215 261.369795697 80.3585035861 284 61.5 c 0
 308.866891082 40.7775907653 349.414455582 39.1019009871 399 38 c 1
 399 0 l 1
 45 0 l 1
 45 38 l 1
 103.051161073 39.6586046021 142.09841972 46.0413084581 151 95 c 0
 153.666666667 109.666666667 155 128.666666667 155 152 c 2
 155 618 l 2
 155 675.152130641 152.113493311 715.349464005 107 725.5 c 0
 93.6666666667 728.5 76.3333333333 730.666666667 55 732 c 1
 55 770 l 1
 633 770 l 1xde
 644 579 l 1
 609 579 l 1
 597.923588234 658.380950992 569.513928956 701.865540605 494 715.5 c 0
 470 719.833333333 440 722 404 722 c 2
 277 722 l 2
 265.666666667 722 260 716.333333333 260 705 c 2
 260 403 l 1
 343.037561598 403 407.007260031 412.014520063 434 466 c 0
 442 482 447 502.666666667 449 528 c 1
 484 528 l 1
 484 235 l 1
 449 235 l 1
 442.807798888 282.060728451 431.44754711 316.848108859 400.5 337 c 0
 366.893760338 358.883132803 319.712710337 363 260 363 c 1
 260 159 l 2xee
EndSplineSet
EndChar

StartChar: J
Encoding: 74 74 34
Width: 394
Flags: W
HStem: -260 48<19.5924 106.513> 732 38<45 122.268 273.308 349>
VStem: 145 105<-135.683 711.251>
LayerCount: 2
Fore
SplineSet
60 -212 m 0
 128.747875527 -212 145 -124.207052836 145 -43 c 2
 145 618 l 2
 145 675.152130641 142.113493311 715.349464005 97 725.5 c 0
 83.6666666667 728.5 66.3333333333 730.666666667 45 732 c 1
 45 770 l 1
 349 770 l 1
 349 732 l 1
 292.290631887 730.227832246 261.071086397 721.752853468 253.5 672 c 0
 251.166666667 656.666666667 250 636.333333333 250 611 c 2
 250 -2 l 2
 250 -156.330271494 189.081530011 -260 42 -260 c 0
 -33.9666133519 -260 -110 -231.873259984 -110 -163 c 0
 -110 -129.40365891 -91.9442061858 -110 -59 -110 c 0
 5.74131979786 -110 -4.29477639649 -212 60 -212 c 0
EndSplineSet
EndChar

StartChar: K
Encoding: 75 75 35
Width: 779
Flags: W
HStem: 0 38<45 132.085 283.879 369 485 556.288 721.101 792> 732 38<55 134.246 282.675 359 473 527.996 639.189 714>
VStem: 155 105<59.3774 285 364 712.143>
LayerCount: 2
Fore
SplineSet
485 38 m 1
 519.732307116 38 558 39.2431284478 558 65 c 0
 558 70.3333333333 555.333333333 78 550 88 c 0
 544.666666667 98 536 110.333333333 524 125 c 2
 329 365 l 1
 260 285 l 1
 260 159 l 2
 260 96.7349803805 263.602451398 53.0851889862 313 42.5 c 0
 327 39.5 345.666666667 38 369 38 c 1
 369 0 l 1
 45 0 l 1
 45 38 l 1
 105.065615418 38 142.16623446 44.8100688399 151 94.5 c 0
 153.666666667 109.5 155 128.666666667 155 152 c 2
 155 618 l 2
 155 676.50165117 150.830488717 719.873331026 104 728.5 c 0
 91.3333333333 730.833333333 75 732 55 732 c 1
 55 770 l 1
 359 770 l 1
 359 732 l 1
 302.154399568 732 272.202381552 722.688991618 264 674.5 c 0
 261.333333333 658.833333333 260 637.666666667 260 611 c 2
 260 364 l 1
 510 665 l 2
 523.333333333 681.666666667 530 694.666666667 530 704 c 0
 530 722.666666667 511 732 473 732 c 1
 473 770 l 1
 714 770 l 1
 714 733 l 1
 666.665397383 733 644.59303941 720.993474447 619 697 c 0
 608.333333333 687 596 674 582 658 c 2
 394 441 l 1
 686 90 l 2
 702.666666667 70.6666666667 718.333333333 57.1666666667 733 49.5 c 0
 747.666666667 41.8333333333 767.333333333 38 792 38 c 1
 792 0 l 1
 485 0 l 1
 485 38 l 1
EndSplineSet
EndChar

StartChar: M
Encoding: 77 77 36
Width: 1090
Flags: W
HStem: -10 21G<497.25 536.902> 0 38<45 125.212 242.105 324 720 800.212 962.105 1044> 732 38<55 125.945 964.12 1034>
VStem: 155 60<63.668 645.317> 830 105<63.668 646>
LayerCount: 2
Fore
SplineSet
550 179 m 1x78
 810 770 l 1
 1034 770 l 1
 1034 732 l 1
 971.853286299 730.057915197 945.391212787 712.098620233 938.5 655 c 0
 936.166666667 635.666666667 935 611 935 581 c 2
 935 189 l 2
 935 185.12304343 934.995321109 181.274028021 934.995321109 177.459438073 c 0
 934.995321109 111.530741756 936.392963786 55.885357259 987.5 44 c 0
 1001.83333333 40.6666666667 1020.66666667 38.6666666667 1044 38 c 1
 1044 0 l 1
 720 0 l 1
 720 38 l 1x78
 784.301422238 39.8371834925 817.709298523 50.5014273429 826 107.5 c 0
 828.666666667 125.833333333 830 150.666666667 830 182 c 2
 830 646 l 1
 820 646 l 1
 528 -10 l 1
 506 -10 l 1xb8
 219 646 l 1
 215 646 l 1
 215 189 l 2
 215 185.12304343 214.995321109 181.274028021 214.995321109 177.459438073 c 0
 214.995321109 111.530741756 216.392963786 55.885357259 267.5 44 c 0
 281.833333333 40.6666666667 300.666666667 38.6666666667 324 38 c 1
 324 0 l 1
 45 0 l 1
 45 38 l 1
 109.301422238 39.8371834925 142.709298523 50.5014273429 151 107.5 c 0
 153.666666667 125.833333333 155 150.666666667 155 182 c 2
 155 588 l 2
 155 653.419771653 154.334194298 708.116386853 107 723.5 c 0
 93.6666666667 727.833333333 76.3333333333 730.666666667 55 732 c 1
 55 770 l 1
 294 770 l 1
 546 179 l 1
 550 179 l 1x78
EndSplineSet
EndChar

StartChar: A
Encoding: 65 65 37
Width: 772
Flags: W
HStem: 0 39<-6 58.8288 166.674 237 459 544.738 714.374 785> 279 50<241 469> 750 20G<355.012 414.05>
LayerCount: 2
Fore
SplineSet
459 39 m 1
 510.691174927 39 552 41.4800034086 552 82 c 0
 552 119.116198651 540.704413916 142.574994775 529 171 c 2
 488 279 l 1
 221 279 l 1
 202.223475907 233.715441894 186.237244948 194.127551174 172.5 152 c 0
 164.977829414 128.932010204 159 110.438402121 159 87 c 0
 159 44.1055359194 189.302008735 38 237 38 c 1
 237 0 l 1
 -6 0 l 1
 -6 38 l 1
 37.171730776 43.6310953186 65.340686349 54.256837059 84.5 83.5 c 0
 90.8333333333 93.1666666667 97 105 103 119 c 2
 363 770 l 1
 406 770 l 1
 633 206 l 2
 648.333333333 168.666666667 661.666666667 138.833333333 673 116.5 c 0
 697.725695594 67.7758351525 717.123453621 39 785 39 c 1
 785 0 l 1
 459 0 l 1
 459 39 l 1
241 329 m 1
 469 329 l 1
 358 624 l 1
 241 329 l 1
EndSplineSet
Substitution2: "Single Substitution lookup 6 subtable" ordfeminine
EndChar

StartChar: O
Encoding: 79 79 38
Width: 946
Flags: W
HStem: -10 55<357.397 587.523> 725 55<359.875 584.842>
VStem: 57 130<256.59 510.994> 759 130<254.728 511.549>
LayerCount: 2
Fore
SplineSet
473 780 m 256
 600.214383291 780 701.165642223 729.411702142 769 664 c 0
 835.99405571 599.398589137 889 503.583228724 889 379 c 0
 889 258.924625764 833.90913692 165.289815863 768 103.5 c 0
 700.1148863 39.8577059061 598.673979422 -10 473 -10 c 256
 347.406355362 -10 245.827668442 39.9115608356 178 103.5 c 0
 112.02206134 165.354317494 57 258.831965927 57 379 c 0
 57 503.49737629 110.066980483 599.457445466 177 664 c 0
 244.890648451 729.465982435 345.705213066 780 473 780 c 256
473 45 m 256
 617.946515916 45 702.740928696 127.003355739 739 238.5 c 0
 752.333333333 279.5 759 325.333333333 759 376 c 0
 759 534.481443332 700.158433826 650.50223342 592 700.5 c 0
 556.666666667 716.833333333 517 725 473 725 c 256
 325.139926836 725 242.776025782 635.877683147 207 520.5 c 0
 193.666666667 477.5 187 429.333333333 187 376 c 0
 187 223.060780507 247.298556969 114.304399806 354 68 c 0
 389.333333333 52.6666666667 429 45 473 45 c 256
EndSplineSet
Substitution2: "Single Substitution lookup 6 subtable" ordmasculine
EndChar

StartChar: Q
Encoding: 81 81 39
Width: 948
Flags: W
HStem: -260 99<683.289 851.809> -29 49<363.38 449> 725 55<360.875 585.842>
VStem: 58 130<242.836 510.162> 760 130<249.152 508.165> 904 25<-104.125 -72>
LayerCount: 2
Fore
SplineSet
929 -72 m 1
 931.624541311 -83.8104359012 933 -99.5292282076 933 -114 c 0
 933 -186.75968701 882.610450157 -229.883907759 827 -249 c 0
 805.666666667 -256.333333333 782.666666667 -260 758 -260 c 0
 720.666666667 -260 686.166666667 -252.833333333 654.5 -238.5 c 0
 594.332915525 -211.266477554 537.703721689 -174.657179906 483 -144.5 c 0
 457 -130.166666667 431.333333333 -123 406 -123 c 0
 357.233487037 -123 336.40481867 -155.474070721 310.5 -178 c 0
 302.833333333 -184.666666667 293.333333333 -188 282 -188 c 0
 262.666666667 -188 253 -179.666666667 253 -163 c 0
 253 -142.267882262 268.025642947 -134.290925766 283 -124.5 c 0
 291.666666667 -118.833333333 303.666666667 -111.666666667 319 -103 c 2
 449 -29 l 1
 328.596916496 -24.6998898749 232.467857668 26.980803021 169 93.5 c 0
 106.554274048 158.947924315 58 254.67507731 58 376 c 0
 58 501.409785239 110.781014252 599.181692315 178 664 c 0
 245.890648451 729.465982435 346.705213066 780 474 780 c 256
 601.214383291 780 702.165642223 729.411702142 770 664 c 0
 836.968576632 599.423158248 890 502.582435708 890 378 c 0
 890 241.355526204 825.715000986 140.125625863 749 73 c 0
 692.997945177 24.998238723 621.954552909 -5.01674366493 546 -33 c 0
 510.493315977 -47.4656860834 475.213056824 -62.504337658 447 -84 c 1
 447 -88 l 1
 454.802925632 -86.6995123946 472.615154631 -86 482 -86 c 0
 545.11993588 -86 595.126494061 -105.130653078 642 -123.5 c 0
 687.33547343 -141.266604452 734.452541604 -161 794 -161 c 0
 864.263900915 -161 886.120534613 -130.406253598 904 -72 c 1
 929 -72 l 1
474 20 m 256
 570.271073195 20 637.17871955 60.3016122415 682.5 116.5 c 0
 731.895453753 177.750362653 760 265.831860453 760 376 c 0
 760 534.481443332 701.158433826 650.50223342 593 700.5 c 0
 557.666666667 716.833333333 518 725 474 725 c 256
 326.139926836 725 243.776025782 635.877683147 208 520.5 c 0
 194.666666667 477.5 188 429.333333333 188 376 c 0
 188 215.212446157 246.197581073 96.3218957203 355 45 c 0
 390.333333333 28.3333333333 430 20 474 20 c 256
EndSplineSet
EndChar

StartChar: C
Encoding: 67 67 40
Width: 802
Flags: W
HStem: -10 54<343.541 564.084> 0 21G<703.177 744> 540 21G<675.595 726> 728 52<348.493 555.69> 750 20G<683.194 717.783>
VStem: 60 134<228.052 518.546> 689 37<540 588.122> 689 28<745.889 770> 709 35<0 24.0435 218.22 249>
LayerCount: 2
Fore
SplineSet
194 378 m 0x36
 194 183.108475514 270.228163679 44 455 44 c 0xb6
 583.666666667 44 666.333333333 112.333333333 703 249 c 1
 744 249 l 1
 744 0 l 1
 709 0 l 1x6480
 686 79 l 1
 616 19.6666666667 531.333333333 -10 432 -10 c 0
 250.959877743 -10 136.328122872 80.4982368334 86.5 214 c 0
 68.8333333333 261.333333333 60 314 60 372 c 0
 60 499.513114511 103.099593404 599.205505818 166.5 667 c 0
 228.310007317 733.09386921 320.593992287 780 443 780 c 0xb480
 483 780 520.666666667 774.333333333 556 763 c 0
 591.333333333 751.666666667 629.666666667 733.333333333 671 708 c 1
 689 770 l 1
 717 770 l 1x2d
 726 540 l 1
 689 540 l 1
 662.190071749 647.239713004 580.191184193 728 452 728 c 0
 312.751465922 728 241.854121451 637.743879674 211.5 525 c 0
 199.833333333 481.666666667 194 432.666666667 194 378 c 0x36
EndSplineSet
EndChar

StartChar: G
Encoding: 71 71 41
Width: 870
Flags: W
HStem: -10 54<345.489 558.613> 284 38<559 633.439 777.956 843> 540 21G<666 715.13> 728 52<348.493 558.796> 750 20G<685.226 727>
VStem: 60 134<226.922 518.546> 659 102<118.659 261.288> 666 48<540 630.197>
LayerCount: 2
Fore
SplineSet
659 185 m 0xf6
 659 260.341982781 632.373665563 284 559 284 c 1
 559 322 l 1
 843 322 l 1
 843 284 l 1
 798.354818172 284 772.006688317 274.461057541 764.5 238 c 0
 762.166666667 226.666666667 761 212.333333333 761 195 c 2
 761 83 l 1
 691.896785064 83 654.97254667 60.8414552402 608 34 c 0
 561.880707967 7.64611883804 500.29407963 -10 428 -10 c 0
 247.968318156 -10 133.635775041 79.9749008672 85.5 214 c 0
 68.5 261.333333333 60 314 60 372 c 0
 60 499.513114511 103.099593404 599.205505818 166.5 667 c 0
 228.310007317 733.09386921 320.593992287 780 443 780 c 0xf6
 483 780 520.666666667 774.333333333 556 763 c 0
 591.333333333 751.666666667 629.666666667 733.333333333 671 708 c 1
 692 770 l 1
 727 770 l 1
 714 540 l 1
 666 540 l 1xed
 666 638.244096524 606.946307628 695.15819782 530.5 717 c 0
 504.833333333 724.333333333 478.666666667 728 452 728 c 0
 312.751465922 728 241.854121451 637.743879674 211.5 525 c 0
 199.833333333 481.666666667 194 432.666666667 194 378 c 0
 194 183.108475514 270.228163679 44 455 44 c 0
 543.348232616 44 615.407471787 74.6585578192 645.5 131.5 c 0
 654.5 148.5 659 166.333333333 659 185 c 0xf6
EndSplineSet
EndChar

StartChar: D
Encoding: 68 68 42
Width: 884
Flags: W
HStem: 0 49<310.145 530.738> 0 38<38 131.644> 721 49<263 521.348> 732 38<58 135.268>
VStem: 158 105<94.5043 712.458> 695 130<242.649 506.165>
LayerCount: 2
Fore
SplineSet
38 0 m 1x4c
 38 38 l 1
 99.9164118678 39.6293792597 142.920448377 43.9532533579 153.5 94.5 c 0
 156.5 108.833333333 158 128 158 152 c 2
 158 618 l 2
 158 675.152130641 155.113493311 715.349464005 110 725.5 c 0
 96.6666666667 728.5 79.3333333333 730.666666667 58 732 c 1
 58 770 l 1x5c
 409 770 l 2
 537.301503034 770 639.302357801 722.125676334 707.5 657 c 0
 774.6408915 592.883472982 825 496.961834707 825 372 c 0
 825 253.728263685 778.488698612 163.722785371 714.5 104 c 0
 649.048735528 42.9121531597 551.59860193 0 429 0 c 2xac
 38 0 l 1x4c
412 49 m 0xac
 604.614832913 49 695 170.913958618 695 370 c 0
 695 531.543122453 637.4623479 646.979314159 527 697 c 0
 491.666666667 713 451.666666667 721 407 721 c 2
 280 721 l 2
 268.666666667 721 263 715.333333333 263 704 c 2
 263 163 l 2
 263 87 312.666666667 49 412 49 c 0xac
EndSplineSet
EndChar

StartChar: B
Encoding: 66 66 43
Width: 767
Flags: W
HStem: 0 43<38 138.579 301.993 507.718> 380 50<263 453.215> 723 47<263 458.418> 732 38<58 135.268>
VStem: 158 105<80.3466 380 430 712.458> 516 126<504.149 668.608> 582 135<112.897 285.484>
LayerCount: 2
Fore
SplineSet
357 770 m 2xea
 506.916842968 770 642 722.622517531 642 587 c 0xec
 642 543 628.166666667 507 600.5 479 c 0
 572.833333333 451 529 428 469 410 c 1
 469 406 l 1
 520.158297222 401.049197043 561.65635162 394.499947551 597.5 376 c 0
 607.833333333 370.666666667 618 364.666666667 628 358 c 0
 687.333333333 316 717 263.333333333 717 200 c 0
 717 88.9953564493 628.946620132 21.2213821027 528 6.5 c 0
 488.356733886 0.718690358429 447.796117694 0 398 0 c 2
 38 0 l 1
 38 38 l 1
 100.164498615 39.5939615029 143.109142876 44.2002540611 153.5 95 c 0
 156.5 109.666666667 158 128.666666667 158 152 c 2
 158 618 l 2
 158 675.152130641 155.113493311 715.349464005 110 725.5 c 0
 96.6666666667 728.5 79.3333333333 730.666666667 58 732 c 1
 58 770 l 1xda
 357 770 l 2xea
263 157 m 2
 263 69.5424450008 309.115931559 43 401 43 c 0
 521.666666667 43 582 94.6666666667 582 198 c 0xca
 582 273.333333333 551 326 489 356 c 0
 440.217772213 377.342224657 383.200228662 380 308 380 c 2
 263 380 l 1
 263 157 l 2
516 575 m 0xec
 516 682.052121273 464.883497088 723 357 723 c 2
 280 723 l 2
 268.666666667 723 263 717.333333333 263 706 c 2
 263 430 l 1
 319 430 l 2
 378.588125232 430 422.206279659 430.80418644 457 454 c 0
 497.728510013 479.455318758 516 511.24117293 516 575 c 0xec
EndSplineSet
EndChar

StartChar: V
Encoding: 86 86 44
Width: 784
Flags: W
HStem: -10 21G<368.717 420.2> 731 39<-13 50.6793 229.07 313 549 619.698 727.171 792>
LayerCount: 2
Fore
SplineSet
313 731 m 1
 268.752868474 731 222 730.118839919 222 689 c 0
 222 679.666666667 223.666666667 668.833333333 227 656.5 c 0
 230.333333333 644.166666667 236.666666667 626.333333333 246 603 c 2
 424 153 l 1
 600 587 l 2
 610 611.666666667 617 631 621 645 c 0
 625 659 627 671.666666667 627 683 c 0
 627 726.17876512 598.701549204 732 549 732 c 1
 549 770 l 1
 792 770 l 1
 792 732 l 1
 748.828269224 726.368904681 720.659313651 715.743162941 701.5 686.5 c 0
 695.166666667 676.833333333 689 665 683 651 c 2
 412 -10 l 1
 377 -10 l 1
 119 613 l 1
 91.8735725546 675.599447951 68.5930709877 724.723609924 -13 731 c 1
 -13 770 l 1
 313 770 l 1
 313 731 l 1
EndSplineSet
EndChar

StartChar: N
Encoding: 78 78 45
Width: 902
Flags: W
HStem: -10 21G<678.824 754> 0 38<45 125.212 238.669 314> 732 38<55 125.945 595 669.031 783.664 864>
VStem: 155 60<63.9236 614.883> 694 60<187 705.81>
LayerCount: 2
Fore
SplineSet
694 -10 m 1xb8
 219 616 l 1
 215 616 l 1
 215 189 l 2
 215 181.108931014 214.95533202 173.275382564 214.95533202 165.571644933 c 0
 214.95533202 106.765600129 217.558110958 55.5235612927 262.5 44 c 0
 275.5 40.6666666667 292.666666667 38.6666666667 314 38 c 1
 314 0 l 1
 45 0 l 1
 45 38 l 1x78
 109.301422238 39.8371834925 142.709298523 50.5014273429 151 107.5 c 0
 153.666666667 125.833333333 155 150.666666667 155 182 c 2
 155 588 l 2
 155 653.419771653 154.334194298 708.116386853 107 723.5 c 0
 93.6666666667 727.833333333 76.3333333333 730.666666667 55 732 c 1
 55 770 l 1
 253 770 l 1
 690 187 l 1
 694 187 l 1
 694 581 l 2
 694 588.380982498 694.036874191 595.722886506 694.036874191 602.963234625 c 0
 694.036874191 662.08851941 691.577921922 714.441558481 646.5 726 c 0
 633.5 729.333333333 616.333333333 731.333333333 595 732 c 1
 595 770 l 1
 864 770 l 1
 864 732 l 1
 799.415765433 730.154736155 766.213021109 719.491147761 758 662 c 0
 755.333333333 643.333333333 754 618.666666667 754 588 c 2
 754 -10 l 1
 694 -10 l 1xb8
EndSplineSet
EndChar

StartChar: P
Encoding: 80 80 46
Width: 687
Flags: W
HStem: 0 38<45 130.24 289.316 398> 350 50<260 451.964> 723 47<260 466.549> 732 38<55 132.268>
VStem: 155 105<62.9525 350 400 712.458> 528 130<473.036 663.112>
LayerCount: 2
Fore
SplineSet
369 770 m 2xec
 524.068477044 770 658 717.998365476 658 577 c 0
 658 403.482332134 528.321185098 350 350 350 c 2
 260 350 l 1
 260 157 l 2
 260 89.0409384928 267.852576558 51.9332147451 325.5 42.5 c 0
 343.833333333 39.5 368 38 398 38 c 1
 398 0 l 1
 45 0 l 1
 45 38 l 1
 103.051161073 39.6586046021 142.09841972 46.0413084581 151 95 c 0
 153.666666667 109.666666667 155 128.666666667 155 152 c 2
 155 618 l 2
 155 675.152130641 152.113493311 715.349464005 107 725.5 c 0
 93.6666666667 728.5 76.3333333333 730.666666667 55 732 c 1
 55 770 l 1xdc
 369 770 l 2xec
528 565 m 0
 528 677.145404251 479.998429264 723 369 723 c 2
 277 723 l 2xec
 265.666666667 723 260 717.333333333 260 706 c 2
 260 400 l 1
 331 400 l 2
 457.785250065 400 528 441.830090267 528 565 c 0
EndSplineSet
EndChar

StartChar: R
Encoding: 82 82 47
Width: 788
Flags: W
HStem: 0 38<45 130.24 289.316 398 743.801 815> 365 50<260 348.149> 723 47<260 466.549> 732 38<55 132.268>
VStem: 155 105<62.9525 365 415 712.458> 528 130<482.163 661.761>
LayerCount: 2
Fore
SplineSet
369 770 m 2xec
 524.068477044 770 658 717.998365476 658 577 c 0
 658 523.666666667 642 479.333333333 610 444 c 0
 578 408.666666667 527 385 457 373 c 1
 678 107 l 2
 712.679995969 64.6133382598 750.76180075 47.9926087723 815 38 c 1
 815 0 l 1
 622 0 l 1
 377 314 l 2
 357.223778597 339.861212604 338.769564238 359.930039615 299.5 363.5 c 0
 288.5 364.5 275.333333333 365 260 365 c 1
 260 157 l 2
 260 89.0409384928 267.852576558 51.9332147451 325.5 42.5 c 0
 343.833333333 39.5 368 38 398 38 c 1
 398 0 l 1
 45 0 l 1
 45 38 l 1
 103.051161073 39.6586046021 142.09841972 46.0413084581 151 95 c 0
 153.666666667 109.666666667 155 128.666666667 155 152 c 2
 155 618 l 2
 155 675.152130641 152.113493311 715.349464005 107 725.5 c 0
 93.6666666667 728.5 76.3333333333 730.666666667 55 732 c 1
 55 770 l 1xdc
 369 770 l 2xec
528 572 m 0
 528 680.776646858 477.94188019 723 369 723 c 2
 277 723 l 2xec
 265.666666667 723 260 717.333333333 260 706 c 2
 260 415 l 1
 331 415 l 2
 455.390666588 415 528 452.506384535 528 572 c 0
EndSplineSet
EndChar

StartChar: S
Encoding: 83 83 48
Width: 645
Flags: W
HStem: -10 51<220.531 418.404> 729 51<231.676 401.6>
VStem: 58 37<172.381 235> 90 94<551.708 664.953> 482 109<122.173 239.509> 496 37<567 615.244>
LayerCount: 2
Fore
SplineSet
319 -10 m 0xd8
 229.457148792 -10 178.977856966 15.549817772 124 60 c 1
 96 11 l 1
 73 11 l 1
 58 235 l 1
 95 235 l 1
 109.099581257 144.359834776 160.969712536 81.6859449548 238.5 54.5 c 0
 264.166666667 45.5 292 41 322 41 c 0
 412.364437289 41 482 84.6681559159 482 171 c 0xe8
 482 211.083687716 467.7354818 235.332905245 445 257.5 c 0
 409.444407421 292.166702765 362.911596026 312.881272302 307 337 c 0
 238.025727194 367.037183319 178.44249514 395.162105249 136 441 c 0
 105.719261853 473.703197199 90 509.397507481 90 568 c 0
 90 670.019331079 148.599519616 735.994940342 224 764.5 c 0
 251.333333333 774.833333333 281.333333333 780 314 780 c 0
 384.707640701 780 428.678205602 756.230144265 473 721 c 1
 499 766 l 1
 522 766 l 1
 533 567 l 1
 496 567 l 1xd4
 469.758315963 656.659087127 419.888182328 729 317 729 c 0
 241.606132498 729 184 690.544273353 184 618 c 0
 184 580.600194964 197.113350142 557.80646514 218 537.5 c 0
 249.018391099 507.343230876 289.211764392 487.115732013 337 466 c 0
 386.333333333 444 427.333333333 423.5 460 404.5 c 0
 492.666666667 385.5 518.666666667 366.5 538 347.5 c 0
 571.887185144 314.197076669 591 277.97996064 591 217 c 0
 591 143.155599402 557.744225949 88.6201882911 515 53 c 0
 469.019055567 14.6825463054 401.714173278 -10 319 -10 c 0xd8
EndSplineSet
EndChar

StartChar: T
Encoding: 84 84 49
Width: 803
Flags: W
HStem: 0 38<212 303.686 499.982 590> 727.073 42.9265<113.51 340.449 462.233 683.893>
VStem: 21 37<579 665.829> 342 119<70.7673 720.846> 745 41<579 664.053>
LayerCount: 2
Fore
SplineSet
786 579 m 1
 745 579 l 1
 739.52094789 657.533080236 715.326437682 704.797256007 648 720 c 0
 627.333333333 724.666666667 602.666666667 727 574 727 c 0
 564.845323767 727 556.132189769 727.073483179 547.833378542 727.073483179 c 0
 521.276781686 727.073483179 498.962978111 726.320992704 480 720 c 0
 466.64090614 715.546968713 461 711.121411338 461 696 c 2
 461 161 l 2
 461 96.5588404545 472.466188263 61.2158269815 522.5 46.5 c 0
 539.5 41.5 562 38.6666666667 590 38 c 1
 590 0 l 1
 212 0 l 1
 212 38 l 1
 279.184799339 39.5996380795 326.73920107 51.0003610259 337.5 106 c 0
 340.5 121.333333333 342 139.666666667 342 161 c 2
 342 696 l 2
 342 720.28322081 319.801705178 723.541970644 295 725.5 c 0
 282.333333333 726.5 265.333333333 727 244 727 c 0
 192.119018249 727 146.129527807 725.811353192 113.5 706.5 c 0
 75.9213249317 684.259559653 59.193055852 642.231960156 58 579 c 1
 21 579 l 1
 21 770 l 1
 776 770 l 1
 786 579 l 1
EndSplineSet
EndChar

StartChar: U
Encoding: 85 85 50
Width: 861
Flags: W
HStem: -10 62<351.778 565.861> 732 38<29 113.028 287.155 370 542 628.078 754.678 832>
VStem: 140 120<148.279 706.955> 662 60<157.523 697.395>
LayerCount: 2
Fore
SplineSet
462 52 m 0
 599.24868168 52 662 131.373660948 662 271 c 2
 662 512 l 2
 662 571.333333333 659.666666667 616.333333333 655 647 c 0
 647.883741986 693.763981234 634.393709047 721.767715159 594 728.5 c 0
 580 730.833333333 562.666666667 732 542 732 c 1
 542 770 l 1
 832 770 l 1
 832 732 l 1
 790.883984165 732 763.704562952 728.664797516 747 705 c 0
 737 691 730.333333333 669.166666667 727 639.5 c 0
 723.666666667 609.833333333 722 567.333333333 722 512 c 2
 722 310 l 2
 722 101.738957807 642.298526116 -10 434 -10 c 0
 288.052656578 -10 194.412001104 30.7639966888 158 140 c 0
 146 176 140 220.333333333 140 273 c 2
 140 537 l 2
 140 586.333333333 138.833333333 624.333333333 136.5 651 c 0
 132.751383401 693.841332555 119.339994238 719.632684192 83.5 727.5 c 0
 69.8333333333 730.5 51.6666666667 732 29 732 c 1
 29 770 l 1
 370 770 l 1
 370 732 l 1
 328.034028614 732 299.239397822 730.985863762 282 708 c 0
 272.666666667 696 266.666666667 676.833333333 264 650.5 c 0
 261.333333333 624.166666667 260 586.333333333 260 537 c 2
 260 265 l 2
 260 123.286155782 319.433332912 52 462 52 c 0
EndSplineSet
EndChar

StartChar: W
Encoding: 87 87 51
Width: 1176
Flags: W
HStem: -10 21G<341.753 391.487 782.251 831.595> 731.098 38.9019<-11 59.6589 230.045 315 464 513.273 683.987 770 941 1010.17 1113.15 1184>
LayerCount: 2
Fore
SplineSet
315 731 m 1
 262.877753632 731 223 729.833872789 223 687 c 0
 223 661.284210647 230.714419562 640.821043759 239 617 c 2
 391 154 l 1
 514 500 l 2
 530.181354507 545.076630411 550.23055381 589.903119109 563 633 c 1
 547.771673431 664.54439075 535.328171573 691.077401104 514.5 711 c 0
 501.462990717 723.470182792 486.735522004 731 464 731 c 1
 464 770 l 1
 770 770 l 1
 770 731 l 1
 762.911253396 731 755.826505958 731.098106307 748.915952448 731.098106307 c 0
 711.389658846 731.098106307 679 728.205145138 679 691 c 0
 679 681 680.833333333 668.833333333 684.5 654.5 c 0
 688.166666667 640.166666667 693.333333333 622 700 600 c 2
 834 151 l 1
 990 585 l 2
 999.333333333 611 1006 631.666666667 1010 647 c 0
 1014 662.333333333 1016 675.666666667 1016 687 c 0
 1016 727.833074653 987.537844886 732 941 732 c 1
 941 770 l 1
 1184 770 l 1
 1184 732 l 1
 1116.77603869 732 1094.46170972 703.303344869 1075 651 c 2
 824 -10 l 1
 789 -10 l 1
 597 559 l 1
 384 -10 l 1
 349 -10 l 1
 141 564 l 2
 129 596 118.166666667 622.833333333 108.5 644.5 c 0
 85.4469845481 696.170551875 60.0352779037 731 -11 731 c 1
 -11 770 l 1
 315 770 l 1
 315 731 l 1
EndSplineSet
EndChar

StartChar: X
Encoding: 88 88 52
Width: 818
Flags: W
HStem: 0 38<2 79.4416 200.087 280 481 541.977 750.771 822> 732 38<28 108.327 301.348 360 505 573.361 703.731 780>
LayerCount: 2
Fore
SplineSet
580 688 m 0
 580 727.807756483 550.856298048 732 505 732 c 1
 505 770 l 1
 780 770 l 1
 780 732 l 1
 721.576450968 732 699.386125001 714.479401317 670 682 c 0
 657.333333333 668 642 649.333333333 624 626 c 2
 465 421 l 1
 695 109 l 2
 729.666666667 61.6666666667 772 38 822 38 c 1
 822 0 l 1
 481 0 l 1
 481 38 l 1
 511 38 531.5 40.8333333333 542.5 46.5 c 0
 553.5 52.1666666667 559 60 559 70 c 0
 559 95.8751775599 547.011892365 110.780972216 535 130 c 0
 528.333333333 140.666666667 519.333333333 154.666666667 508 172 c 2
 394 342 l 1
 308 234 l 2
 274.598635033 191.978927945 247.112649686 158.380239497 222.5 119 c 0
 214.166666667 105.666666667 208.166666667 94.6666666667 204.5 86 c 0
 200.833333333 77.3333333333 199 70 199 64 c 0
 199 39.4303318012 230.294403869 37.9736367927 265.599862911 37.9736367927 c 0
 270.349458896 37.9736367927 275.171646796 38 280 38 c 1
 280 0 l 1
 2 0 l 1
 2 38 l 1
 59.6951176616 38 91.9621445589 59.9621445589 122.5 90.5 c 0
 135.5 103.5 149.666666667 119.666666667 165 139 c 2
 361 389 l 1
 158 666 l 2
 128.406164362 707.431369893 93.3433355615 732 28 732 c 1
 28 770 l 1
 360 770 l 1
 360 732 l 1
 316.666666667 732 295 719 295 693 c 0
 295 676.333333333 304.333333333 654.333333333 323 627 c 2
 432 465 l 1
 530 589 l 2
 548.666666667 612.333333333 561.666666667 631.333333333 569 646 c 0
 576.333333333 660.666666667 580 674.666666667 580 688 c 0
EndSplineSet
EndChar

StartChar: Y
Encoding: 89 89 53
Width: 733
Flags: W
HStem: 0 38<204 286.47 445.87 528> 732 38<-5 62.04 223.496 310 508 569.74 677.108 737>
VStem: 314 105<63.2093 304>
LayerCount: 2
Fore
SplineSet
573 698 m 256
 573 729.300286228 545.476454691 732 508 732 c 1
 508 770 l 1
 737 770 l 1
 737 732 l 1
 701.847427612 732 685.338081443 722.338081443 665 702 c 0
 653 690 639.833333333 673.333333333 625.5 652 c 0
 611.166666667 630.666666667 593.666666667 602.666666667 573 568 c 2
 419 308 l 1
 419 189 l 2
 419 182.896098369 418.981422026 176.871608316 418.981422026 170.949031395 c 0
 418.981422026 107.73914537 421.0975745 56.137829779 470.5 43.5 c 0
 484.833333333 39.8333333333 504 38 528 38 c 1
 528 0 l 1
 204 0 l 1
 204 38 l 1
 270.868231893 38 301.745232653 50.2166285729 310 108 c 0
 312.666666667 126.666666667 314 151.333333333 314 182 c 2
 314 304 l 1
 114 646 l 2
 87.239381455 692.385072145 65.0513774059 732 -5 732 c 1
 -5 770 l 1
 310 770 l 1
 310 732 l 1
 264.46339033 732 219 732 219 698 c 0
 219 684 226.666666667 664 242 638 c 2
 397 373 l 1
 401 373 l 1
 514 563 l 2
 535.333333333 599 550.5 627.333333333 559.5 648 c 0
 568.5 668.666666667 573 685.333333333 573 698 c 256
EndSplineSet
EndChar

StartChar: Z
Encoding: 90 90 54
Width: 770
Flags: W
HStem: 0 46<179 608.15> 728 42<177.573 542>
VStem: 76 37<586 651.424> 679 43<135.007 235>
LayerCount: 2
Fore
SplineSet
268 728 m 2
 163.63128524 728 129.993790222 680.67968838 113 586 c 1
 76 586 l 1
 91 770 l 1
 700 770 l 1
 700 766 l 1
 179 46 l 1
 489 46 l 2
 551.974623138 46 596.722212291 51.4959247854 626.5 82 c 0
 660.16288162 116.483927513 668.969971359 169.247590019 679 235 c 1
 722 235 l 1
 710 0 l 1
 16 0 l 1
 16 4 l 1
 542 728 l 1
 268 728 l 2
EndSplineSet
EndChar

StartChar: dotaccent
Encoding: 729 729 55
Width: 164
Flags: W
HStem: 681 124<35.0638 128.936>
VStem: 20 124<696.064 789.936>
LayerCount: 2
Fore
SplineSet
82 681 m 256
 47.5938566589 681 20 708.594773551 20 743 c 256
 20 777.406143341 47.5947735506 805 82 805 c 256
 116.406143341 805 144 777.405226449 144 743 c 256
 144 708.593856659 116.405226449 681 82 681 c 256
EndSplineSet
EndChar

StartChar: dieresis
Encoding: 168 168 56
Width: 323
Flags: W
HStem: 651 116<32.0336 123.966 199.034 290.966>
VStem: 20 116<663.034 754.966> 187 116<663.034 754.966>
LayerCount: 2
Fore
SplineSet
78 651 m 256
 44.8750853271 651 20 675.87581884 20 709 c 256
 20 742.124914673 44.8758188405 767 78 767 c 256
 111.124914673 767 136 742.12418116 136 709 c 256
 136 675.875085327 111.12418116 651 78 651 c 256
245 651 m 256
 211.875085327 651 187 675.87581884 187 709 c 256
 187 742.124914673 211.87581884 767 245 767 c 256
 278.124914673 767 303 742.12418116 303 709 c 256
 303 675.875085327 278.12418116 651 245 651 c 256
EndSplineSet
EndChar

StartChar: dotlessj
Encoding: 567 567 57
Width: 304
Flags: W
HStem: -260 43<-11.4649 86.5246> 467 35<17 53.1053> 520 20G<109.842 213>
VStem: 115 98<-134.765 453.165>
LayerCount: 2
Fore
SplineSet
-137 -167 m 0
 -137 -135.865871488 -117.38070305 -120 -86 -120 c 0
 -74 -120 -64.8333333333 -122.833333333 -58.5 -128.5 c 0
 -52.1666666667 -134.166666667 -44 -147 -34 -167 c 0
 -24.6666666667 -187 -16 -200.333333333 -8 -207 c 0
 0 -213.666666667 12.3333333333 -217 29 -217 c 0
 61 -217 83.3333333333 -206 96 -184 c 0
 108.666666667 -162 115 -123.333333333 115 -68 c 2
 115 280 l 2
 115 318.666666667 114.5 350.5 113.5 375.5 c 0
 111.765533512 418.861662195 111.16160359 446.145909416 85 458.5 c 0
 73 464.166666667 50.3333333333 467 17 467 c 1
 17 502 l 1
 213 540 l 1
 213 -2 l 2
 213 -154.264032951 152.784853399 -260 8 -260 c 0
 -63.0163984982 -260 -137 -231.991167777 -137 -167 c 0
EndSplineSet
EndChar

StartChar: dotaccent.cap
Encoding: 65539 -1 58
Width: 165
Flags: W
HStem: 852 107<41.3932 125.287>
VStem: 30 107<863.393 947.286>
LayerCount: 2
Fore
SplineSet
82 852 m 0
 54.2605233256 852 30 876.261440217 30 904 c 0
 30 933.343647993 53.2168502941 959 82 959 c 0
 112.432195674 959 137 934.431370471 137 904 c 0
 137 875.220754319 111.337358451 852 82 852 c 0
EndSplineSet
EndChar

StartChar: dieresis.cap
Encoding: 65540 -1 59
Width: 323
Flags: W
HStem: 859 101<29.1755 111.865 211.135 293.825>
VStem: 20 101<868.135 950.825> 202 101<868.135 950.825>
LayerCount: 2
Fore
SplineSet
70 859 m 0
 41.6830451975 859 20 881.384188626 20 910 c 0
 20 937.79158134 42.2091521738 960 70 960 c 0
 98.6189337738 960 121 938.318600078 121 910 c 0
 121 880.849032995 99.1503251813 859 70 859 c 0
253 859 m 0
 223.849032995 859 202 880.849674819 202 910 c 0
 202 938.316954802 224.384188626 960 253 960 c 0
 280.79158134 960 303 937.790847826 303 910 c 0
 303 881.381066226 281.318600078 859 253 859 c 0
EndSplineSet
EndChar

StartChar: dotbelow
Encoding: 65541 -1 60
Width: 164
Flags: W
HStem: -230 124<35.0638 128.936>
VStem: 20 124<-214.936 -121.064>
LayerCount: 2
Fore
SplineSet
82 -230 m 256
 47.5938566589 -230 20 -202.405226449 20 -168 c 256
 20 -133.593856659 47.5947735506 -106 82 -106 c 256
 116.406143341 -106 144 -133.594773551 144 -168 c 256
 144 -202.406143341 116.405226449 -230 82 -230 c 256
EndSplineSet
EndChar

StartChar: ndotaccent
Encoding: 7749 7749 61
Width: 689
Flags: W
HStem: 0 34<37 101.443 233.17 299 406 470.158 602 665> 470 32<35 64.4737> 486 54<308.814 442.318> 681 124<306.064 399.936>
VStem: 121 95<48.8915 402.686> 291 124<696.064 789.936> 489 95<48.715 431.728>
LayerCount: 2
Fore
SplineSet
353 681 m 256x9e
 318.593856659 681 291 708.594773551 291 743 c 256
 291 777.406143341 318.594773551 805 353 805 c 256
 387.406143341 805 415 777.405226449 415 743 c 256
 415 708.593856659 387.405226449 681 353 681 c 256x9e
EndSplineSet
Refer: 4 110 S 1 0 0 1 0 0 3
EndChar

StartChar: cdotaccent
Encoding: 267 267 62
Width: 536
Flags: W
HStem: -10 52<242.73 405.797> 493 47<231.489 372.001> 681 124<269.064 362.936>
VStem: 49 114<140.692 379.002> 254 124<696.064 789.936>
LayerCount: 2
Fore
SplineSet
316 681 m 256
 281.593856659 681 254 708.594773551 254 743 c 256
 254 777.406143341 281.594773551 805 316 805 c 256
 350.406143341 805 378 777.405226449 378 743 c 256
 378 708.593856659 350.405226449 681 316 681 c 256
EndSplineSet
Refer: 16 99 S 1 0 0 1 0 0 3
EndChar

StartChar: edotaccent
Encoding: 279 279 63
Width: 573
Flags: W
HStem: -10 52<258.718 417.447> 317 46<173 416.565> 492 48<233.095 380.159> 681 124<266.064 359.936>
VStem: 49 113<152.318 314.418> 251 124<696.064 789.936> 417 109<327.426 442.141>
LayerCount: 2
Fore
SplineSet
313 681 m 256
 278.593856659 681 251 708.594773551 251 743 c 256
 251 777.406143341 278.594773551 805 313 805 c 256
 347.406143341 805 375 777.405226449 375 743 c 256
 375 708.593856659 347.405226449 681 313 681 c 256
EndSplineSet
Refer: 17 101 S 1 0 0 1 0 0 3
EndChar

StartChar: zdotaccent
Encoding: 380 380 64
Width: 557
Flags: W
HStem: 0 46<170 428.205> 488 42<132.639 364> 681 124<240.064 333.936>
VStem: 65 32<392 443.539> 225 124<696.064 789.936> 482 33<108.857 155>
LayerCount: 2
Fore
SplineSet
287 681 m 256
 252.593856659 681 225 708.594773551 225 743 c 256
 225 777.406143341 252.594773551 805 287 805 c 256
 321.406143341 805 349 777.405226449 349 743 c 256
 349 708.593856659 321.405226449 681 287 681 c 256
EndSplineSet
Refer: 27 122 S 1 0 0 1 0 0 3
EndChar

StartChar: adieresis
Encoding: 228 228 65
Width: 554
Flags: W
HStem: -10 61<166.221 267.51 413.045 521.692> 502 38<191.352 308.683> 651 116<136.034 227.966 303.034 394.966>
VStem: 43 101<72.7466 179.695> 67 102<398.02 482.337> 124 116<663.034 754.966> 291 116<663.034 754.966> 349 98<124.573 296 339 463.026> 357 90<58.2934 97>
LayerCount: 2
Fore
SplineSet
182 651 m 256xe4
 148.875085327 651 124 675.87581884 124 709 c 256
 124 742.124914673 148.87581884 767 182 767 c 256
 215.124914673 767 240 742.12418116 240 709 c 256
 240 675.875085327 215.12418116 651 182 651 c 256xe4
349 651 m 256xe1
 315.875085327 651 291 675.87581884 291 709 c 256xe2
 291 742.124914673 315.87581884 767 349 767 c 256xe1
 382.124914673 767 407 742.12418116 407 709 c 256xe2
 407 675.875085327 382.12418116 651 349 651 c 256xe1
EndSplineSet
Refer: 28 97 S 1 0 0 1 0 0 3
EndChar

StartChar: udieresis
Encoding: 252 252 66
Width: 670
Flags: W
HStem: -10 60<249.313 367.634> 1 35<575.733 648> 495 35<21 84.8602 380 443.86> 651 116<184.034 275.966 351.034 442.966>
VStem: 104 98<107.208 479.817> 172 116<663.034 754.966> 339 116<663.034 754.966> 463 98<154.471 479.817>
LayerCount: 2
Fore
SplineSet
230 651 m 256x37
 196.875085327 651 172 675.87581884 172 709 c 256
 172 742.124914673 196.87581884 767 230 767 c 256
 263.124914673 767 288 742.12418116 288 709 c 256
 288 675.875085327 263.12418116 651 230 651 c 256x37
397 651 m 256
 363.875085327 651 339 675.87581884 339 709 c 256
 339 742.124914673 363.87581884 767 397 767 c 256
 430.124914673 767 455 742.12418116 455 709 c 256
 455 675.875085327 430.12418116 651 397 651 c 256
EndSplineSet
Refer: 5 117 S 1 0 0 1 0 0 3
EndChar

StartChar: odieresis
Encoding: 246 246 67
Width: 654
Flags: W
HStem: -10 51<248.359 403.873> 492 48<247.576 402.476> 651 116<196.034 287.966 363.034 454.966>
VStem: 48 113<159.033 375.913> 184 116<663.034 754.966> 351 116<663.034 754.966> 493 113<158.847 375.44>
LayerCount: 2
Fore
SplineSet
242 651 m 256
 208.875085327 651 184 675.87581884 184 709 c 256
 184 742.124914673 208.87581884 767 242 767 c 256
 275.124914673 767 300 742.12418116 300 709 c 256
 300 675.875085327 275.12418116 651 242 651 c 256
409 651 m 256
 375.875085327 651 351 675.87581884 351 709 c 256
 351 742.124914673 375.87581884 767 409 767 c 256
 442.124914673 767 467 742.12418116 467 709 c 256
 467 675.875085327 442.12418116 651 409 651 c 256
EndSplineSet
Refer: 10 111 S 1 0 0 1 0 0 3
EndChar

StartChar: edieresis
Encoding: 235 235 68
Width: 573
Flags: W
HStem: -10 52<258.718 417.447> 317 46<173 416.565> 492 48<233.095 380.159> 651 116<184.034 275.966 351.034 442.966>
VStem: 49 113<152.318 314.418> 172 116<663.034 754.966> 339 116<663.034 754.966> 417 109<327.426 442.141>
LayerCount: 2
Fore
SplineSet
230 651 m 256xfc
 196.875085327 651 172 675.87581884 172 709 c 256
 172 742.124914673 196.87581884 767 230 767 c 256
 263.124914673 767 288 742.12418116 288 709 c 256
 288 675.875085327 263.12418116 651 230 651 c 256xfc
397 651 m 256
 363.875085327 651 339 675.87581884 339 709 c 256
 339 742.124914673 363.87581884 767 397 767 c 256
 430.124914673 767 455 742.12418116 455 709 c 256xfe
 455 675.875085327 430.12418116 651 397 651 c 256
EndSplineSet
Refer: 17 101 S 1 0 0 1 0 0 3
EndChar

StartChar: wdieresis
Encoding: 7813 7813 69
Width: 852
Flags: W
HStem: -10 21G<234.75 285.967 544.388 596.094> 495 35<12 75.8943 212.572 277 638 701.673 795.441 838> 651 116<322.034 413.966 489.034 580.966>
VStem: 310 116<663.034 754.966> 477 116<663.034 754.966>
LayerCount: 2
Fore
SplineSet
368 651 m 256
 334.875085327 651 310 675.87581884 310 709 c 256
 310 742.124914673 334.87581884 767 368 767 c 256
 401.124914673 767 426 742.12418116 426 709 c 256
 426 675.875085327 401.12418116 651 368 651 c 256
535 651 m 256
 501.875085327 651 477 675.87581884 477 709 c 256
 477 742.124914673 501.87581884 767 535 767 c 256
 568.124914673 767 593 742.12418116 593 709 c 256
 593 675.875085327 568.12418116 651 535 651 c 256
EndSplineSet
Refer: 24 119 S 1 0 0 1 0 0 3
EndChar

StartChar: ydieresis
Encoding: 255 255 70
Width: 639
Flags: W
HStem: -260 103<93.0541 215.435> 495 35<4 59.1131 207.3 269 408 471.739 578.019 628> 651 116<220.034 311.966 387.034 478.966>
VStem: 208 116<663.034 754.966> 375 116<663.034 754.966>
LayerCount: 2
Fore
SplineSet
266 651 m 256
 232.875085327 651 208 675.87581884 208 709 c 256
 208 742.124914673 232.87581884 767 266 767 c 256
 299.124914673 767 324 742.12418116 324 709 c 256
 324 675.875085327 299.12418116 651 266 651 c 256
433 651 m 256
 399.875085327 651 375 675.87581884 375 709 c 256
 375 742.124914673 399.87581884 767 433 767 c 256
 466.124914673 767 491 742.12418116 491 709 c 256
 491 675.875085327 466.12418116 651 433 651 c 256
EndSplineSet
Refer: 26 121 S 1 0 0 1 0 0 3
EndChar

StartChar: idieresis
Encoding: 239 239 71
Width: 341
Flags: W
HStem: 0 37<34 105.749 251.169 321> 465 37<32 68.1053> 520 20G<124.842 228> 651 116<51.0336 142.966 218.034 309.966>
VStem: 39 116<663.034 754.966> 130 98<58.4301 451.172> 206 116<663.034 754.966>
LayerCount: 2
Fore
SplineSet
97 651 m 256xf8
 63.8750853271 651 39 675.87581884 39 709 c 256
 39 742.124914673 63.8758188405 767 97 767 c 256
 130.124914673 767 155 742.12418116 155 709 c 256
 155 675.875085327 130.12418116 651 97 651 c 256xf8
264 651 m 256
 230.875085327 651 206 675.87581884 206 709 c 256
 206 742.124914673 230.87581884 767 264 767 c 256
 297.124914673 767 322 742.12418116 322 709 c 256xf2
 322 675.875085327 297.12418116 651 264 651 c 256
EndSplineSet
Refer: 9 305 S 1 0 0 1 0 0 3
EndChar

StartChar: idotbelow
Encoding: 7883 7883 72
Width: 341
Flags: W
HStem: -230 124<132.064 225.936> 0 37<34 105.749 251.169 321> 465 37<32 68.1053> 520 20G<124.842 228> 681 124<128.064 221.936>
VStem: 113 124<696.064 789.936> 117 124<-214.936 -121.064> 130 98<58.4301 451.172>
LayerCount: 2
Fore
SplineSet
179 -230 m 256xfa
 144.593856659 -230 117 -202.405226449 117 -168 c 256
 117 -133.593856659 144.594773551 -106 179 -106 c 256
 213.406143341 -106 241 -133.594773551 241 -168 c 256
 241 -202.406143341 213.405226449 -230 179 -230 c 256xfa
EndSplineSet
Refer: 469 105 S 1 0 0 1 0 0 3
EndChar

StartChar: udotbelow
Encoding: 7909 7909 73
Width: 670
Flags: W
HStem: -230 124<244.064 337.936> -10 60<249.313 367.634> 1 35<575.733 648> 495 35<21 84.8602 380 443.86>
VStem: 104 98<107.208 479.817> 229 124<-214.936 -121.064> 463 98<154.471 479.817>
LayerCount: 2
Fore
SplineSet
291 -230 m 256x9e
 256.593856659 -230 229 -202.405226449 229 -168 c 256
 229 -133.593856659 256.594773551 -106 291 -106 c 256
 325.406143341 -106 353 -133.594773551 353 -168 c 256
 353 -202.406143341 325.405226449 -230 291 -230 c 256x9e
EndSplineSet
Refer: 5 117 S 1 0 0 1 0 0 3
EndChar

StartChar: hdotbelow
Encoding: 7717 7717 74
Width: 688
Flags: W
HStem: -230 124<298.064 391.936> 0 35<24 91.1827 224.952 290 400 465.898 599.92 665> 485 55<305.471 437.175> 758 34<22 55.8947> 810 20G<109.158 206>
VStem: 110 97.7561<50.5279 401.934 449 745.374> 283 124<-214.936 -121.064> 484 99<49.5972 427.64>
LayerCount: 2
Fore
SplineSet
345 -230 m 256
 310.593856659 -230 283 -202.405226449 283 -168 c 256
 283 -133.593856659 310.594773551 -106 345 -106 c 256
 379.406143341 -106 407 -133.594773551 407 -168 c 256
 407 -202.406143341 379.405226449 -230 345 -230 c 256
EndSplineSet
Refer: 6 104 S 1 0 0 1 0 0 3
EndChar

StartChar: rdotbelow
Encoding: 7771 7771 75
Width: 477
Flags: W
HStem: -230 124<128.064 221.936> 0 35<38 105.357 238.952 304> 456 35<36 68.2368> 457 83<328.256 431.279> 509 20G<118.895 213.258>
VStem: 113 124<-214.936 -121.064> 124 98<50.0212 348.68 405 445.174>
LayerCount: 2
Fore
SplineSet
175 -230 m 256xc4
 140.593856659 -230 113 -202.405226449 113 -168 c 256
 113 -133.593856659 140.594773551 -106 175 -106 c 256
 209.406143341 -106 237 -133.594773551 237 -168 c 256
 237 -202.406143341 209.405226449 -230 175 -230 c 256xc4
EndSplineSet
Refer: 8 114 S 1 0 0 1 0 0 3
EndChar

StartChar: odotbelow
Encoding: 7885 7885 76
Width: 654
Flags: W
HStem: -230 124<278.064 371.936> -10 51<248.359 403.873> 492 48<247.576 402.476>
VStem: 48 113<159.033 375.913> 263 124<-214.936 -121.064> 493 113<158.847 375.44>
LayerCount: 2
Fore
SplineSet
325 -230 m 256
 290.593856659 -230 263 -202.405226449 263 -168 c 256
 263 -133.593856659 290.594773551 -106 325 -106 c 256
 359.406143341 -106 387 -133.594773551 387 -168 c 256
 387 -202.406143341 359.405226449 -230 325 -230 c 256
EndSplineSet
Refer: 10 111 S 1 0 0 1 0 0 3
EndChar

StartChar: ddotbelow
Encoding: 7693 7693 77
Width: 675
Flags: W
HStem: -230 124<261.064 354.936> -10 48<236.485 390.307> 1 34<579.452 650> 492 48<235.29 389.716> 762 30<357 394.763> 810 20G<454.105 562>
VStem: 48 113<149.545 383.094> 246 124<-214.936 -121.064> 464 98<109.073 423.57 473 747.771> 484 79<46.6485 84>
LayerCount: 2
Fore
SplineSet
308 -230 m 256x9f
 273.593856659 -230 246 -202.405226449 246 -168 c 256
 246 -133.593856659 273.594773551 -106 308 -106 c 256
 342.406143341 -106 370 -133.594773551 370 -168 c 256
 370 -202.406143341 342.405226449 -230 308 -230 c 256x9f
EndSplineSet
Refer: 12 100 S 1 0 0 1 0 0 3
EndChar

StartChar: edotbelow
Encoding: 7865 7865 78
Width: 573
Flags: W
HStem: -230 124<265.064 358.936> -10 52<258.718 417.447> 317 46<173 416.565> 492 48<233.095 380.159>
VStem: 49 113<152.318 314.418> 250 124<-214.936 -121.064> 417 109<327.426 442.141>
LayerCount: 2
Fore
SplineSet
312 -230 m 256
 277.593856659 -230 250 -202.405226449 250 -168 c 256
 250 -133.593856659 277.594773551 -106 312 -106 c 256
 346.406143341 -106 374 -133.594773551 374 -168 c 256
 374 -202.406143341 346.405226449 -230 312 -230 c 256
EndSplineSet
Refer: 17 101 S 1 0 0 1 0 0 3
EndChar

StartChar: sdotbelow
Encoding: 7779 7779 79
Width: 454
Flags: W
HStem: -229 124<193.064 286.936> -10 41<163.042 294.988> 0 21G<64 97.4286> 499 41<167.431 281.501> 510 20G<323.952 362>
VStem: 64 25<135.132 172> 67 82<378.414 469.876> 178 124<-213.936 -120.064> 318 89<60.4235 157.379> 336 26<386 417.544>
LayerCount: 2
Fore
SplineSet
240 -229 m 256x81
 205.593856659 -229 178 -201.405226449 178 -167 c 256
 178 -132.593856659 205.594773551 -105 240 -105 c 256
 274.406143341 -105 302 -132.594773551 302 -167 c 256
 302 -201.406143341 274.405226449 -229 240 -229 c 256x81
EndSplineSet
Refer: 21 115 S 1 0 0 1 0 0 3
EndChar

StartChar: tdotbelow
Encoding: 7789 7789 80
Width: 378
Flags: W
HStem: -230 124<188.064 281.936> -10 49<218.047 323.299> 467 47<198 332>
VStem: 100 98<58.3398 467> 169 29<608.525 640> 173 124<-214.936 -121.064>
LayerCount: 2
Fore
SplineSet
235 -230 m 256xe4
 200.593856659 -230 173 -202.405226449 173 -168 c 256
 173 -133.593856659 200.594773551 -106 235 -106 c 256
 269.406143341 -106 297 -133.594773551 297 -168 c 256
 297 -202.406143341 269.405226449 -230 235 -230 c 256xe4
EndSplineSet
Refer: 22 116 S 1 0 0 1 0 0 3
EndChar

StartChar: zdotbelow
Encoding: 7827 7827 81
Width: 557
Flags: W
HStem: -230 124<228.064 321.936> 0 46<170 428.205> 488 42<132.639 364>
VStem: 65 32<392 443.539> 213 124<-214.936 -121.064> 482 33<108.857 155>
LayerCount: 2
Fore
SplineSet
275 -230 m 256
 240.593856659 -230 213 -202.405226449 213 -168 c 256
 213 -133.593856659 240.594773551 -106 275 -106 c 256
 309.406143341 -106 337 -133.594773551 337 -168 c 256
 337 -202.406143341 309.405226449 -230 275 -230 c 256
EndSplineSet
Refer: 27 122 S 1 0 0 1 0 0 3
EndChar

StartChar: Idotbelow
Encoding: 7882 7882 82
Width: 415
Flags: W
HStem: -230 124<159.064 252.936> 0 38<45 125.212 287.105 369> 732 38<55 125.945 289.12 359>
VStem: 144 124<-214.936 -121.064> 155 105<63.668 705.038>
LayerCount: 2
Fore
SplineSet
206 -230 m 256xf0
 171.593856659 -230 144 -202.405226449 144 -168 c 256
 144 -133.593856659 171.594773551 -106 206 -106 c 256
 240.406143341 -106 268 -133.594773551 268 -168 c 256
 268 -202.406143341 240.405226449 -230 206 -230 c 256xf0
EndSplineSet
Refer: 29 73 S 1 0 0 1 0 0 3
EndChar

StartChar: Hdotbelow
Encoding: 7716 7716 83
Width: 925
Flags: W
HStem: -230 124<417.064 510.936> 0 38<45 130.24 284.977 369 555 640.24 794.977 879> 369 50<260 665> 732 38<55 132.268 283.308 359 565 642.268 793.308 869>
VStem: 155 105<60.4735 369 419 711.251> 402 124<-214.936 -121.064> 665 105<60.4735 369 419 711.251>
LayerCount: 2
Fore
SplineSet
464 -230 m 256
 429.593856659 -230 402 -202.405226449 402 -168 c 256
 402 -133.593856659 429.594773551 -106 464 -106 c 256
 498.406143341 -106 526 -133.594773551 526 -168 c 256
 526 -202.406143341 498.405226449 -230 464 -230 c 256
EndSplineSet
Refer: 30 72 S 1 0 0 1 0 0 3
EndChar

StartChar: Edotbelow
Encoding: 7864 7864 84
Width: 726
Flags: W
HStem: -230 124<332.064 425.936> 0 43<45 137.734 300.41 557.852> 383 40<260 390.883> 518 20G<449 484> 727 43<55 139.159 260 538.512>
VStem: 155 105<80.7239 383 423 712.458> 317 124<-214.936 -121.064> 449 35<265 329.926 474.062 538> 607 35<594 654.296> 643 38<137.1 197>
LayerCount: 2
Fore
SplineSet
379 -230 m 256
 344.593856659 -230 317 -202.405226449 317 -168 c 256
 317 -133.593856659 344.594773551 -106 379 -106 c 256
 413.406143341 -106 441 -133.594773551 441 -168 c 256
 441 -202.406143341 413.405226449 -230 379 -230 c 256
EndSplineSet
Refer: 32 69 S 1 0 0 1 0 0 3
EndChar

StartChar: Odotbelow
Encoding: 7884 7884 85
Width: 946
Flags: W
HStem: -230 124<427.064 520.936> -10 55<357.397 587.523> 725 55<359.875 584.842>
VStem: 57 130<256.59 510.994> 412 124<-214.936 -121.064> 759 130<254.728 511.549>
LayerCount: 2
Fore
SplineSet
474 -230 m 256
 439.593856659 -230 412 -202.405226449 412 -168 c 256
 412 -133.593856659 439.594773551 -106 474 -106 c 256
 508.406143341 -106 536 -133.594773551 536 -168 c 256
 536 -202.406143341 508.405226449 -230 474 -230 c 256
EndSplineSet
Refer: 38 79 S 1 0 0 1 0 0 3
EndChar

StartChar: Ddotbelow
Encoding: 7692 7692 86
Width: 884
Flags: W
HStem: -230 124<394.064 487.936> 0 38<38 131.644> 0 49<310.145 530.738> 721 49<263 521.348> 732 38<58 135.268>
VStem: 158 105<94.5043 712.458> 379 124<-214.936 -121.064> 695 130<242.649 506.165>
LayerCount: 2
Fore
SplineSet
441 -230 m 256x87
 406.593856659 -230 379 -202.405226449 379 -168 c 256
 379 -133.593856659 406.594773551 -106 441 -106 c 256
 475.406143341 -106 503 -133.594773551 503 -168 c 256
 503 -202.406143341 475.405226449 -230 441 -230 c 256x87
EndSplineSet
Refer: 42 68 S 1 0 0 1 0 0 3
EndChar

StartChar: Rdotbelow
Encoding: 7770 7770 87
Width: 788
Flags: W
HStem: -230 124<365.064 458.936> 0 38<45 130.24 289.316 398 743.801 815> 365 50<260 348.149> 723 47<260 466.549> 732 38<55 132.268>
VStem: 155 105<62.9525 365 415 712.458> 350 124<-214.936 -121.064> 528 130<482.163 661.761>
LayerCount: 2
Fore
SplineSet
412 -230 m 256xe7
 377.593856659 -230 350 -202.405226449 350 -168 c 256
 350 -133.593856659 377.594773551 -106 412 -106 c 256
 446.406143341 -106 474 -133.594773551 474 -168 c 256
 474 -202.406143341 446.405226449 -230 412 -230 c 256xe7
EndSplineSet
Refer: 47 82 S 1 0 0 1 0 0 3
EndChar

StartChar: Sdotbelow
Encoding: 7778 7778 88
Width: 645
Flags: W
HStem: -230 124<271.064 364.936> -10 51<220.531 418.404> 729 51<231.676 401.6>
VStem: 58 37<172.381 235> 90 94<551.708 664.953> 256 124<-214.936 -121.064> 482 109<122.173 239.509> 496 37<567 615.244>
LayerCount: 2
Fore
SplineSet
318 -230 m 256xe4
 283.593856659 -230 256 -202.405226449 256 -168 c 256
 256 -133.593856659 283.594773551 -106 318 -106 c 256
 352.406143341 -106 380 -133.594773551 380 -168 c 256
 380 -202.406143341 352.405226449 -230 318 -230 c 256xe4
EndSplineSet
Refer: 48 83 S 1 0 0 1 0 0 3
EndChar

StartChar: Tdotbelow
Encoding: 7788 7788 89
Width: 803
Flags: W
HStem: -230 124<355.064 448.936> 0 38<212 303.686 499.982 590> 727.073 42.9265<113.51 340.449 462.233 683.893>
VStem: 21 37<579 665.829> 340 124<-214.936 -121.064> 342 119<70.7673 720.846> 745 41<579 664.053>
LayerCount: 2
Fore
SplineSet
402 -230 m 256xfa
 367.593856659 -230 340 -202.405226449 340 -168 c 256
 340 -133.593856659 367.594773551 -106 402 -106 c 256
 436.406143341 -106 464 -133.594773551 464 -168 c 256
 464 -202.406143341 436.405226449 -230 402 -230 c 256xfa
EndSplineSet
Refer: 49 84 S 1 0 0 1 0 0 3
EndChar

StartChar: Udotbelow
Encoding: 7908 7908 90
Width: 861
Flags: W
HStem: -230 124<405.064 498.936> -10 62<351.778 565.861> 732 38<29 113.028 287.155 370 542 628.078 754.678 832>
VStem: 140 120<148.279 706.955> 390 124<-214.936 -121.064> 662 60<157.523 697.395>
LayerCount: 2
Fore
SplineSet
452 -230 m 256
 417.593856659 -230 390 -202.405226449 390 -168 c 256
 390 -133.593856659 417.594773551 -106 452 -106 c 256
 486.406143341 -106 514 -133.594773551 514 -168 c 256
 514 -202.406143341 486.405226449 -230 452 -230 c 256
EndSplineSet
Refer: 50 85 S 1 0 0 1 0 0 3
EndChar

StartChar: Zdotbelow
Encoding: 7826 7826 91
Width: 770
Flags: W
HStem: -230 124<340.064 433.936> 0 46<179 608.15> 728 42<177.573 542>
VStem: 76 37<586 651.424> 325 124<-214.936 -121.064> 679 43<135.007 235>
LayerCount: 2
Fore
SplineSet
387 -230 m 256
 352.593856659 -230 325 -202.405226449 325 -168 c 256
 325 -133.593856659 352.594773551 -106 387 -106 c 256
 421.406143341 -106 449 -133.594773551 449 -168 c 256
 449 -202.406143341 421.405226449 -230 387 -230 c 256
EndSplineSet
Refer: 54 90 S 1 0 0 1 0 0 3
EndChar

StartChar: period
Encoding: 46 46 92
Width: 265
Flags: W
HStem: -10 131<83.9506 180.884>
VStem: 67 131<6.95099 103.886>
LayerCount: 2
Fore
SplineSet
132 -10 m 0
 96.2865756582 -10 67 19.287584239 67 55 c 0
 67 91.5401507175 95.7576268236 121 132 121 c 0
 169.072810008 121 198 92.0718931161 198 55 c 0
 198 18.7590631809 168.536708921 -10 132 -10 c 0
EndSplineSet
EndChar

StartChar: colon
Encoding: 58 58 93
Width: 285
Flags: W
HStem: -10 131<93.9506 190.884> 316 131<93.9506 190.884>
VStem: 77 131<6.95099 103.886 332.951 429.886>
LayerCount: 2
Fore
SplineSet
142 -10 m 0
 106.286575658 -10 77 19.287584239 77 55 c 0
 77 91.5401507175 105.757626824 121 142 121 c 0
 179.072810008 121 208 92.0718931161 208 55 c 0
 208 18.7590631809 178.536708921 -10 142 -10 c 0
142 316 m 0
 106.286575658 316 77 345.287584239 77 381 c 0
 77 417.540150718 105.757626824 447 142 447 c 0
 179.072810008 447 208 418.071893116 208 381 c 0
 208 344.759063181 178.536708921 316 142 316 c 0
EndSplineSet
EndChar

StartChar: semicolon
Encoding: 59 59 94
Width: 311
Flags: W
HStem: 0 121<103.743 170.593> 316 131<105.951 202.884>
VStem: 89 131<332.951 429.886> 171 57<-66.7012 8>
LayerCount: 2
Fore
SplineSet
154 316 m 0xe0
 118.286575658 316 89 345.287584239 89 381 c 0
 89 417.540150718 117.757626824 447 154 447 c 0
 191.072810008 447 220 418.071893116 220 381 c 0
 220 344.759063181 190.536708921 316 154 316 c 0xe0
89 59 m 0
 89 97.1836838475 117.273645359 121 156 121 c 0
 204 121 228 87.6666666667 228 21 c 0
 228 -49.3491468485 196.442281453 -88.85024561 157 -124.5 c 0
 139.666666667 -140.166666667 118.666666667 -157 94 -175 c 1
 71 -143 l 1
 107 -117.666666667 132.666666667 -93.3333333333 148 -70 c 0
 163.333333333 -46.6666666667 171 -20.6666666667 171 8 c 1xd0
 162.333333333 2.66666666667 152.333333333 0 141 0 c 0
 109.009726262 0 89 26.19429171 89 59 c 0
EndSplineSet
EndChar

StartChar: acute
Encoding: 180 180 95
Width: 275
Flags: W
HStem: 651 152
VStem: 20 235
LayerCount: 2
Fore
SplineSet
217 803 m 0
 239.562457336 803 255 790.640522645 255 768 c 0
 255 740.5796382 226.922751164 726.50626095 204 716 c 2
 67 651 l 1
 20 651 l 1
 150 770 l 2
 174 792 196.333333333 803 217 803 c 0
EndSplineSet
EndChar

StartChar: aacute
Encoding: 225 225 96
Width: 554
Flags: W
HStem: -10 61<166.221 267.51 413.045 521.692> 502 38<191.352 308.683>
VStem: 43 101<72.7466 179.695> 67 102<398.02 482.337> 349 98<124.573 296 339 463.026> 357 90<58.2934 97>
LayerCount: 2
Fore
SplineSet
372 803 m 0xc0
 394.562457336 803 410 790.640522645 410 768 c 0
 410 740.5796382 381.922751164 726.50626095 359 716 c 2
 222 651 l 1
 175 651 l 1
 305 770 l 2
 329 792 351.333333333 803 372 803 c 0xc0
EndSplineSet
Refer: 28 97 S 1 0 0 1 0 0 3
EndChar

StartChar: nacute
Encoding: 324 324 97
Width: 689
Flags: W
HStem: 0 34<37 101.443 233.17 299 406 470.158 602 665> 470 32<35 64.4737> 486 54<308.814 442.318>
VStem: 121 95<48.8915 402.686> 489 95<48.715 431.728>
LayerCount: 2
Fore
SplineSet
460 803 m 0x98
 482.562457336 803 498 790.640522645 498 768 c 0
 498 740.5796382 469.922751164 726.50626095 447 716 c 2
 310 651 l 1
 263 651 l 1
 393 770 l 2
 417 792 439.333333333 803 460 803 c 0x98
EndSplineSet
Refer: 4 110 S 1 0 0 1 0 0 3
EndChar

StartChar: uacute
Encoding: 250 250 98
Width: 670
Flags: W
HStem: -10 60<249.313 367.634> 1 35<575.733 648> 495 35<21 84.8602 380 443.86>
VStem: 104 98<107.208 479.817> 463 98<154.471 479.817>
LayerCount: 2
Fore
SplineSet
420 803 m 0x38
 442.562457336 803 458 790.640522645 458 768 c 0
 458 740.5796382 429.922751164 726.50626095 407 716 c 2
 270 651 l 1
 223 651 l 1
 353 770 l 2
 377 792 399.333333333 803 420 803 c 0x38
EndSplineSet
Refer: 5 117 S 1 0 0 1 0 0 3
EndChar

StartChar: racute
Encoding: 341 341 99
Width: 477
Flags: W
HStem: 0 35<38 105.357 238.952 304> 456 35<36 68.2368> 457 83<328.256 431.279> 509 20G<118.895 213.258>
VStem: 124 98<50.0212 348.68 405 445.174>
LayerCount: 2
Fore
SplineSet
472 483 m 0xa8
 472 449.129231298 449.087882553 432 414 432 c 0
 385.797030725 432 369.472166747 443.414844402 351.5 453 c 0
 346.5 455.666666667 341 457 335 457 c 0xa8
 317 457 299 445.5 281 422.5 c 0
 240.484500986 370.730195705 222 287.664536979 222 193 c 2
 222 159 l 2
 222 147.366802375 221.756100664 135.918520601 221.756100664 124.987137648 c 0
 221.756100664 83.4840759039 225.271872415 49.4320318961 259 41 c 0
 269.666666667 38.3333333333 284.666666667 36.3333333333 304 35 c 1
 304 0 l 1
 38 0 l 1
 38 35 l 1
 89.6531581816 36.7811433856 116.255599341 44.3003940714 121.5 91.5 c 0
 123.166666667 106.5 124 126.666666667 124 152 c 2
 124 269 l 2
 124 314.333333333 123.5 349.666666667 122.5 375 c 0
 120.916865535 415.106073116 115.797737437 446.705995498 86 452.5 c 0
 74 454.833333333 57.3333333333 456 36 456 c 1
 36 491 l 1
 211 529 l 1xd8
 225 405 l 1
 229 405 l 1
 253.251709591 460.965483671 295.775767274 507.51030691 352 530 c 0
 368.666666667 536.666666667 385.666666667 540 403 540 c 0
 442.139510516 540 472 520.394192396 472 483 c 0xa8
377 803 m 0
 399.562457336 803 415 790.640522645 415 768 c 0
 415 740.5796382 386.922751164 726.50626095 364 716 c 2
 227 651 l 1
 180 651 l 1
 310 770 l 2
 334 792 356.333333333 803 377 803 c 0
EndSplineSet
EndChar

StartChar: oacute
Encoding: 243 243 100
Width: 654
Flags: W
HStem: -10 51<248.359 403.873> 492 48<247.576 402.476>
VStem: 48 113<159.033 375.913> 493 113<158.847 375.44>
LayerCount: 2
Fore
SplineSet
432 803 m 0
 454.562457336 803 470 790.640522645 470 768 c 0
 470 740.5796382 441.922751164 726.50626095 419 716 c 2
 282 651 l 1
 235 651 l 1
 365 770 l 2
 389 792 411.333333333 803 432 803 c 0
EndSplineSet
Refer: 10 111 S 1 0 0 1 0 0 3
EndChar

StartChar: cacute
Encoding: 263 263 101
Width: 536
Flags: W
HStem: -10 52<242.73 405.797> 493 47<231.489 372.001>
VStem: 49 114<140.692 379.002>
LayerCount: 2
Fore
SplineSet
449 803 m 0
 471.562457336 803 487 790.640522645 487 768 c 0
 487 740.5796382 458.922751164 726.50626095 436 716 c 2
 299 651 l 1
 252 651 l 1
 382 770 l 2
 406 792 428.333333333 803 449 803 c 0
EndSplineSet
Refer: 16 99 S 1 0 0 1 0 0 3
EndChar

StartChar: eacute
Encoding: 233 233 102
Width: 573
Flags: W
HStem: -10 52<258.718 417.447> 317 46<173 416.565> 492 48<233.095 380.159>
VStem: 49 113<152.318 314.418> 417 109<327.426 442.141>
LayerCount: 2
Fore
SplineSet
437 803 m 0
 459.562457336 803 475 790.640522645 475 768 c 0
 475 740.5796382 446.922751164 726.50626095 424 716 c 2
 287 651 l 1
 240 651 l 1
 370 770 l 2
 394 792 416.333333333 803 437 803 c 0
EndSplineSet
Refer: 17 101 S 1 0 0 1 0 0 3
EndChar

StartChar: sacute
Encoding: 347 347 103
Width: 454
Flags: W
HStem: -10 41<163.042 294.988> 0 21G<64 97.4286> 499 41<167.431 281.501> 510 20G<323.952 362>
VStem: 64 25<135.132 172> 67 82<378.414 469.876> 318 89<60.4235 157.379> 336 26<386 417.544>
LayerCount: 2
Fore
SplineSet
345 803 m 0x00
 367.562457336 803 383 790.640522645 383 768 c 0
 383 740.5796382 354.922751164 726.50626095 332 716 c 2
 195 651 l 1
 148 651 l 1
 278 770 l 2
 302 792 324.333333333 803 345 803 c 0x00
EndSplineSet
Refer: 21 115 S 1 0 0 1 0 0 3
EndChar

StartChar: wacute
Encoding: 7811 7811 104
Width: 852
Flags: W
HStem: -10 21G<234.75 285.967 544.388 596.094> 495 35<12 75.8943 212.572 277 638 701.673 795.441 838>
LayerCount: 2
Fore
SplineSet
558 803 m 0
 580.562457336 803 596 790.640522645 596 768 c 0
 596 740.5796382 567.922751164 726.50626095 545 716 c 2
 408 651 l 1
 361 651 l 1
 491 770 l 2
 515 792 537.333333333 803 558 803 c 0
EndSplineSet
Refer: 24 119 S 1 0 0 1 0 0 3
EndChar

StartChar: yacute
Encoding: 253 253 105
Width: 639
Flags: W
HStem: -260 103<93.0541 215.435> 495 35<4 59.1131 207.3 269 408 471.739 578.019 628>
LayerCount: 2
Fore
SplineSet
456 803 m 0
 478.562457336 803 494 790.640522645 494 768 c 0
 494 740.5796382 465.922751164 726.50626095 443 716 c 2
 306 651 l 1
 259 651 l 1
 389 770 l 2
 413 792 435.333333333 803 456 803 c 0
EndSplineSet
Refer: 26 121 S 1 0 0 1 0 0 3
EndChar

StartChar: zacute
Encoding: 378 378 106
Width: 557
Flags: W
HStem: 0 46<170 428.205> 488 42<132.639 364>
VStem: 65 32<392 443.539> 482 33<108.857 155>
LayerCount: 2
Fore
SplineSet
394 803 m 0
 416.562457336 803 432 790.640522645 432 768 c 0
 432 740.5796382 403.922751164 726.50626095 381 716 c 2
 244 651 l 1
 197 651 l 1
 327 770 l 2
 351 792 373.333333333 803 394 803 c 0
EndSplineSet
Refer: 27 122 S 1 0 0 1 0 0 3
EndChar

StartChar: iacute
Encoding: 237 237 107
Width: 341
Flags: W
HStem: 0 37<34 105.749 251.169 321> 465 37<32 68.1053> 520 20G<124.842 228>
VStem: 130 98<58.4301 451.172>
LayerCount: 2
Fore
SplineSet
287 803 m 0
 309.562457336 803 325 790.640522645 325 768 c 0
 325 740.5796382 296.922751164 726.50626095 274 716 c 2
 137 651 l 1
 90 651 l 1
 220 770 l 2
 244 792 266.333333333 803 287 803 c 0
EndSplineSet
Refer: 9 305 S 1 0 0 1 0 0 3
EndChar

StartChar: grave
Encoding: 96 96 108
Width: 275
Flags: W
HStem: 651 152
VStem: 20 235
LayerCount: 2
Fore
SplineSet
20 768 m 0
 20 790.640614334 35.4379094202 803 58 803 c 0
 78.6666666667 803 101 792 125 770 c 2
 255 651 l 1
 208 651 l 1
 71 716 l 2
 48.0302629366 726.527796154 20 740.552395573 20 768 c 0
EndSplineSet
EndChar

StartChar: agrave
Encoding: 224 224 109
Width: 554
Flags: W
HStem: -10 61<166.221 267.51 413.045 521.692> 502 38<191.352 308.683>
VStem: 43 101<72.7466 179.695> 67 102<398.02 482.337> 349 98<124.573 296 339 463.026> 357 90<58.2934 97>
LayerCount: 2
Fore
SplineSet
130 768 m 0xc0
 130 790.640614334 145.43790942 803 168 803 c 0
 188.666666667 803 211 792 235 770 c 2
 365 651 l 1
 318 651 l 1
 181 716 l 2
 158.030262937 726.527796154 130 740.552395573 130 768 c 0xc0
EndSplineSet
Refer: 28 97 S 1 0 0 1 0 0 3
EndChar

StartChar: ugrave
Encoding: 249 249 110
Width: 670
Flags: W
HStem: -10 60<249.313 367.634> 1 35<575.733 648> 495 35<21 84.8602 380 443.86>
VStem: 104 98<107.208 479.817> 463 98<154.471 479.817>
LayerCount: 2
Fore
SplineSet
178 768 m 0x38
 178 790.640614334 193.43790942 803 216 803 c 0
 236.666666667 803 259 792 283 770 c 2
 413 651 l 1
 366 651 l 1
 229 716 l 2
 206.030262937 726.527796154 178 740.552395573 178 768 c 0x38
EndSplineSet
Refer: 5 117 S 1 0 0 1 0 0 3
EndChar

StartChar: ograve
Encoding: 242 242 111
Width: 654
Flags: W
HStem: -10 51<248.359 403.873> 492 48<247.576 402.476>
VStem: 48 113<159.033 375.913> 493 113<158.847 375.44>
LayerCount: 2
Fore
SplineSet
210 768 m 0
 210 790.640614334 225.43790942 803 248 803 c 0
 268.666666667 803 291 792 315 770 c 2
 445 651 l 1
 398 651 l 1
 261 716 l 2
 238.030262937 726.527796154 210 740.552395573 210 768 c 0
EndSplineSet
Refer: 10 111 S 1 0 0 1 0 0 3
EndChar

StartChar: egrave
Encoding: 232 232 112
Width: 573
Flags: W
HStem: -10 52<258.718 417.447> 317 46<173 416.565> 492 48<233.095 380.159>
VStem: 49 113<152.318 314.418> 417 109<327.426 442.141>
LayerCount: 2
Fore
SplineSet
211 768 m 0
 211 790.640614334 226.43790942 803 249 803 c 0
 269.666666667 803 292 792 316 770 c 2
 446 651 l 1
 399 651 l 1
 262 716 l 2
 239.030262937 726.527796154 211 740.552395573 211 768 c 0
EndSplineSet
Refer: 17 101 S 1 0 0 1 0 0 3
EndChar

StartChar: wgrave
Encoding: 7809 7809 113
Width: 852
Flags: W
HStem: -10 21G<234.75 285.967 544.388 596.094> 495 35<12 75.8943 212.572 277 638 701.673 795.441 838>
LayerCount: 2
Fore
SplineSet
316 768 m 0
 316 790.640614334 331.43790942 803 354 803 c 0
 374.666666667 803 397 792 421 770 c 2
 551 651 l 1
 504 651 l 1
 367 716 l 2
 344.030262937 726.527796154 316 740.552395573 316 768 c 0
EndSplineSet
Refer: 24 119 S 1 0 0 1 0 0 3
EndChar

StartChar: ygrave
Encoding: 7923 7923 114
Width: 639
Flags: W
HStem: -260 103<93.0541 215.435> 495 35<4 59.1131 207.3 269 408 471.739 578.019 628>
LayerCount: 2
Fore
SplineSet
214 768 m 0
 214 790.640614334 229.43790942 803 252 803 c 0
 272.666666667 803 295 792 319 770 c 2
 449 651 l 1
 402 651 l 1
 265 716 l 2
 242.030262937 726.527796154 214 740.552395573 214 768 c 0
EndSplineSet
Refer: 26 121 S 1 0 0 1 0 0 3
EndChar

StartChar: igrave
Encoding: 236 236 115
Width: 341
Flags: W
HStem: 0 37<34 105.749 251.169 321> 465 37<32 68.1053> 520 20G<124.842 228>
VStem: 130 98<58.4301 451.172>
LayerCount: 2
Fore
SplineSet
19 768 m 0
 19 790.640614334 34.4379094202 803 57 803 c 0
 77.6666666667 803 100 792 124 770 c 2
 254 651 l 1
 207 651 l 1
 70 716 l 2
 47.0302629366 726.527796154 19 740.552395573 19 768 c 0
EndSplineSet
Refer: 9 305 S 1 0 0 1 0 0 3
EndChar

StartChar: hungarumlaut
Encoding: 733 733 116
Width: 473
Flags: W
HStem: 651 152<218 239.562>
LayerCount: 2
Fore
SplineSet
217 803 m 0
 239.562457336 803 255 790.640522645 255 768 c 0
 255 740.5796382 226.922751164 726.50626095 204 716 c 2
 67 651 l 1
 20 651 l 1
 150 770 l 2
 174 792 196.333333333 803 217 803 c 0
415 803 m 0
 437.562457336 803 453 790.640522645 453 768 c 0
 453 740.5796382 424.922751164 726.50626095 402 716 c 2
 265 651 l 1
 218 651 l 1
 348 770 l 2
 372 792 394.333333333 803 415 803 c 0
EndSplineSet
EndChar

StartChar: uhungarumlaut
Encoding: 369 369 117
Width: 670
Flags: W
HStem: -10 60<249.313 367.634> 1 35<575.733 648> 495 35<21 84.8602 380 443.86>
VStem: 104 98<107.208 479.817> 463 98<154.471 479.817>
LayerCount: 2
Fore
SplineSet
337 803 m 0x38
 359.562457336 803 375 790.640522645 375 768 c 0
 375 740.5796382 346.922751164 726.50626095 324 716 c 2
 187 651 l 1
 140 651 l 1
 270 770 l 2
 294 792 316.333333333 803 337 803 c 0x38
535 803 m 0
 557.562457336 803 573 790.640522645 573 768 c 0
 573 740.5796382 544.922751164 726.50626095 522 716 c 2
 385 651 l 1
 338 651 l 1
 468 770 l 2
 492 792 514.333333333 803 535 803 c 0
EndSplineSet
Refer: 5 117 S 1 0 0 1 0 0 3
EndChar

StartChar: ohungarumlaut
Encoding: 337 337 118
Width: 654
Flags: W
HStem: -10 51<248.359 403.873> 492 48<247.576 402.476>
VStem: 48 113<159.033 375.913> 493 113<158.847 375.44>
LayerCount: 2
Fore
SplineSet
325 540 m 0
 408.827232024 540 476.685949801 505.839111874 522.5 463 c 0
 568.964230183 419.552927622 606 354.597724328 606 269 c 0
 606 181.198490975 569.309497864 113.985751194 522.5 69 c 0
 476.870216028 25.1479998186 409.327955353 -10 325 -10 c 0
 241.775511533 -10 174.84135518 24.3386804822 130 68 c 0
 83.6834205435 113.097722102 48 181.418922038 48 269 c 0
 48 354.362758344 84.0530353769 420.471296673 130 464 c 0
 175.116750918 506.742185081 242.142152488 540 325 540 c 0
325 492 m 0
 237.930958224 492 192.003259961 429.881329426 172.5 359.5 c 0
 164.833333333 331.833333333 161 301.333333333 161 268 c 0
 161 168.436335726 192.724061885 91.2805003279 257 57 c 0
 277 46.3333333333 299.666666667 41 325 41 c 256
 414.160931377 41 460.560552828 103.461934898 481 175 c 0
 489 203 493 234 493 268 c 0
 493 366.460335598 457.991331831 441.440097574 394 475.5 c 0
 373.333333333 486.5 350.333333333 492 325 492 c 0
363 803 m 0
 385.562457336 803 401 790.640522645 401 768 c 0
 401 740.5796382 372.922751164 726.50626095 350 716 c 2
 213 651 l 1
 166 651 l 1
 296 770 l 2
 320 792 342.333333333 803 363 803 c 0
561 803 m 0
 583.562457336 803 599 790.640522645 599 768 c 0
 599 740.5796382 570.922751164 726.50626095 548 716 c 2
 411 651 l 1
 364 651 l 1
 494 770 l 2
 518 792 540.333333333 803 561 803 c 0
EndSplineSet
EndChar

StartChar: circumflex
Encoding: 710 710 119
Width: 368
Flags: W
HStem: 651 129
VStem: 20 328
LayerCount: 2
Fore
SplineSet
229 780 m 1
 348 651 l 1
 303 651 l 1
 184 719 l 1
 65 651 l 1
 20 651 l 1
 139 780 l 1
 229 780 l 1
EndSplineSet
EndChar

StartChar: caron
Encoding: 711 711 120
Width: 368
Flags: W
HStem: 651 129
VStem: 20 328
LayerCount: 2
Fore
SplineSet
139 651 m 1
 20 780 l 1
 65 780 l 1
 184 712 l 1
 303 780 l 1
 348 780 l 1
 229 651 l 1
 139 651 l 1
EndSplineSet
EndChar

StartChar: acircumflex
Encoding: 226 226 121
Width: 554
Flags: W
HStem: -10 61<166.221 267.51 413.045 521.692> 502 38<191.352 308.683> 760 20G<201.55 328.45>
VStem: 43 101<72.7466 179.695> 67 102<398.02 482.337> 349 98<124.573 296 339 463.026> 357 90<58.2934 97>
LayerCount: 2
Fore
SplineSet
310 780 m 1xe0
 429 651 l 1
 384 651 l 1
 265 719 l 1
 146 651 l 1
 101 651 l 1
 220 780 l 1
 310 780 l 1xe0
EndSplineSet
Refer: 28 97 S 1 0 0 1 0 0 3
EndChar

StartChar: ucircumflex
Encoding: 251 251 122
Width: 670
Flags: W
HStem: -10 60<249.313 367.634> 1 35<575.733 648> 495 35<21 84.8602 380 443.86> 760 20G<249.55 376.45>
VStem: 104 98<107.208 479.817> 463 98<154.471 479.817>
LayerCount: 2
Fore
SplineSet
358 780 m 1x3c
 477 651 l 1
 432 651 l 1
 313 719 l 1
 194 651 l 1
 149 651 l 1
 268 780 l 1
 358 780 l 1x3c
EndSplineSet
Refer: 5 117 S 1 0 0 1 0 0 3
EndChar

StartChar: hcircumflex
Encoding: 293 293 123
Width: 688
Flags: W
HStem: 0 35<24 91.1827 224.952 290 400 465.898 599.92 665> 485 55<305.471 437.175> 758 34<22 55.8947> 760 20G<322.55 449.45> 810 20G<109.158 206>
VStem: 110 97.7561<50.5279 401.934 449 745.374> 484 99<49.5972 427.64>
LayerCount: 2
Fore
SplineSet
431 780 m 1xde
 550 651 l 1
 505 651 l 1
 386 719 l 1
 267 651 l 1
 222 651 l 1
 341 780 l 1
 431 780 l 1xde
EndSplineSet
Refer: 6 104 S 1 0 0 1 0 0 3
EndChar

StartChar: ocircumflex
Encoding: 244 244 124
Width: 654
Flags: W
HStem: -10 51<248.359 403.873> 492 48<247.576 402.476> 760 20G<261.55 388.45>
VStem: 48 113<159.033 375.913> 493 113<158.847 375.44>
LayerCount: 2
Fore
SplineSet
370 780 m 1
 489 651 l 1
 444 651 l 1
 325 719 l 1
 206 651 l 1
 161 651 l 1
 280 780 l 1
 370 780 l 1
EndSplineSet
Refer: 10 111 S 1 0 0 1 0 0 3
EndChar

StartChar: ccircumflex
Encoding: 265 265 125
Width: 536
Flags: W
HStem: -10 52<242.73 405.797> 493 47<231.489 372.001> 760 20G<252.55 379.45>
VStem: 49 114<140.692 379.002>
LayerCount: 2
Fore
SplineSet
361 780 m 1
 480 651 l 1
 435 651 l 1
 316 719 l 1
 197 651 l 1
 152 651 l 1
 271 780 l 1
 361 780 l 1
EndSplineSet
Refer: 16 99 S 1 0 0 1 0 0 3
EndChar

StartChar: ecircumflex
Encoding: 234 234 126
Width: 573
Flags: W
HStem: -10 52<258.718 417.447> 317 46<173 416.565> 492 48<233.095 380.159> 760 20G<249.55 376.45>
VStem: 49 113<152.318 314.418> 417 109<327.426 442.141>
LayerCount: 2
Fore
SplineSet
358 780 m 1
 477 651 l 1
 432 651 l 1
 313 719 l 1
 194 651 l 1
 149 651 l 1
 268 780 l 1
 358 780 l 1
EndSplineSet
Refer: 17 101 S 1 0 0 1 0 0 3
EndChar

StartChar: scircumflex
Encoding: 349 349 127
Width: 454
Flags: W
HStem: -10 41<163.042 294.988> 0 21G<64 97.4286> 499 41<167.431 281.501> 510 20G<323.952 362> 760 20G<159.55 286.45>
VStem: 64 25<135.132 172> 67 82<378.414 469.876> 318 89<60.4235 157.379> 336 26<386 417.544>
LayerCount: 2
Fore
SplineSet
268 780 m 1x08
 387 651 l 1
 342 651 l 1
 223 719 l 1
 104 651 l 1
 59 651 l 1
 178 780 l 1
 268 780 l 1x08
EndSplineSet
Refer: 21 115 S 1 0 0 1 0 0 3
EndChar

StartChar: wcircumflex
Encoding: 373 373 128
Width: 852
Flags: W
HStem: -10 21G<234.75 285.967 544.388 596.094> 495 35<12 75.8943 212.572 277 638 701.673 795.441 838> 760 20G<387.55 514.45>
LayerCount: 2
Fore
SplineSet
496 780 m 1
 615 651 l 1
 570 651 l 1
 451 719 l 1
 332 651 l 1
 287 651 l 1
 406 780 l 1
 496 780 l 1
EndSplineSet
Refer: 24 119 S 1 0 0 1 0 0 3
EndChar

StartChar: ycircumflex
Encoding: 375 375 129
Width: 639
Flags: W
HStem: -260 103<93.0541 215.435> 495 35<4 59.1131 207.3 269 408 471.739 578.019 628> 760 20G<285.55 412.45>
LayerCount: 2
Fore
SplineSet
394 780 m 1
 513 651 l 1
 468 651 l 1
 349 719 l 1
 230 651 l 1
 185 651 l 1
 304 780 l 1
 394 780 l 1
EndSplineSet
Refer: 26 121 S 1 0 0 1 0 0 3
EndChar

StartChar: icircumflex
Encoding: 238 238 130
Width: 341
Flags: W
HStem: 0 37<34 105.749 251.169 321> 465 37<32 68.1053> 520 20G<124.842 228> 760 20G<116.55 243.45>
VStem: 16 328 130 98<58.4301 451.172>
LayerCount: 2
Fore
SplineSet
225 780 m 1xf8
 344 651 l 1
 299 651 l 1
 180 719 l 1
 61 651 l 1
 16 651 l 1
 135 780 l 1
 225 780 l 1xf8
EndSplineSet
Refer: 9 305 S 1 0 0 1 0 0 3
EndChar

StartChar: jcircumflex
Encoding: 309 309 131
Width: 304
Flags: W
HStem: -260 43<-11.4649 86.5246> 467 35<17 53.1053> 520 20G<109.842 213> 760 20G<98.5504 225.45>
VStem: 115 98<-134.765 453.165>
LayerCount: 2
Fore
SplineSet
207 780 m 1
 326 651 l 1
 281 651 l 1
 162 719 l 1
 43 651 l 1
 -2 651 l 1
 117 780 l 1
 207 780 l 1
EndSplineSet
Refer: 57 567 S 1 0 0 1 0 0 3
EndChar

StartChar: ncaron
Encoding: 328 328 132
Width: 689
Flags: W
HStem: 0 34<37 101.443 233.17 299 406 470.158 602 665> 470 32<35 64.4737> 486 54<308.814 442.318> 760 20G<189 269 437 517>
VStem: 121 95<48.8915 402.686> 489 95<48.715 431.728>
LayerCount: 2
Fore
SplineSet
308 651 m 1x9c
 189 780 l 1
 234 780 l 1
 353 712 l 1
 472 780 l 1
 517 780 l 1
 398 651 l 1
 308 651 l 1x9c
EndSplineSet
Refer: 4 110 S 1 0 0 1 0 0 3
EndChar

StartChar: rcaron
Encoding: 345 345 133
Width: 477
Flags: W
HStem: 0 35<38 105.357 238.952 304> 456 35<36 68.2368> 457 83<328.256 431.279> 509 20G<118.895 213.258> 760 20G<106 186 354 434>
VStem: 124 98<50.0212 348.68 405 445.174>
LayerCount: 2
Fore
SplineSet
472 483 m 0xac
 472 449.129231298 449.087882553 432 414 432 c 0
 385.797030725 432 369.472166747 443.414844402 351.5 453 c 0
 346.5 455.666666667 341 457 335 457 c 0xac
 317 457 299 445.5 281 422.5 c 0
 240.484500986 370.730195705 222 287.664536979 222 193 c 2
 222 159 l 2
 222 147.366802375 221.756100664 135.918520601 221.756100664 124.987137648 c 0
 221.756100664 83.4840759039 225.271872415 49.4320318961 259 41 c 0
 269.666666667 38.3333333333 284.666666667 36.3333333333 304 35 c 1
 304 0 l 1
 38 0 l 1
 38 35 l 1
 89.6531581816 36.7811433856 116.255599341 44.3003940714 121.5 91.5 c 0
 123.166666667 106.5 124 126.666666667 124 152 c 2
 124 269 l 2
 124 314.333333333 123.5 349.666666667 122.5 375 c 0
 120.916865535 415.106073116 115.797737437 446.705995498 86 452.5 c 0
 74 454.833333333 57.3333333333 456 36 456 c 1
 36 491 l 1
 211 529 l 1xdc
 225 405 l 1
 229 405 l 1
 253.251709591 460.965483671 295.775767274 507.51030691 352 530 c 0
 368.666666667 536.666666667 385.666666667 540 403 540 c 0
 442.139510516 540 472 520.394192396 472 483 c 0xac
225 651 m 1
 106 780 l 1
 151 780 l 1
 270 712 l 1
 389 780 l 1
 434 780 l 1
 315 651 l 1
 225 651 l 1
EndSplineSet
EndChar

StartChar: ccaron
Encoding: 269 269 134
Width: 536
Flags: W
HStem: -10 52<242.73 405.797> 493 47<231.489 372.001> 760 20G<152 232 400 480>
VStem: 49 114<140.692 379.002>
LayerCount: 2
Fore
SplineSet
271 651 m 1
 152 780 l 1
 197 780 l 1
 316 712 l 1
 435 780 l 1
 480 780 l 1
 361 651 l 1
 271 651 l 1
EndSplineSet
Refer: 16 99 S 1 0 0 1 0 0 3
EndChar

StartChar: ecaron
Encoding: 283 283 135
Width: 573
Flags: W
HStem: -10 52<258.718 417.447> 317 46<173 416.565> 492 48<233.095 380.159> 760 20G<149 229 397 477>
VStem: 49 113<152.318 314.418> 417 109<327.426 442.141>
LayerCount: 2
Fore
SplineSet
268 651 m 1
 149 780 l 1
 194 780 l 1
 313 712 l 1
 432 780 l 1
 477 780 l 1
 358 651 l 1
 268 651 l 1
EndSplineSet
Refer: 17 101 S 1 0 0 1 0 0 3
EndChar

StartChar: scaron
Encoding: 353 353 136
Width: 454
Flags: W
HStem: -10 41<163.042 294.988> 0 21G<64 97.4286> 499 41<167.431 281.501> 510 20G<323.952 362> 760 20G<59 139 307 387>
VStem: 64 25<135.132 172> 67 82<378.414 469.876> 318 89<60.4235 157.379> 336 26<386 417.544>
LayerCount: 2
Fore
SplineSet
178 651 m 1x08
 59 780 l 1
 104 780 l 1
 223 712 l 1
 342 780 l 1
 387 780 l 1
 268 651 l 1
 178 651 l 1x08
EndSplineSet
Refer: 21 115 S 1 0 0 1 0 0 3
EndChar

StartChar: zcaron
Encoding: 382 382 137
Width: 557
Flags: W
HStem: 0 46<170 428.205> 488 42<132.639 364> 760 20G<123 203 371 451>
VStem: 65 32<392 443.539> 482 33<108.857 155>
LayerCount: 2
Fore
SplineSet
242 651 m 1
 123 780 l 1
 168 780 l 1
 287 712 l 1
 406 780 l 1
 451 780 l 1
 332 651 l 1
 242 651 l 1
EndSplineSet
Refer: 27 122 S 1 0 0 1 0 0 3
EndChar

StartChar: ae
Encoding: 230 230 138
Width: 852
Flags: W
HStem: -10 61<166.398 279.925> -10 52<546.1 696.965> 317 46<473 696.738> 389 124.5<88.9639 156.873> 492 48<523.48 657.619> 502 38<194.847 311.164>
VStem: 43 101<74.0703 181.897> 67 102<397.899 480.456> 349 124<363 432.72> 349 113<145.929 285.175> 697 109<330.151 441.089>
LayerCount: 2
Fore
SplineSet
462 273 m 0x2960
 462 150.161983939 508.364456693 42 622 42 c 0
 673.333333333 42 723 68.3333333333 771 121 c 1
 802 93 l 1
 743.333333333 24.3333333333 674 -10 594 -10 c 4x6960
 488.14599809 -10 416.742716523 44.5145669547 380 118 c 1
 346.785920671 45.6407557473 281.339186505 -10 182 -10 c 0
 101.154998544 -10 43 31.0674849097 43 109 c 256
 43 145.666666667 56.1666666667 177.5 82.5 204.5 c 0
 108.833333333 231.5 149.666666667 255.333333333 205 276 c 2
 349 329 l 1xa260
 349 380 l 2
 349 459.779665983 320.237819533 502 243 502 c 0xa4a0
 221.666666667 502 206.333333333 497.5 197 488.5 c 0
 187.666666667 479.5 178.333333333 462.333333333 169 437 c 0
 157.647893084 407.07171813 150.952694654 389 118 389 c 0
 84 389 67 405.666666667 67 439 c 0
 67 471 84.1666666667 495.833333333 118.5 513.5 c 0x31a0
 152.833333333 531.166666667 201.333333333 540 264 540 c 0x25a0
 348.821131052 540 402.207551041 523.659376975 430 471 c 1
 470.494211789 511.494211789 528.441919123 540 606 540 c 0
 731.020705343 540 806 463.993461051 806 339 c 0
 806 321.302002024 795.204530423 317 775 317 c 2
 466 317 l 1
 463.333333333 309 462 294.333333333 462 273 c 0x2960
144 126 m 0xa260
 144 81.2160980015 178.684057533 51 224 51 c 0
 284.23515706 51 321.961205252 95.3471939186 339 140.5 c 0
 345.666666667 158.166666667 349 177 349 197 c 2
 349 286 l 1
 277 259.333333333 224.833333333 233.5 192.5 208.5 c 0
 160.166666667 183.5 144 156 144 126 c 0xa260
656.604921412 362.787289131 m 0
 682.643087547 362.787289131 697 365.232232618 697 390 c 0
 697 452.09456812 652.637146682 492 590 492 c 256
 513.86696698 492 486.182641711 435.504529412 473 363 c 1x28a0
 637 363 l 2
 643.268182498 363 650.005379466 362.787289131 656.604921412 362.787289131 c 0
EndSplineSet
EndChar

StartChar: aeacute
Encoding: 509 509 139
Width: 852
Flags: W
HStem: -10 52<546.1 696.965> -10 61<166.398 279.925> 317 46<473 696.738> 389 124.5<88.9639 156.873> 492 48<523.48 657.619> 502 38<194.847 311.164>
VStem: 43 101<74.0703 181.897> 67 102<397.899 480.456> 349 113<145.929 285.175> 349 124<363 432.72> 697 109<330.151 441.089>
LayerCount: 2
Fore
SplineSet
538 803 m 0x2020
 560.562457336 803 576 790.640522645 576 768 c 0
 576 740.5796382 547.922751164 726.50626095 525 716 c 2
 388 651 l 1
 341 651 l 1
 471 770 l 2
 495 792 517.333333333 803 538 803 c 0x2020
EndSplineSet
Refer: 138 230 S 1 0 0 1 0 0 3
EndChar

StartChar: periodcentered
Encoding: 183 183 140
Width: 285
Flags: W
HStem: 209 131<93.9506 190.884>
VStem: 77 131<225.951 322.886>
LayerCount: 2
Fore
SplineSet
142 209 m 0
 106.286575658 209 77 238.287584239 77 274 c 0
 77 310.540150718 105.757626824 340 142 340 c 0
 179.072810008 340 208 311.071893116 208 274 c 0
 208 237.759063181 178.536708921 209 142 209 c 0
EndSplineSet
EndChar

StartChar: uni2219
Encoding: 8729 8729 141
Width: 285
Flags: W
HStem: 209 131<93.9506 190.884>
VStem: 77 131<225.951 322.886>
LayerCount: 2
Fore
SplineSet
142 209 m 0
 106.286575658 209 77 238.287584239 77 274 c 0
 77 310.540150718 105.757626824 340 142 340 c 0
 179.072810008 340 208 311.071893116 208 274 c 0
 208 237.759063181 178.536708921 209 142 209 c 0
EndSplineSet
EndChar

StartChar: oe
Encoding: 339 339 142
Width: 1017
Flags: W
HStem: -10 51<248.359 404.376 702.427 861.447> 317 46<617 860.565> 492 48<247.576 402.84 676.632 824.159>
VStem: 48 113<159.033 375.913> 493 113<151.423 316.419> 861 109<327.426 442.141>
LayerCount: 2
Fore
SplineSet
610 317 m 1
 606.915946945 304.66378778 606 288.468427877 606 272 c 2
 606 261 l 1
 607.956024106 163.198794692 644.321601287 89.5389286171 711.5 57.5 c 0
 733.166666667 47.1666666667 757 42 783 42 c 0
 811 42 837 48.1666666667 861 60.5 c 0
 885 72.8333333333 909.666666667 93 935 121 c 1
 966 93 l 1
 909.333333333 24.3333333333 839 -10 755 -10 c 0
 656.614403999 -10 586.126143844 31.8555741566 543 91 c 1
 496.965880224 34.342621814 421.644037902 -10 325 -10 c 0
 241.775511533 -10 174.84135518 24.3386804822 130 68 c 0
 83.6834205435 113.097722102 48 181.418922038 48 269 c 0
 48 354.362758344 84.0530353769 420.471296673 130 464 c 0
 175.116750918 506.742185081 242.142152488 540 325 540 c 0
 423.158230245 540 501.630473635 493.070186296 548 436 c 1
 592.423459934 496.46526491 665.963582356 540 767 540 c 0
 896.615547858 540 970 466.966538334 970 337 c 0
 970 317.851032138 963.808040412 316.991643498 944.953335995 316.991643498 c 0
 943.094088534 316.991643498 941.111711382 317 939 317 c 2
 610 317 l 1
325 492 m 0
 237.930958224 492 192.003259961 429.881329426 172.5 359.5 c 0
 164.833333333 331.833333333 161 301.333333333 161 268 c 0
 161 168.436335726 192.724061885 91.2805003279 257 57 c 0
 277 46.3333333333 299.666666667 41 325 41 c 0
 411.515032504 41 458.249165344 100.9973291 479.5 169 c 0
 487.833333333 195.666666667 492.333333333 225.666666667 493 259 c 2
 493 268 l 2
 493 366.460335598 457.991331831 441.440097574 394 475.5 c 0
 373.333333333 486.5 350.333333333 492 325 492 c 0
861 391 m 0
 861 454.603610351 816.076637024 492 751 492 c 0
 679 492 634.333333333 449 617 363 c 1
 801 363 l 2
 808.107589099 363 814.984299696 362.779688338 821.389362655 362.779688338 c 0
 844.180587853 362.779688338 861 365.569186149 861 391 c 0
EndSplineSet
EndChar

StartChar: kgreenlandic
Encoding: 312 312 143
Width: 633
Flags: W
HStem: 0 35<34 105.594 246.904 318 365 416.988 562.303 628> 478 34<32 67.5526> 495.028 34.972<326 403.626 515.517 586>
VStem: 130 95<55.2199 218 281 463.969>
LayerCount: 2
Fore
SplineSet
404 475 m 256xd0
 404 493.7961116 371.345055626 495.028036237 339.986812258 495.028036237 c 0
 335.256176438 495.028036237 330.555051041 495 326 495 c 1
 326 530 l 1
 586 530 l 1xb0
 586 495 l 1
 525.485607565 495 502.281351189 470.868506265 468 442 c 1
 324 314 l 1
 522 90 l 2
 541.333333333 68 558.333333333 53.3333333333 573 46 c 0
 587.666666667 38.6666666667 606 35 628 35 c 1
 628 0 l 1
 365 0 l 1
 365 35 l 1
 370.471920078 35 375.861008944 34.9104061226 380.976233463 34.9104061226 c 0
 401.10940993 34.9104061226 417 36.2983551952 417 50 c 256
 417 56 413.666666667 64.1666666667 407 74.5 c 0
 400.333333333 84.8333333333 387.333333333 101.666666667 368 125 c 2
 262 253 l 1
 225 218 l 1
 225 159 l 2
 225 100.159436177 225.520176995 50.4410380284 270.5 39.5 c 0
 282.833333333 36.5 298.666666667 35 318 35 c 1
 318 0 l 1
 34 0 l 1
 34 35 l 1
 89.4546365562 35 117.86689606 46.2346523425 126 93 c 0
 128.666666667 108.333333333 130 128 130 152 c 2
 130 360 l 2
 130 365.091435566 130.01685069 370.093724389 130.01685069 374.989798317 c 0
 130.01685069 426.768957273 128.132196251 466.66858016 84.5 474.5 c 0
 71.5 476.833333333 54 478 32 478 c 1
 32 512 l 1
 225 550 l 1
 225 281 l 1
 318 372 l 2
 350.666666667 403.333333333 373.166666667 426.5 385.5 441.5 c 0
 397.833333333 456.5 404 467.666666667 404 475 c 256xd0
EndSplineSet
EndChar

StartChar: OE
Encoding: 338 338 144
Width: 1152
Flags: W
HStem: 0 42<361.201 562.94 730.244 978.161> 383 40<686 821.452> 518 20G<875 910> 730 40<368.016 558.122 686 956.711>
VStem: 58 130<257.584 505.309> 581 105<81.0339 383 423 709.269> 875 35<265 334.939 473.148 538> 1033 35<594 654.296> 1069 38<137.1 197>
LayerCount: 2
Fore
SplineSet
686 423 m 1
 791.706276797 423 875 433.709138847 875 538 c 1
 910 538 l 1
 910 265 l 1
 875 265 l 1
 875 340.152697703 839.038965139 367.410713659 773 377.5 c 0
 749 381.166666667 720 383 686 383 c 1
 686 157 l 2
 686 88.0190643852 713.39434318 58.744722266 773 48.5 c 0
 794.333333333 44.8333333333 820.666666667 43 852 43 c 0
 948.905507087 43 1011.84224964 60.2564242985 1044 123.5 c 0
 1054 143.166666667 1062.33333333 167.666666667 1069 197 c 1
 1107 197 l 1
 1092 0 l 1
 471 0 l 2
 346.114265919 0 245.0816683 47.7890825682 177.5 110.5 c 0
 112.353149204 170.95158227 58 261.285100297 58 379 c 0
 58 500.305671962 111.808491935 594.354465581 178 657 c 0
 246.181806664 721.529209879 347.076202423 770 474 770 c 2
 1059 770 l 1
 1068 594 l 1
 1033 594 l 1
 1021.72584326 669.161044933 990.416212674 708.763964554 917 721 c 0
 893 725 864 727 830 727 c 2
 703 727 l 2
 691.666666667 727 686 721.333333333 686 710 c 2
 686 423 l 1
474 730 m 0
 325.286022854 730 243.599320632 640.08777507 208 523.5 c 0
 194.666666667 479.833333333 188 430.666666667 188 376 c 0
 188 222.153494842 247.767938206 111.534668326 355 65 c 0
 390.333333333 49.6666666667 430 42 474 42 c 0
 532.539940706 42 569.565389965 46.7588240734 577.5 95.5 c 0
 579.833333333 109.833333333 581 128.666666667 581 152 c 2
 581 618 l 2
 581 677.438057853 574.514103246 715.318406447 527 725.5 c 0
 513 728.5 495.333333333 730 474 730 c 0
EndSplineSet
EndChar

StartChar: tilde
Encoding: 732 732 145
Width: 381
Flags: W
HStem: 652 76<207.102 315.468> 700 74<67.9482 175.132>
LayerCount: 2
Fore
SplineSet
261 652 m 0x80
 197.732289638 652 162.628658112 700 99 700 c 0
 69.1062871048 700 61.9207595515 686.025352812 54 660 c 1
 20 660 l 1
 28.9260328509 716.903459425 65.5279505966 774 126 774 c 0x40
 187.824063026 774 219.983065413 728 281 728 c 256
 311.064474339 728 319.138360819 744.522787354 328 770 c 1
 361 770 l 1
 355.377287619 712.648333716 319.326800082 652 261 652 c 0x80
EndSplineSet
EndChar

StartChar: asciitilde
Encoding: 126 126 146
Width: 553
Flags: W
HStem: 241 76<295.204 423.988> 289 74<131.582 260.356>
LayerCount: 2
Fore
SplineSet
194 363 m 0x40
 267.035238043 363 316.595301598 317 391 317 c 0
 421.442554466 317 428.185738668 332.557216004 437 359 c 1
 470 359 l 1
 461.213007026 300.78617155 428.000531595 241 367 241 c 0x80
 332.713907526 241 297.320270818 255.226576394 268 265 c 0
 237.313641382 275.228786206 200.155611232 289 163 289 c 0
 133.106287105 289 125.920759551 275.025352812 118 249 c 1
 84 249 l 1
 94.1876471413 308.993922054 129.443577878 363 194 363 c 0x40
EndSplineSet
EndChar

StartChar: atilde
Encoding: 227 227 147
Width: 554
Flags: W
HStem: -10 61<166.221 267.51 413.045 521.692> 502 38<191.352 308.683> 652 76<282.102 390.468> 700 74<142.948 250.132>
VStem: 43 101<72.7466 179.695> 67 102<398.02 482.337> 349 98<124.573 296 339 463.026> 357 90<58.2934 97>
LayerCount: 2
Fore
SplineSet
336 652 m 0xe0
 272.732289638 652 237.628658112 700 174 700 c 0
 144.106287105 700 136.920759551 686.025352812 129 660 c 1
 95 660 l 1
 103.926032851 716.903459425 140.527950597 774 201 774 c 0xd0
 262.824063026 774 294.983065413 728 356 728 c 256
 386.064474339 728 394.138360819 744.522787354 403 770 c 1
 436 770 l 1
 430.377287619 712.648333716 394.326800082 652 336 652 c 0xe0
EndSplineSet
Refer: 28 97 S 1 0 0 1 0 0 3
EndChar

StartChar: ntilde
Encoding: 241 241 148
Width: 689
Flags: W
HStem: 0 34<37 101.443 233.17 299 406 470.158 602 665> 470 32<35 64.4737> 486 54<308.814 442.318> 652 76<362.102 470.468> 700 74<222.948 330.132>
VStem: 121 95<48.8915 402.686> 489 95<48.715 431.728>
LayerCount: 2
Fore
SplineSet
416 652 m 0x96
 352.732289638 652 317.628658112 700 254 700 c 0
 224.106287105 700 216.920759551 686.025352812 209 660 c 1
 175 660 l 1
 183.926032851 716.903459425 220.527950597 774 281 774 c 0x8e
 342.824063026 774 374.983065413 728 436 728 c 256
 466.064474339 728 474.138360819 744.522787354 483 770 c 1
 516 770 l 1
 510.377287619 712.648333716 474.326800082 652 416 652 c 0x96
EndSplineSet
Refer: 4 110 S 1 0 0 1 0 0 3
EndChar

StartChar: utilde
Encoding: 361 361 149
Width: 670
Flags: W
HStem: -10 60<249.313 367.634> 1 35<575.733 648> 495 35<21 84.8602 380 443.86> 652 76<322.102 430.468> 700 74<182.948 290.132>
VStem: 104 98<107.208 479.817> 463 98<154.471 479.817>
LayerCount: 2
Fore
SplineSet
376 652 m 0x36
 312.732289638 652 277.628658112 700 214 700 c 0
 184.106287105 700 176.920759551 686.025352812 169 660 c 1
 135 660 l 1
 143.926032851 716.903459425 180.527950597 774 241 774 c 0x2e
 302.824063026 774 334.983065413 728 396 728 c 256
 426.064474339 728 434.138360819 744.522787354 443 770 c 1
 476 770 l 1
 470.377287619 712.648333716 434.326800082 652 376 652 c 0x36
EndSplineSet
Refer: 5 117 S 1 0 0 1 0 0 3
EndChar

StartChar: otilde
Encoding: 245 245 150
Width: 654
Flags: W
HStem: -10 51<248.359 403.873> 492 48<247.576 402.476> 652 76<334.102 442.468> 700 74<194.948 302.132>
VStem: 48 113<159.033 375.913> 493 113<158.847 375.44>
LayerCount: 2
Fore
SplineSet
388 652 m 0xec
 324.732289638 652 289.628658112 700 226 700 c 0
 196.106287105 700 188.920759551 686.025352812 181 660 c 1
 147 660 l 1
 155.926032851 716.903459425 192.527950597 774 253 774 c 0xdc
 314.824063026 774 346.983065413 728 408 728 c 256
 438.064474339 728 446.138360819 744.522787354 455 770 c 1
 488 770 l 1
 482.377287619 712.648333716 446.326800082 652 388 652 c 0xec
EndSplineSet
Refer: 10 111 S 1 0 0 1 0 0 3
EndChar

StartChar: etilde
Encoding: 7869 7869 151
Width: 573
Flags: W
HStem: -10 52<258.718 417.447> 317 46<173 416.565> 492 48<233.095 380.159> 652 76<322.102 430.468> 700 74<182.948 290.132>
VStem: 49 113<152.318 314.418> 417 109<327.426 442.141>
LayerCount: 2
Fore
SplineSet
376 652 m 0xf6
 312.732289638 652 277.628658112 700 214 700 c 0
 184.106287105 700 176.920759551 686.025352812 169 660 c 1
 135 660 l 1
 143.926032851 716.903459425 180.527950597 774 241 774 c 0xee
 302.824063026 774 334.983065413 728 396 728 c 256
 426.064474339 728 434.138360819 744.522787354 443 770 c 1
 476 770 l 1
 470.377287619 712.648333716 434.326800082 652 376 652 c 0xf6
EndSplineSet
Refer: 17 101 S 1 0 0 1 0 0 3
EndChar

StartChar: ytilde
Encoding: 7929 7929 152
Width: 639
Flags: W
HStem: -260 103<93.0541 215.435> 495 35<4 59.1131 207.3 269 408 471.739 578.019 628> 652 76<358.102 466.468> 700 74<218.948 326.132>
LayerCount: 2
Fore
SplineSet
412 652 m 0xe0
 348.732289638 652 313.628658112 700 250 700 c 0
 220.106287105 700 212.920759551 686.025352812 205 660 c 1
 171 660 l 1
 179.926032851 716.903459425 216.527950597 774 277 774 c 0xd0
 338.824063026 774 370.983065413 728 432 728 c 256
 462.064474339 728 470.138360819 744.522787354 479 770 c 1
 512 770 l 1
 506.377287619 712.648333716 470.326800082 652 412 652 c 0xe0
EndSplineSet
Refer: 26 121 S 1 0 0 1 0 0 3
EndChar

StartChar: itilde
Encoding: 297 297 153
Width: 341
Flags: W
HStem: 0 37<34 105.749 251.169 321> 465 37<32 68.1053> 520 20G<124.842 228> 652 76<189.102 297.468> 700 74<49.9482 157.132>
VStem: 130 98<58.4301 451.172>
LayerCount: 2
Fore
SplineSet
243 652 m 0xf4
 179.732289638 652 144.628658112 700 81 700 c 0
 51.1062871048 700 43.9207595515 686.025352812 36 660 c 1
 2 660 l 1
 10.9260328509 716.903459425 47.5279505966 774 108 774 c 0xec
 169.824063026 774 201.983065413 728 263 728 c 256
 293.064474339 728 301.138360819 744.522787354 310 770 c 1
 343 770 l 1
 337.377287619 712.648333716 301.326800082 652 243 652 c 0xf4
EndSplineSet
Refer: 9 305 S 1 0 0 1 0 0 3
EndChar

StartChar: breve
Encoding: 728 728 154
Width: 316
Flags: W
HStem: 646 69<84.89 230.037> 756 20G<20 61.9596 253.588 296>
VStem: 20 36<746.736 776> 259 37<746.411 776>
LayerCount: 2
Fore
SplineSet
157 715 m 0
 206.260284767 715 248.176319112 738.117116891 259 776 c 1
 296 776 l 1
 291.81132774 715.264252235 257.706405859 673.804524721 210.5 655.5 c 0
 194.166666667 649.166666667 176.666666667 646 158 646 c 0
 95.3374371447 646 52.0575391282 680.238096447 32 724 c 0
 24.6666666667 740 20.6666666667 757.333333333 20 776 c 1
 56 776 l 1
 67.9192896402 738.917765564 107.96310608 715 157 715 c 0
EndSplineSet
EndChar

StartChar: abreve
Encoding: 259 259 155
Width: 554
Flags: W
HStem: -10 61<166.221 267.51 413.045 521.692> 502 38<191.352 308.683> 646 69<191.89 337.037> 756 20G<127 168.96 360.588 403>
VStem: 43 101<72.7466 179.695> 67 102<398.02 482.337> 127 36<746.736 776> 349 98<124.573 296 339 463.026> 357 90<58.2934 97> 366 37<746.411 776>
LayerCount: 2
Fore
SplineSet
264 715 m 0xf240
 313.260284767 715 355.176319112 738.117116891 366 776 c 1
 403 776 l 1
 398.81132774 715.264252235 364.706405859 673.804524721 317.5 655.5 c 0
 301.166666667 649.166666667 283.666666667 646 265 646 c 0
 202.337437145 646 159.057539128 680.238096447 139 724 c 0
 131.666666667 740 127.666666667 757.333333333 127 776 c 1
 163 776 l 1
 174.91928964 738.917765564 214.96310608 715 264 715 c 0xf240
EndSplineSet
Refer: 28 97 S 1 0 0 1 0 0 3
EndChar

StartChar: ubreve
Encoding: 365 365 156
Width: 670
Flags: W
HStem: -10 60<249.313 367.634> 1 35<575.733 648> 495 35<21 84.8602 380 443.86> 646 69<239.89 385.037> 756 20G<175 216.96 408.588 451>
VStem: 104 98<107.208 479.817> 175 36<746.736 776> 414 37<746.411 776> 463 98<154.471 479.817>
LayerCount: 2
Fore
SplineSet
312 715 m 0x3b80
 361.260284767 715 403.176319112 738.117116891 414 776 c 1
 451 776 l 1
 446.81132774 715.264252235 412.706405859 673.804524721 365.5 655.5 c 0
 349.166666667 649.166666667 331.666666667 646 313 646 c 0
 250.337437145 646 207.057539128 680.238096447 187 724 c 0
 179.666666667 740 175.666666667 757.333333333 175 776 c 1
 211 776 l 1
 222.91928964 738.917765564 262.96310608 715 312 715 c 0x3b80
EndSplineSet
Refer: 5 117 S 1 0 0 1 0 0 3
EndChar

StartChar: obreve
Encoding: 335 335 157
Width: 654
Flags: W
HStem: -10 51<248.359 403.873> 492 48<247.576 402.476> 646 69<251.89 397.037> 756 20G<187 228.96 420.588 463>
VStem: 48 113<159.033 375.913> 187 36<746.736 776> 426 37<746.411 776> 493 113<158.847 375.44>
LayerCount: 2
Fore
SplineSet
325 540 m 0
 408.827232024 540 476.685949801 505.839111874 522.5 463 c 0
 568.964230183 419.552927622 606 354.597724328 606 269 c 0
 606 181.198490975 569.309497864 113.985751194 522.5 69 c 0
 476.870216028 25.1479998186 409.327955353 -10 325 -10 c 0
 241.775511533 -10 174.84135518 24.3386804822 130 68 c 0
 83.6834205435 113.097722102 48 181.418922038 48 269 c 0
 48 354.362758344 84.0530353769 420.471296673 130 464 c 0
 175.116750918 506.742185081 242.142152488 540 325 540 c 0
325 492 m 0
 237.930958224 492 192.003259961 429.881329426 172.5 359.5 c 0
 164.833333333 331.833333333 161 301.333333333 161 268 c 0
 161 168.436335726 192.724061885 91.2805003279 257 57 c 0
 277 46.3333333333 299.666666667 41 325 41 c 256
 414.160931377 41 460.560552828 103.461934898 481 175 c 0
 489 203 493 234 493 268 c 0
 493 366.460335598 457.991331831 441.440097574 394 475.5 c 0
 373.333333333 486.5 350.333333333 492 325 492 c 0
324 715 m 0
 373.260284767 715 415.176319112 738.117116891 426 776 c 1
 463 776 l 1
 458.81132774 715.264252235 424.706405859 673.804524721 377.5 655.5 c 0
 361.166666667 649.166666667 343.666666667 646 325 646 c 0
 262.337437145 646 219.057539128 680.238096447 199 724 c 0
 191.666666667 740 187.666666667 757.333333333 187 776 c 1
 223 776 l 1
 234.91928964 738.917765564 274.96310608 715 324 715 c 0
EndSplineSet
EndChar

StartChar: ebreve
Encoding: 277 277 158
Width: 573
Flags: W
HStem: -10 52<258.718 417.447> 317 46<173 416.565> 492 48<233.095 380.159> 646 69<239.89 385.037> 756 20G<175 216.96 408.588 451>
VStem: 49 113<152.318 314.418> 175 36<746.736 776> 414 37<746.411 776> 417 109<327.426 442.141>
LayerCount: 2
Fore
SplineSet
312 715 m 0xff
 361.260284767 715 403.176319112 738.117116891 414 776 c 1
 451 776 l 1
 446.81132774 715.264252235 412.706405859 673.804524721 365.5 655.5 c 0
 349.166666667 649.166666667 331.666666667 646 313 646 c 0
 250.337437145 646 207.057539128 680.238096447 187 724 c 0
 179.666666667 740 175.666666667 757.333333333 175 776 c 1
 211 776 l 1
 222.91928964 738.917765564 262.96310608 715 312 715 c 0xff
EndSplineSet
Refer: 17 101 S 1 0 0 1 0 0 3
EndChar

StartChar: ibreve
Encoding: 301 301 159
Width: 341
Flags: W
HStem: 0 37<34 105.749 251.169 321> 465 37<32 68.1053> 520 20G<124.842 228> 646 69<106.89 252.037> 756 20G<42 83.9596 275.588 318>
VStem: 42 36<746.736 776> 130 98<58.4301 451.172> 281 37<746.411 776>
LayerCount: 2
Fore
SplineSet
179 715 m 0
 228.260284767 715 270.176319112 738.117116891 281 776 c 1
 318 776 l 1
 313.81132774 715.264252235 279.706405859 673.804524721 232.5 655.5 c 0
 216.166666667 649.166666667 198.666666667 646 180 646 c 0
 117.337437145 646 74.0575391282 680.238096447 54 724 c 0
 46.6666666667 740 42.6666666667 757.333333333 42 776 c 1
 78 776 l 1
 89.9192896402 738.917765564 129.96310608 715 179 715 c 0
EndSplineSet
Refer: 9 305 S 1 0 0 1 0 0 3
EndChar

StartChar: acute.cap
Encoding: 65542 -1 160
Width: 295
Flags: W
HStem: 850 110
VStem: 20 255
LayerCount: 2
Fore
SplineSet
237 960 m 0
 259.562457336 960 275 947.640522645 275 925 c 0
 275 896.62366002 229.359373899 884.908087976 200 878 c 2
 80 850 l 1
 20 850 l 1
 150 927 l 2
 168.666666667 938.333333333 184.5 946.666666667 197.5 952 c 0
 210.5 957.333333333 223.666666667 960 237 960 c 0
EndSplineSet
EndChar

StartChar: hungarumlaut.cap
Encoding: 65543 -1 161
Width: 473
Flags: W
LayerCount: 2
Fore
SplineSet
227 960 m 0
 249.562457336 960 265 947.640522645 265 925 c 0
 265 896.62366002 219.359373899 884.908087976 190 878 c 2
 80 850 l 1
 20 850 l 1
 140 927 l 2
 158 938.333333333 173.666666667 946.666666667 187 952 c 0
 200.333333333 957.333333333 213.666666667 960 227 960 c 0
414 960 m 0
 436.562457336 960 452 947.640522645 452 925 c 0
 452 896.62366002 406.359373899 884.908087976 377 878 c 2
 267 850 l 1
 207 850 l 1
 327 927 l 2
 345 938.333333333 360.666666667 946.666666667 374 952 c 0
 387.333333333 957.333333333 400.666666667 960 414 960 c 0
EndSplineSet
EndChar

StartChar: tilde.cap
Encoding: 65544 -1 162
Width: 381
Flags: W
HStem: 838 76<207.102 315.468> 886 74<67.9482 175.132>
LayerCount: 2
Fore
SplineSet
261 838 m 0x80
 197.732289638 838 162.628658112 886 99 886 c 0
 69.1062871048 886 61.9207595515 872.025352812 54 846 c 1
 20 846 l 1
 28.9260328509 902.903459425 65.5279505966 960 126 960 c 0x40
 187.824063026 960 219.983065413 914 281 914 c 256
 311.064474339 914 319.138360819 930.522787354 328 956 c 1
 361 956 l 1
 355.377287619 898.648333716 319.326800082 838 261 838 c 0x80
EndSplineSet
EndChar

StartChar: lacute
Encoding: 314 314 163
Width: 325
Flags: W
HStem: 0 35<22 90.7404 230.822 298> 759 34<20 55.7568> 810 20G<106.838 209>
VStem: 116 93<54.8239 746.697>
LayerCount: 2
Fore
SplineSet
280 960 m 0
 302.562457336 960 318 947.640522645 318 925 c 0
 318 896.62366002 272.359373899 884.908087976 243 878 c 2
 123 850 l 1
 63 850 l 1
 193 927 l 2
 211.666666667 938.333333333 227.5 946.666666667 240.5 952 c 0
 253.5 957.333333333 266.666666667 960 280 960 c 0
EndSplineSet
Refer: 7 108 N 1 0 0 1 0 0 3
EndChar

StartChar: Aacute
Encoding: 193 193 164
Width: 772
Flags: W
HStem: 0 39<-6 58.8288 166.674 237 459 544.738 714.374 785> 279 50<241 469> 750 20G<355.012 414.05>
LayerCount: 2
Fore
SplineSet
500 960 m 0
 522.562457336 960 538 947.640522645 538 925 c 0
 538 896.62366002 492.359373899 884.908087976 463 878 c 2
 343 850 l 1
 283 850 l 1
 413 927 l 2
 431.666666667 938.333333333 447.5 946.666666667 460.5 952 c 0
 473.5 957.333333333 486.666666667 960 500 960 c 0
EndSplineSet
Refer: 37 65 S 1 0 0 1 0 0 3
EndChar

StartChar: Cacute
Encoding: 262 262 165
Width: 802
Flags: W
HStem: -10 54<343.541 564.084> 0 21G<703.177 744> 540 21G<675.595 726> 728 52<348.493 555.69> 750 20G<683.194 717.783>
VStem: 60 134<228.052 518.546> 689 28<745.889 770> 689 37<540 588.122> 709 35<0 24.0435 218.22 249>
LayerCount: 2
Fore
SplineSet
565 960 m 0x24
 587.562457336 960 603 947.640522645 603 925 c 0
 603 896.62366002 557.359373899 884.908087976 528 878 c 2
 408 850 l 1
 348 850 l 1
 478 927 l 2
 496.666666667 938.333333333 512.5 946.666666667 525.5 952 c 0
 538.5 957.333333333 551.666666667 960 565 960 c 0x24
EndSplineSet
Refer: 40 67 S 1 0 0 1 0 0 3
EndChar

StartChar: Eacute
Encoding: 201 201 166
Width: 726
Flags: W
HStem: 0 43<45 137.734 300.41 557.852> 383 40<260 390.883> 518 20G<449 484> 727 43<55 139.159 260 538.512>
VStem: 155 105<80.7239 383 423 712.458> 449 35<265 329.926 474.062 538> 607 35<594 654.296> 643 38<137.1 197>
LayerCount: 2
Fore
SplineSet
496 960 m 0
 518.562457336 960 534 947.640522645 534 925 c 0
 534 896.62366002 488.359373899 884.908087976 459 878 c 2
 339 850 l 1
 279 850 l 1
 409 927 l 2
 427.666666667 938.333333333 443.5 946.666666667 456.5 952 c 0
 469.5 957.333333333 482.666666667 960 496 960 c 0
EndSplineSet
Refer: 32 69 S 1 0 0 1 0 0 3
EndChar

StartChar: Iacute
Encoding: 205 205 167
Width: 415
Flags: W
HStem: 0 38<45 125.212 287.105 369> 732 38<55 125.945 289.12 359>
VStem: 155 105<63.668 705.038>
LayerCount: 2
Fore
SplineSet
323 960 m 0
 345.562457336 960 361 947.640522645 361 925 c 0
 361 896.62366002 315.359373899 884.908087976 286 878 c 2
 166 850 l 1
 106 850 l 1
 236 927 l 2
 254.666666667 938.333333333 270.5 946.666666667 283.5 952 c 0
 296.5 957.333333333 309.666666667 960 323 960 c 0
EndSplineSet
Refer: 29 73 S 1 0 0 1 0 0 3
EndChar

StartChar: grave.cap
Encoding: 65545 -1 168
Width: 295
Flags: W
HStem: 850 110
VStem: 20 255
LayerCount: 2
Fore
SplineSet
20 925 m 0
 20 947.640614334 35.4379094202 960 58 960 c 0
 71.3333333333 960 84.5 957.333333333 97.5 952 c 0
 110.5 946.666666667 126.333333333 938.333333333 145 927 c 2
 275 850 l 1
 215 850 l 1
 95 878 l 2
 65.5552342617 884.928180174 20 896.598965203 20 925 c 0
EndSplineSet
EndChar

StartChar: Lacute
Encoding: 313 313 169
Width: 727
Flags: W
HStem: 0 38<45 130.24> 0 45<304.092 582.867> 732 38<55 132.268 283.308 359>
VStem: 155 105<88.3919 711.251> 668 38<137.407 197>
LayerCount: 2
Fore
SplineSet
323 960 m 0x38
 345.562457336 960 361 947.640522645 361 925 c 0
 361 896.62366002 315.359373899 884.908087976 286 878 c 2
 166 850 l 1
 106 850 l 1
 236 927 l 2
 254.666666667 938.333333333 270.5 946.666666667 283.5 952 c 0
 296.5 957.333333333 309.666666667 960 323 960 c 0x38
EndSplineSet
Refer: 31 76 S 1 0 0 1 0 0 3
EndChar

StartChar: Nacute
Encoding: 323 323 170
Width: 902
Flags: W
HStem: -10 21G<678.824 754> 0 38<45 125.212 238.669 314> 732 38<55 125.945 595 669.031 783.664 864>
VStem: 155 60<63.9236 614.883> 694 60<187 705.81>
LayerCount: 2
Fore
SplineSet
581 960 m 0x38
 603.562457336 960 619 947.640522645 619 925 c 0
 619 896.62366002 573.359373899 884.908087976 544 878 c 2
 424 850 l 1
 364 850 l 1
 494 927 l 2
 512.666666667 938.333333333 528.5 946.666666667 541.5 952 c 0
 554.5 957.333333333 567.666666667 960 581 960 c 0x38
EndSplineSet
Refer: 45 78 S 1 0 0 1 0 0 3
EndChar

StartChar: Oacute
Encoding: 211 211 171
Width: 946
Flags: W
HStem: -10 55<357.397 587.523> 725 55<359.875 584.842>
VStem: 57 130<256.59 510.994> 759 130<254.728 511.549>
LayerCount: 2
Fore
SplineSet
591 960 m 0
 613.562457336 960 629 947.640522645 629 925 c 0
 629 896.62366002 583.359373899 884.908087976 554 878 c 2
 434 850 l 1
 374 850 l 1
 504 927 l 2
 522.666666667 938.333333333 538.5 946.666666667 551.5 952 c 0
 564.5 957.333333333 577.666666667 960 591 960 c 0
EndSplineSet
Refer: 38 79 S 1 0 0 1 0 0 3
EndChar

StartChar: Racute
Encoding: 340 340 172
Width: 788
Flags: W
HStem: 0 38<45 130.24 289.316 398 743.801 815> 365 50<260 348.149> 723 47<260 466.549> 732 38<55 132.268>
VStem: 155 105<62.9525 365 415 712.458> 528 130<482.163 661.761>
LayerCount: 2
Fore
SplineSet
492 960 m 0xcc
 514.562457336 960 530 947.640522645 530 925 c 0
 530 896.62366002 484.359373899 884.908087976 455 878 c 2
 335 850 l 1
 275 850 l 1
 405 927 l 2
 423.666666667 938.333333333 439.5 946.666666667 452.5 952 c 0
 465.5 957.333333333 478.666666667 960 492 960 c 0xcc
EndSplineSet
Refer: 47 82 S 1 0 0 1 0 0 3
EndChar

StartChar: Sacute
Encoding: 346 346 173
Width: 645
Flags: W
HStem: -10 51<220.531 418.404> 729 51<231.676 401.6>
VStem: 58 37<172.381 235> 90 94<551.708 664.953> 482 109<122.173 239.509> 496 37<567 615.244>
LayerCount: 2
Fore
SplineSet
433 960 m 0xc0
 455.562457336 960 471 947.640522645 471 925 c 0
 471 896.62366002 425.359373899 884.908087976 396 878 c 2
 276 850 l 1
 216 850 l 1
 346 927 l 2
 364.666666667 938.333333333 380.5 946.666666667 393.5 952 c 0
 406.5 957.333333333 419.666666667 960 433 960 c 0xc0
EndSplineSet
Refer: 48 83 S 1 0 0 1 0 0 3
EndChar

StartChar: Uacute
Encoding: 218 218 174
Width: 861
Flags: W
HStem: -10 62<351.778 565.861> 732 38<29 113.028 287.155 370 542 628.078 754.678 832>
VStem: 140 120<148.279 706.955> 662 60<157.523 697.395>
LayerCount: 2
Fore
SplineSet
576 960 m 0
 598.562457336 960 614 947.640522645 614 925 c 0
 614 896.62366002 568.359373899 884.908087976 539 878 c 2
 419 850 l 1
 359 850 l 1
 489 927 l 2
 507.666666667 938.333333333 523.5 946.666666667 536.5 952 c 0
 549.5 957.333333333 562.666666667 960 576 960 c 0
EndSplineSet
Refer: 50 85 S 1 0 0 1 0 0 3
EndChar

StartChar: Igrave
Encoding: 204 204 175
Width: 415
Flags: W
HStem: 0 38<45 125.212 287.105 369> 732 38<55 125.945 289.12 359>
VStem: 155 105<63.668 705.038>
LayerCount: 2
Fore
SplineSet
57 925 m 0
 57 947.640614334 72.4379094202 960 95 960 c 0
 108.333333333 960 121.5 957.333333333 134.5 952 c 0
 147.5 946.666666667 163.333333333 938.333333333 182 927 c 2
 312 850 l 1
 252 850 l 1
 132 878 l 2
 102.555234262 884.928180174 57 896.598965203 57 925 c 0
EndSplineSet
Refer: 29 73 S 1 0 0 1 0 0 3
EndChar

StartChar: Agrave
Encoding: 192 192 176
Width: 772
Flags: W
HStem: 0 39<-6 58.8288 166.674 237 459 544.738 714.374 785> 279 50<241 469> 750 20G<355.012 414.05>
LayerCount: 2
Fore
SplineSet
234 925 m 0
 234 947.640614334 249.43790942 960 272 960 c 0
 285.333333333 960 298.5 957.333333333 311.5 952 c 0
 324.5 946.666666667 340.333333333 938.333333333 359 927 c 2
 489 850 l 1
 429 850 l 1
 309 878 l 2
 279.555234262 884.928180174 234 896.598965203 234 925 c 0
EndSplineSet
Refer: 37 65 S 1 0 0 1 0 0 3
EndChar

StartChar: Egrave
Encoding: 200 200 177
Width: 726
Flags: W
HStem: 0 43<45 137.734 300.41 557.852> 383 40<260 390.883> 518 20G<449 484> 727 43<55 139.159 260 538.512>
VStem: 155 105<80.7239 383 423 712.458> 449 35<265 329.926 474.062 538> 607 35<594 654.296> 643 38<137.1 197>
LayerCount: 2
Fore
SplineSet
230 925 m 0
 230 947.640614334 245.43790942 960 268 960 c 0
 281.333333333 960 294.5 957.333333333 307.5 952 c 0
 320.5 946.666666667 336.333333333 938.333333333 355 927 c 2
 485 850 l 1
 425 850 l 1
 305 878 l 2
 275.555234262 884.928180174 230 896.598965203 230 925 c 0
EndSplineSet
Refer: 32 69 S 1 0 0 1 0 0 3
EndChar

StartChar: Ograve
Encoding: 210 210 178
Width: 946
Flags: W
HStem: -10 55<357.397 587.523> 725 55<359.875 584.842>
VStem: 57 130<256.59 510.994> 759 130<254.728 511.549>
LayerCount: 2
Fore
SplineSet
325 925 m 0
 325 947.640614334 340.43790942 960 363 960 c 0
 376.333333333 960 389.5 957.333333333 402.5 952 c 0
 415.5 946.666666667 431.333333333 938.333333333 450 927 c 2
 580 850 l 1
 520 850 l 1
 400 878 l 2
 370.555234262 884.928180174 325 896.598965203 325 925 c 0
EndSplineSet
Refer: 38 79 S 1 0 0 1 0 0 3
EndChar

StartChar: Ugrave
Encoding: 217 217 179
Width: 861
Flags: W
HStem: -10 62<351.778 565.861> 732 38<29 113.028 287.155 370 542 628.078 754.678 832>
VStem: 140 120<148.279 706.955> 662 60<157.523 697.395>
LayerCount: 2
Fore
SplineSet
310 925 m 0
 310 947.640614334 325.43790942 960 348 960 c 0
 361.333333333 960 374.5 957.333333333 387.5 952 c 0
 400.5 946.666666667 416.333333333 938.333333333 435 927 c 2
 565 850 l 1
 505 850 l 1
 385 878 l 2
 355.555234262 884.928180174 310 896.598965203 310 925 c 0
EndSplineSet
Refer: 50 85 S 1 0 0 1 0 0 3
EndChar

StartChar: Wgrave
Encoding: 7808 7808 180
Width: 1176
Flags: W
HStem: -10 21G<341.753 391.487 782.251 831.595> 731.098 38.9019<-11 59.6589 230.045 315 464 513.273 683.987 770 941 1010.17 1113.15 1184>
LayerCount: 2
Fore
SplineSet
466 925 m 0
 466 947.640614334 481.43790942 960 504 960 c 0
 517.333333333 960 530.5 957.333333333 543.5 952 c 0
 556.5 946.666666667 572.333333333 938.333333333 591 927 c 2
 721 850 l 1
 661 850 l 1
 541 878 l 2
 511.555234262 884.928180174 466 896.598965203 466 925 c 0
EndSplineSet
Refer: 51 87 S 1 0 0 1 0 0 3
EndChar

StartChar: Wacute
Encoding: 7810 7810 181
Width: 1176
Flags: W
HStem: -10 21G<341.753 391.487 782.251 831.595> 731.098 38.9019<-11 59.6589 230.045 315 464 513.273 683.987 770 941 1010.17 1113.15 1184>
LayerCount: 2
Fore
SplineSet
703 960 m 0
 725.562457336 960 741 947.640522645 741 925 c 0
 741 896.62366002 695.359373899 884.908087976 666 878 c 2
 546 850 l 1
 486 850 l 1
 616 927 l 2
 634.666666667 938.333333333 650.5 946.666666667 663.5 952 c 0
 676.5 957.333333333 689.666666667 960 703 960 c 0
EndSplineSet
Refer: 51 87 S 1 0 0 1 0 0 3
EndChar

StartChar: Ygrave
Encoding: 7922 7922 182
Width: 733
Flags: W
HStem: 0 38<204 286.47 445.87 528> 732 38<-5 62.04 223.496 310 508 569.74 677.108 737>
VStem: 314 105<63.2093 304>
LayerCount: 2
Fore
SplineSet
259 925 m 0
 259 947.640614334 274.43790942 960 297 960 c 0
 310.333333333 960 323.5 957.333333333 336.5 952 c 0
 349.5 946.666666667 365.333333333 938.333333333 384 927 c 2
 514 850 l 1
 454 850 l 1
 334 878 l 2
 304.555234262 884.928180174 259 896.598965203 259 925 c 0
EndSplineSet
Refer: 53 89 S 1 0 0 1 0 0 3
EndChar

StartChar: Yacute
Encoding: 221 221 183
Width: 733
Flags: W
HStem: 0 38<204 286.47 445.87 528> 732 38<-5 62.04 223.496 310 508 569.74 677.108 737>
VStem: 314 105<63.2093 304>
LayerCount: 2
Fore
SplineSet
495 960 m 0
 517.562457336 960 533 947.640522645 533 925 c 0
 533 896.62366002 487.359373899 884.908087976 458 878 c 2
 338 850 l 1
 278 850 l 1
 408 927 l 2
 426.666666667 938.333333333 442.5 946.666666667 455.5 952 c 0
 468.5 957.333333333 481.666666667 960 495 960 c 0
EndSplineSet
Refer: 53 89 S 1 0 0 1 0 0 3
EndChar

StartChar: Zacute
Encoding: 377 377 184
Width: 770
Flags: W
HStem: 0 46<179 608.15> 728 42<177.573 542>
VStem: 76 37<586 651.424> 679 43<135.007 235>
LayerCount: 2
Fore
SplineSet
242 925 m 0
 242 947.640614334 257.43790942 960 280 960 c 0
 293.333333333 960 306.5 957.333333333 319.5 952 c 0
 332.5 946.666666667 348.333333333 938.333333333 367 927 c 2
 497 850 l 1
 437 850 l 1
 317 878 l 2
 287.555234262 884.928180174 242 896.598965203 242 925 c 0
EndSplineSet
Refer: 54 90 S 1 0 0 1 0 0 3
EndChar

StartChar: Ohungarumlaut
Encoding: 336 336 185
Width: 946
Flags: W
HStem: -10 55<357.397 587.523> 725 55<359.875 584.842>
VStem: 57 130<256.59 510.994> 759 130<254.728 511.549>
LayerCount: 2
Fore
SplineSet
496 960 m 0
 518.562457336 960 534 947.640522645 534 925 c 0
 534 896.62366002 488.359373899 884.908087976 459 878 c 2
 349 850 l 1
 289 850 l 1
 409 927 l 2
 427 938.333333333 442.666666667 946.666666667 456 952 c 0
 469.333333333 957.333333333 482.666666667 960 496 960 c 0
683 960 m 0
 705.562457336 960 721 947.640522645 721 925 c 0
 721 896.62366002 675.359373899 884.908087976 646 878 c 2
 536 850 l 1
 476 850 l 1
 596 927 l 2
 614 938.333333333 629.666666667 946.666666667 643 952 c 0
 656.333333333 957.333333333 669.666666667 960 683 960 c 0
EndSplineSet
Refer: 38 79 S 1 0 0 1 0 0 3
EndChar

StartChar: Uhungarumlaut
Encoding: 368 368 186
Width: 861
Flags: W
HStem: -10 62<351.778 565.861> 732 38<29 113.028 287.155 370 542 628.078 754.678 832>
VStem: 140 120<148.279 706.955> 662 60<157.523 697.395>
LayerCount: 2
Fore
SplineSet
481 960 m 0
 503.562457336 960 519 947.640522645 519 925 c 0
 519 896.62366002 473.359373899 884.908087976 444 878 c 2
 334 850 l 1
 274 850 l 1
 394 927 l 2
 412 938.333333333 427.666666667 946.666666667 441 952 c 0
 454.333333333 957.333333333 467.666666667 960 481 960 c 0
668 960 m 0
 690.562457336 960 706 947.640522645 706 925 c 0
 706 896.62366002 660.359373899 884.908087976 631 878 c 2
 521 850 l 1
 461 850 l 1
 581 927 l 2
 599 938.333333333 614.666666667 946.666666667 628 952 c 0
 641.333333333 957.333333333 654.666666667 960 668 960 c 0
EndSplineSet
Refer: 50 85 S 1 0 0 1 0 0 3
EndChar

StartChar: Atilde
Encoding: 195 195 187
Width: 772
Flags: W
HStem: 0 39<-6 58.8288 166.674 237 459 544.738 714.374 785> 279 50<241 469> 750 20G<355.012 414.05> 838 76<399.102 507.468> 886 74<259.948 367.132>
LayerCount: 2
Fore
SplineSet
453 838 m 0xf0
 389.732289638 838 354.628658112 886 291 886 c 0
 261.106287105 886 253.920759551 872.025352812 246 846 c 1
 212 846 l 1
 220.926032851 902.903459425 257.527950597 960 318 960 c 0xe8
 379.824063026 960 411.983065413 914 473 914 c 256
 503.064474339 914 511.138360819 930.522787354 520 956 c 1
 553 956 l 1
 547.377287619 898.648333716 511.326800082 838 453 838 c 0xf0
EndSplineSet
Refer: 37 65 S 1 0 0 1 0 0 3
EndChar

StartChar: Edieresis
Encoding: 203 203 188
Width: 726
Flags: W
HStem: 0 43<45 137.734 300.41 557.852> 383 40<260 390.883> 518 20G<449 484> 727 43<55 139.159 260 538.512> 859 101<233.175 315.865 415.135 497.825>
VStem: 155 105<80.7239 383 423 712.458> 224 101<868.135 950.825> 406 101<868.135 950.825> 449 35<265 329.926 474.062 538> 607 35<594 654.296> 643 38<137.1 197>
LayerCount: 2
Fore
SplineSet
274 859 m 0xfa60
 245.683045198 859 224 881.384188626 224 910 c 0
 224 937.79158134 246.209152174 960 274 960 c 0
 302.618933774 960 325 938.318600078 325 910 c 0
 325 880.849032995 303.150325181 859 274 859 c 0xfa60
457 859 m 0
 427.849032995 859 406 880.849674819 406 910 c 0
 406 938.316954802 428.384188626 960 457 960 c 0
 484.79158134 960 507 937.790847826 507 910 c 0xf960
 507 881.381066226 485.318600078 859 457 859 c 0
EndSplineSet
Refer: 32 69 S 1 0 0 1 0 0 3
EndChar

StartChar: Edotaccent
Encoding: 278 278 189
Width: 726
Flags: W
HStem: 0 43<45 137.734 300.41 557.852> 383 40<260 390.883> 518 20G<449 484> 727 43<55 139.159 260 538.512> 852 107<317.393 401.287>
VStem: 155 105<80.7239 383 423 712.458> 306 107<863.393 947.286> 449 35<265 329.926 474.062 538> 607 35<594 654.296> 643 38<137.1 197>
LayerCount: 2
Fore
SplineSet
358 852 m 0
 330.260523326 852 306 876.261440217 306 904 c 0
 306 933.343647993 329.216850294 959 358 959 c 0
 388.432195674 959 413 934.431370471 413 904 c 0
 413 875.220754319 387.337358451 852 358 852 c 0
EndSplineSet
Refer: 32 69 S 1 0 0 1 0 0 3
EndChar

StartChar: Idieresis
Encoding: 207 207 190
Width: 415
Flags: W
HStem: 0 38<45 125.212 287.105 369> 732 38<55 125.945 289.12 359> 859 101<76.1755 158.865 258.135 340.825>
VStem: 67 101<868.135 950.825> 155 105<63.668 705.038> 249 101<868.135 950.825>
LayerCount: 2
Fore
SplineSet
117 859 m 0xf0
 88.6830451975 859 67 881.384188626 67 910 c 0
 67 937.79158134 89.2091521738 960 117 960 c 0
 145.618933774 960 168 938.318600078 168 910 c 0
 168 880.849032995 146.150325181 859 117 859 c 0xf0
300 859 m 0
 270.849032995 859 249 880.849674819 249 910 c 0
 249 938.316954802 271.384188626 960 300 960 c 0
 327.79158134 960 350 937.790847826 350 910 c 0xe4
 350 881.381066226 328.318600078 859 300 859 c 0
EndSplineSet
Refer: 29 73 S 1 0 0 1 0 0 3
EndChar

StartChar: Idotaccent
Encoding: 304 304 191
Width: 415
Flags: W
HStem: 0 38<45 125.212 287.105 369> 732 38<55 125.945 289.12 359> 852 107<166.393 250.287>
VStem: 155 105<63.668 705.038> 155 107<863.393 947.286>
LayerCount: 2
Fore
SplineSet
207 852 m 0xe8
 179.260523326 852 155 876.261440217 155 904 c 0
 155 933.343647993 178.216850294 959 207 959 c 0
 237.432195674 959 262 934.431370471 262 904 c 0
 262 875.220754319 236.337358451 852 207 852 c 0xe8
EndSplineSet
Refer: 29 73 S 1 0 0 1 0 0 3
EndChar

StartChar: Ldot
Encoding: 319 319 192
Width: 727
Flags: W
HStem: 0 38<45 130.24> 0 45<304.092 582.867> 336 131<408.951 505.884> 732 38<55 132.268 283.308 359>
VStem: 155 105<88.3919 711.251> 392 131<352.951 449.886> 668 38<137.407 197>
LayerCount: 2
Fore
SplineSet
457 336 m 0x3e
 421.286575658 336 392 365.287584239 392 401 c 0
 392 437.540150718 420.757626824 467 457 467 c 0
 494.072810008 467 523 438.071893116 523 401 c 0
 523 364.759063181 493.536708921 336 457 336 c 0x3e
EndSplineSet
Refer: 31 76 S 1 0 0 1 0 0 3
EndChar

StartChar: Cdotaccent
Encoding: 266 266 193
Width: 802
Flags: W
HStem: -10 54<343.541 564.084> 0 21G<703.177 744> 540 21G<675.595 726> 728 52<348.493 555.69> 750 20G<683.194 717.783> 852 107<407.393 491.287>
VStem: 60 134<228.052 518.546> 396 107<863.393 947.286> 689 28<745.889 770> 689 37<540 588.122> 709 35<0 24.0435 218.22 249>
LayerCount: 2
Fore
SplineSet
448 852 m 0x27
 420.260523326 852 396 876.261440217 396 904 c 0
 396 933.343647993 419.216850294 959 448 959 c 0
 478.432195674 959 503 934.431370471 503 904 c 0
 503 875.220754319 477.337358451 852 448 852 c 0x27
EndSplineSet
Refer: 40 67 S 1 0 0 1 0 0 3
EndChar

StartChar: Gdotaccent
Encoding: 288 288 194
Width: 870
Flags: W
HStem: -10 54<345.489 558.613> 284 38<559 633.439 777.956 843> 540 21G<666 715.13> 728 52<348.493 558.796> 750 20G<685.226 727> 852 107<405.393 489.287>
VStem: 60 134<226.922 518.546> 394 107<863.393 947.286> 659 102<118.659 261.288> 666 48<540 630.197>
LayerCount: 2
Fore
SplineSet
446 852 m 0xe7
 418.260523326 852 394 876.261440217 394 904 c 0
 394 933.343647993 417.216850294 959 446 959 c 0
 476.432195674 959 501 934.431370471 501 904 c 0
 501 875.220754319 475.337358451 852 446 852 c 0xe7
EndSplineSet
Refer: 41 71 S 1 0 0 1 0 0 3
EndChar

StartChar: Ndotaccent
Encoding: 7748 7748 195
Width: 902
Flags: W
HStem: -10 21G<678.824 754> 0 38<45 125.212 238.669 314> 732 38<55 125.945 595 669.031 783.664 864> 852 107<423.393 507.287>
VStem: 155 60<63.9236 614.883> 412 107<863.393 947.286> 694 60<187 705.81>
LayerCount: 2
Fore
SplineSet
464 852 m 0x3e
 436.260523326 852 412 876.261440217 412 904 c 0
 412 933.343647993 435.216850294 959 464 959 c 0
 494.432195674 959 519 934.431370471 519 904 c 0
 519 875.220754319 493.337358451 852 464 852 c 0x3e
EndSplineSet
Refer: 45 78 S 1 0 0 1 0 0 3
EndChar

StartChar: Zdotaccent
Encoding: 379 379 196
Width: 770
Flags: W
HStem: 0 46<179 608.15> 728 42<177.573 542> 852 107<350.393 434.287>
VStem: 76 37<586 651.424> 339 107<863.393 947.286> 679 43<135.007 235>
LayerCount: 2
Fore
SplineSet
391 852 m 0
 363.260523326 852 339 876.261440217 339 904 c 0
 339 933.343647993 362.216850294 959 391 959 c 0
 421.432195674 959 446 934.431370471 446 904 c 0
 446 875.220754319 420.337358451 852 391 852 c 0
EndSplineSet
Refer: 54 90 S 1 0 0 1 0 0 3
EndChar

StartChar: Adieresis
Encoding: 196 196 208
Width: 772
Flags: W
HStem: 0 39<-6 58.8288 166.674 237 459 544.738 714.374 785> 279 50<241 469> 750 20G<355.012 414.05> 859 101<251.175 333.865 433.135 515.825>
VStem: 242 101<868.135 950.825> 424 101<868.135 950.825>
LayerCount: 2
Fore
SplineSet
292 859 m 0
 263.683045198 859 242 881.384188626 242 910 c 0
 242 937.79158134 264.209152174 960 292 960 c 0
 320.618933774 960 343 938.318600078 343 910 c 0
 343 880.849032995 321.150325181 859 292 859 c 0
475 859 m 0
 445.849032995 859 424 880.849674819 424 910 c 0
 424 938.316954802 446.384188626 960 475 960 c 0
 502.79158134 960 525 937.790847826 525 910 c 0
 525 881.381066226 503.318600078 859 475 859 c 0
EndSplineSet
Refer: 37 65 S 1 0 0 1 0 0 3
EndChar

StartChar: Odieresis
Encoding: 214 214 209
Width: 946
Flags: W
HStem: -10 55<357.397 587.523> 725 55<359.875 584.842> 859 101<342.175 424.865 524.135 606.825>
VStem: 57 130<256.59 510.994> 333 101<868.135 950.825> 515 101<868.135 950.825> 759 130<254.728 511.549>
LayerCount: 2
Fore
SplineSet
383 859 m 0
 354.683045198 859 333 881.384188626 333 910 c 0
 333 937.79158134 355.209152174 960 383 960 c 0
 411.618933774 960 434 938.318600078 434 910 c 0
 434 880.849032995 412.150325181 859 383 859 c 0
566 859 m 0
 536.849032995 859 515 880.849674819 515 910 c 0
 515 938.316954802 537.384188626 960 566 960 c 0
 593.79158134 960 616 937.790847826 616 910 c 0
 616 881.381066226 594.318600078 859 566 859 c 0
EndSplineSet
Refer: 38 79 S 1 0 0 1 0 0 3
EndChar

StartChar: Udieresis
Encoding: 220 220 210
Width: 861
Flags: W
HStem: -10 62<351.778 565.861> 732 38<29 113.028 287.155 370 542 628.078 754.678 832> 859 101<327.175 409.865 509.135 591.825>
VStem: 140 120<148.279 706.955> 318 101<868.135 950.825> 500 101<868.135 950.825> 662 60<157.523 697.395>
LayerCount: 2
Fore
SplineSet
368 859 m 0
 339.683045198 859 318 881.384188626 318 910 c 0
 318 937.79158134 340.209152174 960 368 960 c 0
 396.618933774 960 419 938.318600078 419 910 c 0
 419 880.849032995 397.150325181 859 368 859 c 0
551 859 m 0
 521.849032995 859 500 880.849674819 500 910 c 0
 500 938.316954802 522.384188626 960 551 960 c 0
 578.79158134 960 601 937.790847826 601 910 c 0
 601 881.381066226 579.318600078 859 551 859 c 0
EndSplineSet
Refer: 50 85 S 1 0 0 1 0 0 3
EndChar

StartChar: Wdieresis
Encoding: 7812 7812 211
Width: 1176
Flags: W
HStem: -10 21G<341.753 391.487 782.251 831.595> 731.098 38.9019<-11 59.6589 230.045 315 464 513.273 683.987 770 941 1010.17 1113.15 1184> 859 101<483.175 565.865 665.135 747.825>
VStem: 474 101<868.135 950.825> 656 101<868.135 950.825>
LayerCount: 2
Fore
SplineSet
524 859 m 0
 495.683045198 859 474 881.384188626 474 910 c 0
 474 937.79158134 496.209152174 960 524 960 c 0
 552.618933774 960 575 938.318600078 575 910 c 0
 575 880.849032995 553.150325181 859 524 859 c 0
707 859 m 0
 677.849032995 859 656 880.849674819 656 910 c 0
 656 938.316954802 678.384188626 960 707 960 c 0
 734.79158134 960 757 937.790847826 757 910 c 0
 757 881.381066226 735.318600078 859 707 859 c 0
EndSplineSet
Refer: 51 87 S 1 0 0 1 0 0 3
EndChar

StartChar: Ydieresis
Encoding: 376 376 212
Width: 733
Flags: W
HStem: 0 38<204 286.47 445.87 528> 732 38<-5 62.04 223.496 310 508 569.74 677.108 737> 859 101<276.175 358.865 458.135 540.825>
VStem: 267 101<868.135 950.825> 314 105<63.2093 304> 449 101<868.135 950.825>
LayerCount: 2
Fore
SplineSet
317 859 m 0xf4
 288.683045198 859 267 881.384188626 267 910 c 0
 267 937.79158134 289.209152174 960 317 960 c 0
 345.618933774 960 368 938.318600078 368 910 c 0
 368 880.849032995 346.150325181 859 317 859 c 0xf4
500 859 m 0
 470.849032995 859 449 880.849674819 449 910 c 0
 449 938.316954802 471.384188626 960 500 960 c 0
 527.79158134 960 550 937.790847826 550 910 c 0
 550 881.381066226 528.318600078 859 500 859 c 0
EndSplineSet
Refer: 53 89 S 1 0 0 1 0 0 3
EndChar

StartChar: ellipsis
Encoding: 8230 8230 213
Width: 697
Flags: W
HStem: -10 131<83.9506 180.884 299.951 396.884 515.951 612.884>
VStem: 67 131<6.95099 103.886> 283 131<6.95099 103.886> 499 131<6.95099 103.886>
CounterMasks: 1 70
LayerCount: 2
Fore
SplineSet
132 -10 m 0
 96.2865756582 -10 67 19.287584239 67 55 c 0
 67 91.5401507175 95.7576268236 121 132 121 c 0
 169.072810008 121 198 92.0718931161 198 55 c 0
 198 18.7590631809 168.536708921 -10 132 -10 c 0
348 -10 m 0
 312.286575658 -10 283 19.287584239 283 55 c 0
 283 91.5401507175 311.757626824 121 348 121 c 0
 385.072810008 121 414 92.0718931161 414 55 c 0
 414 18.7590631809 384.536708921 -10 348 -10 c 0
564 -10 m 0
 528.286575658 -10 499 19.287584239 499 55 c 0
 499 91.5401507175 527.757626824 121 564 121 c 0
 601.072810008 121 630 92.0718931161 630 55 c 0
 630 18.7590631809 600.536708921 -10 564 -10 c 0
EndSplineSet
EndChar

StartChar: Etilde
Encoding: 7868 7868 214
Width: 726
Flags: W
HStem: 0 43<45 137.734 300.41 557.852> 383 40<260 390.883> 518 20G<449 484> 727 43<55 139.159 260 538.512> 838 76<395.102 503.468> 886 74<255.948 363.132>
VStem: 155 105<80.7239 383 423 712.458> 449 35<265 329.926 474.062 538> 607 35<594 654.296> 643 38<137.1 197>
LayerCount: 2
Fore
SplineSet
449 838 m 0xfbc0
 385.732289638 838 350.628658112 886 287 886 c 0
 257.106287105 886 249.920759551 872.025352812 242 846 c 1
 208 846 l 1
 216.926032851 902.903459425 253.527950597 960 314 960 c 0xf7c0
 375.824063026 960 407.983065413 914 469 914 c 256
 499.064474339 914 507.138360819 930.522787354 516 956 c 1
 549 956 l 1
 543.377287619 898.648333716 507.326800082 838 449 838 c 0xfbc0
EndSplineSet
Refer: 32 69 S 1 0 0 1 0 0 3
EndChar

StartChar: Itilde
Encoding: 296 296 215
Width: 415
Flags: W
HStem: 0 38<45 125.212 287.105 369> 732 38<55 125.945 289.12 359> 838 76<222.102 330.468> 886 74<82.9482 190.132>
VStem: 155 105<63.668 705.038>
LayerCount: 2
Fore
SplineSet
276 838 m 0xe8
 212.732289638 838 177.628658112 886 114 886 c 0
 84.1062871048 886 76.9207595515 872.025352812 69 846 c 1
 35 846 l 1
 43.9260328509 902.903459425 80.5279505966 960 141 960 c 0xd8
 202.824063026 960 234.983065413 914 296 914 c 256
 326.064474339 914 334.138360819 930.522787354 343 956 c 1
 376 956 l 1
 370.377287619 898.648333716 334.326800082 838 276 838 c 0xe8
EndSplineSet
Refer: 29 73 S 1 0 0 1 0 0 3
EndChar

StartChar: Ntilde
Encoding: 209 209 216
Width: 902
Flags: W
HStem: -10 21G<678.824 754> 0 38<45 125.212 238.669 314> 732 38<55 125.945 595 669.031 783.664 864> 838 76<480.102 588.468> 886 74<340.948 448.132>
VStem: 155 60<63.9236 614.883> 694 60<187 705.81>
LayerCount: 2
Fore
SplineSet
534 838 m 0x36
 470.732289638 838 435.628658112 886 372 886 c 0
 342.106287105 886 334.920759551 872.025352812 327 846 c 1
 293 846 l 1
 301.926032851 902.903459425 338.527950597 960 399 960 c 0x2e
 460.824063026 960 492.983065413 914 554 914 c 256
 584.064474339 914 592.138360819 930.522787354 601 956 c 1
 634 956 l 1
 628.377287619 898.648333716 592.326800082 838 534 838 c 0x36
EndSplineSet
Refer: 45 78 S 1 0 0 1 0 0 3
EndChar

StartChar: Otilde
Encoding: 213 213 217
Width: 946
Flags: W
HStem: -10 55<357.397 587.523> 725 55<359.875 584.842> 838 76<490.102 598.468> 886 74<350.948 458.132>
VStem: 57 130<256.59 510.994> 759 130<254.728 511.549>
LayerCount: 2
Fore
SplineSet
544 838 m 0xec
 480.732289638 838 445.628658112 886 382 886 c 0
 352.106287105 886 344.920759551 872.025352812 337 846 c 1
 303 846 l 1
 311.926032851 902.903459425 348.527950597 960 409 960 c 0xdc
 470.824063026 960 502.983065413 914 564 914 c 256
 594.064474339 914 602.138360819 930.522787354 611 956 c 1
 644 956 l 1
 638.377287619 898.648333716 602.326800082 838 544 838 c 0xec
EndSplineSet
Refer: 38 79 S 1 0 0 1 0 0 3
EndChar

StartChar: Utilde
Encoding: 360 360 218
Width: 861
Flags: W
HStem: -10 62<351.778 565.861> 732 38<29 113.028 287.155 370 542 628.078 754.678 832> 838 76<475.102 583.468> 886 74<335.948 443.132>
VStem: 140 120<148.279 706.955> 662 60<157.523 697.395>
LayerCount: 2
Fore
SplineSet
529 838 m 0xec
 465.732289638 838 430.628658112 886 367 886 c 0
 337.106287105 886 329.920759551 872.025352812 322 846 c 1
 288 846 l 1
 296.926032851 902.903459425 333.527950597 960 394 960 c 0xdc
 455.824063026 960 487.983065413 914 549 914 c 256
 579.064474339 914 587.138360819 930.522787354 596 956 c 1
 629 956 l 1
 623.377287619 898.648333716 587.326800082 838 529 838 c 0xec
EndSplineSet
Refer: 50 85 S 1 0 0 1 0 0 3
EndChar

StartChar: Ytilde
Encoding: 7928 7928 219
Width: 733
Flags: W
HStem: 0 38<204 286.47 445.87 528> 732 38<-5 62.04 223.496 310 508 569.74 677.108 737> 838 76<424.102 532.468> 886 74<284.948 392.132>
VStem: 314 105<63.2093 304>
LayerCount: 2
Fore
SplineSet
478 838 m 0xe8
 414.732289638 838 379.628658112 886 316 886 c 0
 286.106287105 886 278.920759551 872.025352812 271 846 c 1
 237 846 l 1
 245.926032851 902.903459425 282.527950597 960 343 960 c 0xd8
 404.824063026 960 436.983065413 914 498 914 c 256
 528.064474339 914 536.138360819 930.522787354 545 956 c 1
 578 956 l 1
 572.377287619 898.648333716 536.326800082 838 478 838 c 0xe8
EndSplineSet
Refer: 53 89 S 1 0 0 1 0 0 3
EndChar

StartChar: breve.cap
Encoding: 65546 -1 220
Width: 316
Flags: W
HStem: 845 69<75.82 238.717>
VStem: 20 36<937.654 960>
LayerCount: 2
Fore
SplineSet
157 914 m 256
 202.019595736 914 247.225113734 929.090923551 259 960 c 1
 296 960 l 1
 290.622347838 891.434934932 232.479513972 845 158 845 c 0
 96.6661609508 845 53.2885950407 873.35813674 32 914 c 0
 24.6666666667 928 20.6666666667 943.333333333 20 960 c 1
 56 960 l 1
 67.7785158174 929.081395979 111.935848687 914 157 914 c 256
EndSplineSet
EndChar

StartChar: Abreve
Encoding: 258 258 221
Width: 772
Flags: W
HStem: 0 39<-6 58.8288 166.674 237 459 544.738 714.374 785> 279 50<241 469> 750 20G<355.012 414.05> 845 69<300.82 463.717>
VStem: 245 36<937.654 960>
LayerCount: 2
Fore
SplineSet
382 914 m 256
 427.019595736 914 472.225113734 929.090923551 484 960 c 1
 521 960 l 1
 515.622347838 891.434934932 457.479513972 845 383 845 c 0
 321.666160951 845 278.288595041 873.35813674 257 914 c 0
 249.666666667 928 245.666666667 943.333333333 245 960 c 1
 281 960 l 1
 292.778515817 929.081395979 336.935848687 914 382 914 c 256
EndSplineSet
Refer: 37 65 S 1 0 0 1 0 0 3
EndChar

StartChar: Ebreve
Encoding: 276 276 222
Width: 726
Flags: W
HStem: 0 43<45 137.734 300.41 557.852> 383 40<260 390.883> 518 20G<449 484> 727 43<55 139.159 260 538.512> 845 69<296.82 459.717>
VStem: 155 105<80.7239 383 423 712.458> 241 36<937.654 960> 449 35<265 329.926 474.062 538> 607 35<594 654.296> 643 38<137.1 197>
LayerCount: 2
Fore
SplineSet
378 914 m 256xfbc0
 423.019595736 914 468.225113734 929.090923551 480 960 c 1
 517 960 l 1
 511.622347838 891.434934932 453.479513972 845 379 845 c 0
 317.666160951 845 274.288595041 873.35813674 253 914 c 0
 245.666666667 928 241.666666667 943.333333333 241 960 c 1
 277 960 l 1
 288.778515817 929.081395979 332.935848687 914 378 914 c 256xfbc0
EndSplineSet
Refer: 32 69 S 1 0 0 1 0 0 3
EndChar

StartChar: Gbreve
Encoding: 286 286 223
Width: 870
Flags: W
HStem: -10 54<345.489 558.613> 284 38<559 633.439 777.956 843> 540 21G<666 715.13> 728 52<348.493 558.796> 750 20G<685.226 727> 845 69<363.82 526.717>
VStem: 60 134<226.922 518.546> 308 36<937.654 960> 659 102<118.659 261.288> 666 48<540 630.197>
LayerCount: 2
Fore
SplineSet
445 914 m 256xe7
 490.019595736 914 535.225113734 929.090923551 547 960 c 1
 584 960 l 1
 578.622347838 891.434934932 520.479513972 845 446 845 c 0
 384.666160951 845 341.288595041 873.35813674 320 914 c 0
 312.666666667 928 308.666666667 943.333333333 308 960 c 1
 344 960 l 1
 355.778515817 929.081395979 399.935848687 914 445 914 c 256xe7
EndSplineSet
Refer: 41 71 S 1 0 0 1 0 0 3
EndChar

StartChar: Ibreve
Encoding: 300 300 224
Width: 415
Flags: W
HStem: 0 38<45 125.212 287.105 369> 732 38<55 125.945 289.12 359> 845 69<123.82 286.717>
VStem: 68 36<937.654 960> 155 105<63.668 705.038>
LayerCount: 2
Fore
SplineSet
205 914 m 256
 250.019595736 914 295.225113734 929.090923551 307 960 c 1
 344 960 l 1
 338.622347838 891.434934932 280.479513972 845 206 845 c 0
 144.666160951 845 101.288595041 873.35813674 80 914 c 0
 72.6666666667 928 68.6666666667 943.333333333 68 960 c 1
 104 960 l 1
 115.778515817 929.081395979 159.935848687 914 205 914 c 256
EndSplineSet
Refer: 29 73 S 1 0 0 1 0 0 3
EndChar

StartChar: Obreve
Encoding: 334 334 225
Width: 946
Flags: W
HStem: -10 55<357.397 587.523> 725 55<359.875 584.842> 845 69<391.82 554.717>
VStem: 57 130<256.59 510.994> 336 36<937.654 960> 759 130<254.728 511.549>
LayerCount: 2
Fore
SplineSet
473 914 m 256
 518.019595736 914 563.225113734 929.090923551 575 960 c 1
 612 960 l 1
 606.622347838 891.434934932 548.479513972 845 474 845 c 0
 412.666160951 845 369.288595041 873.35813674 348 914 c 0
 340.666666667 928 336.666666667 943.333333333 336 960 c 1
 372 960 l 1
 383.778515817 929.081395979 427.935848687 914 473 914 c 256
EndSplineSet
Refer: 38 79 S 1 0 0 1 0 0 3
EndChar

StartChar: Ubreve
Encoding: 364 364 226
Width: 861
Flags: W
HStem: -10 62<351.778 565.861> 732 38<29 113.028 287.155 370 542 628.078 754.678 832> 845 69<376.82 539.717>
VStem: 140 120<148.279 706.955> 321 36<937.654 960> 662 60<157.523 697.395>
LayerCount: 2
Fore
SplineSet
458 914 m 256
 503.019595736 914 548.225113734 929.090923551 560 960 c 1
 597 960 l 1
 591.622347838 891.434934932 533.479513972 845 459 845 c 0
 397.666160951 845 354.288595041 873.35813674 333 914 c 0
 325.666666667 928 321.666666667 943.333333333 321 960 c 1
 357 960 l 1
 368.778515817 929.081395979 412.935848687 914 458 914 c 256
EndSplineSet
Refer: 50 85 S 1 0 0 1 0 0 3
EndChar

StartChar: circumflex.cap
Encoding: 65547 -1 227
Width: 368
Flags: W
HStem: 851 109
VStem: 20 328
LayerCount: 2
Fore
SplineSet
239 960 m 1
 348 851 l 1
 303 851 l 1
 184 905 l 1
 65 851 l 1
 20 851 l 1
 129 960 l 1
 239 960 l 1
EndSplineSet
EndChar

StartChar: Acircumflex
Encoding: 194 194 228
Width: 772
Flags: W
HStem: 0 39<-6 58.8288 166.674 237 459 544.738 714.374 785> 279 50<241 469> 750 20G<355.012 414.05>
LayerCount: 2
Fore
SplineSet
438 960 m 1
 547 851 l 1
 502 851 l 1
 383 905 l 1
 264 851 l 1
 219 851 l 1
 328 960 l 1
 438 960 l 1
EndSplineSet
Refer: 37 65 S 1 0 0 1 0 0 3
EndChar

StartChar: Ccircumflex
Encoding: 264 264 229
Width: 802
Flags: W
HStem: -10 54<343.541 564.084> 0 21G<703.177 744> 540 21G<675.595 726> 728 52<348.493 555.69> 750 20G<683.194 717.783>
VStem: 60 134<228.052 518.546> 689 28<745.889 770> 689 37<540 588.122> 709 35<0 24.0435 218.22 249>
LayerCount: 2
Fore
SplineSet
503 960 m 1x24
 612 851 l 1
 567 851 l 1
 448 905 l 1
 329 851 l 1
 284 851 l 1
 393 960 l 1
 503 960 l 1x24
EndSplineSet
Refer: 40 67 S 1 0 0 1 0 0 3
EndChar

StartChar: Ecircumflex
Encoding: 202 202 230
Width: 726
Flags: W
HStem: 0 43<45 137.734 300.41 557.852> 383 40<260 390.883> 518 20G<449 484> 727 43<55 139.159 260 538.512>
VStem: 155 105<80.7239 383 423 712.458> 449 35<265 329.926 474.062 538> 607 35<594 654.296> 643 38<137.1 197>
LayerCount: 2
Fore
SplineSet
434 960 m 1
 543 851 l 1
 498 851 l 1
 379 905 l 1
 260 851 l 1
 215 851 l 1
 324 960 l 1
 434 960 l 1
EndSplineSet
Refer: 32 69 N 1 0 0 1 0 0 3
EndChar

StartChar: Gcircumflex
Encoding: 284 284 231
Width: 870
Flags: W
HStem: -10 54<345.489 558.613> 284 38<559 633.439 777.956 843> 540 21G<666 715.13> 728 52<348.493 558.796> 750 20G<685.226 727>
VStem: 60 134<226.922 518.546> 659 102<118.659 261.288> 666 48<540 630.197>
LayerCount: 2
Fore
SplineSet
501 960 m 1xe4
 610 851 l 1
 565 851 l 1
 446 905 l 1
 327 851 l 1
 282 851 l 1
 391 960 l 1
 501 960 l 1xe4
EndSplineSet
Refer: 41 71 S 1 0 0 1 0 0 3
EndChar

StartChar: Hcircumflex
Encoding: 292 292 232
Width: 925
Flags: W
HStem: 0 38<45 130.24 284.977 369 555 640.24 794.977 879> 369 50<260 665> 732 38<55 132.268 283.308 359 565 642.268 793.308 869>
VStem: 155 105<60.4735 369 419 711.251> 665 105<60.4735 369 419 711.251>
LayerCount: 2
Fore
SplineSet
519 960 m 1
 628 851 l 1
 583 851 l 1
 464 905 l 1
 345 851 l 1
 300 851 l 1
 409 960 l 1
 519 960 l 1
EndSplineSet
Refer: 30 72 S 1 0 0 1 0 0 3
EndChar

StartChar: Icircumflex
Encoding: 206 206 233
Width: 415
Flags: W
HStem: 0 38<45 125.212 287.105 369> 732 38<55 125.945 289.12 359>
VStem: 42 328 155 105<63.668 705.038>
LayerCount: 2
Fore
SplineSet
261 960 m 1xe0
 370 851 l 1
 325 851 l 1
 206 905 l 1
 87 851 l 1
 42 851 l 1
 151 960 l 1
 261 960 l 1xe0
EndSplineSet
Refer: 29 73 S 1 0 0 1 0 0 3
EndChar

StartChar: Jcircumflex
Encoding: 308 308 234
Width: 394
Flags: W
HStem: -260 48<19.5924 106.513> 732 38<45 122.268 273.308 349>
VStem: 145 105<-135.683 711.251>
LayerCount: 2
Fore
SplineSet
254 960 m 1
 363 851 l 1
 318 851 l 1
 199 905 l 1
 80 851 l 1
 35 851 l 1
 144 960 l 1
 254 960 l 1
EndSplineSet
Refer: 34 74 S 1 0 0 1 0 0 3
EndChar

StartChar: Ocircumflex
Encoding: 212 212 235
Width: 946
Flags: W
HStem: -10 55<357.397 587.523> 725 55<359.875 584.842>
VStem: 57 130<256.59 510.994> 759 130<254.728 511.549>
LayerCount: 2
Fore
SplineSet
529 960 m 1
 638 851 l 1
 593 851 l 1
 474 905 l 1
 355 851 l 1
 310 851 l 1
 419 960 l 1
 529 960 l 1
EndSplineSet
Refer: 38 79 S 1 0 0 1 0 0 3
EndChar

StartChar: Scircumflex
Encoding: 348 348 236
Width: 645
Flags: W
HStem: -10 51<220.531 418.404> 729 51<231.676 401.6>
VStem: 58 37<172.381 235> 90 94<551.708 664.953> 482 109<122.173 239.509> 496 37<567 615.244>
LayerCount: 2
Fore
SplineSet
371 960 m 1xc0
 480 851 l 1
 435 851 l 1
 316 905 l 1
 197 851 l 1
 152 851 l 1
 261 960 l 1
 371 960 l 1xc0
EndSplineSet
Refer: 48 83 S 1 0 0 1 0 0 3
EndChar

StartChar: Ucircumflex
Encoding: 219 219 237
Width: 861
Flags: W
HStem: -10 62<351.778 565.861> 732 38<29 113.028 287.155 370 542 628.078 754.678 832>
VStem: 140 120<148.279 706.955> 662 60<157.523 697.395>
LayerCount: 2
Fore
SplineSet
514 960 m 1
 623 851 l 1
 578 851 l 1
 459 905 l 1
 340 851 l 1
 295 851 l 1
 404 960 l 1
 514 960 l 1
EndSplineSet
Refer: 50 85 S 1 0 0 1 0 0 3
EndChar

StartChar: Wcircumflex
Encoding: 372 372 238
Width: 1176
Flags: W
HStem: -10 21G<341.753 391.487 782.251 831.595> 731.098 38.9019<-11 59.6589 230.045 315 464 513.273 683.987 770 941 1010.17 1113.15 1184>
LayerCount: 2
Fore
SplineSet
670 960 m 1
 779 851 l 1
 734 851 l 1
 615 905 l 1
 496 851 l 1
 451 851 l 1
 560 960 l 1
 670 960 l 1
EndSplineSet
Refer: 51 87 S 1 0 0 1 0 0 3
EndChar

StartChar: Ycircumflex
Encoding: 374 374 239
Width: 733
Flags: W
HStem: 0 38<204 286.47 445.87 528> 732 38<-5 62.04 223.496 310 508 569.74 677.108 737>
VStem: 314 105<63.2093 304>
LayerCount: 2
Fore
SplineSet
463 960 m 1
 572 851 l 1
 527 851 l 1
 408 905 l 1
 289 851 l 1
 244 851 l 1
 353 960 l 1
 463 960 l 1
EndSplineSet
Refer: 53 89 S 1 0 0 1 0 0 3
EndChar

StartChar: caron.cap
Encoding: 65548 -1 240
Width: 368
Flags: W
HStem: 851 109
VStem: 20 328
LayerCount: 2
Fore
SplineSet
129 851 m 1
 20 960 l 1
 65 960 l 1
 184 906 l 1
 303 960 l 1
 348 960 l 1
 239 851 l 1
 129 851 l 1
EndSplineSet
EndChar

StartChar: Ccaron
Encoding: 268 268 241
Width: 802
Flags: W
HStem: -10 54<343.541 564.084> 0 21G<703.177 744> 540 21G<675.595 726> 728 52<348.493 555.69> 750 20G<683.194 717.783>
VStem: 60 134<228.052 518.546> 689 28<745.889 770> 689 37<540 588.122> 709 35<0 24.0435 218.22 249>
LayerCount: 2
Fore
SplineSet
393 851 m 1x24
 284 960 l 1
 329 960 l 1
 448 906 l 1
 567 960 l 1
 612 960 l 1
 503 851 l 1
 393 851 l 1x24
EndSplineSet
Refer: 40 67 S 1 0 0 1 0 0 3
EndChar

StartChar: Ecaron
Encoding: 282 282 242
Width: 726
Flags: W
HStem: 0 43<45 137.734 300.41 557.852> 383 40<260 390.883> 518 20G<449 484> 727 43<55 139.159 260 538.512>
VStem: 155 105<80.7239 383 423 712.458> 449 35<265 329.926 474.062 538> 607 35<594 654.296> 643 38<137.1 197>
LayerCount: 2
Fore
SplineSet
324 851 m 1
 215 960 l 1
 260 960 l 1
 379 906 l 1
 498 960 l 1
 543 960 l 1
 434 851 l 1
 324 851 l 1
EndSplineSet
Refer: 32 69 S 1 0 0 1 0 0 3
EndChar

StartChar: Lcaron
Encoding: 317 317 243
Width: 727
Flags: W
HStem: 0 38<45 130.24> 0 45<304.092 582.867> 732 38<55 132.268 283.308 359>
VStem: 155 105<88.3919 711.251> 668 38<137.407 197>
LayerCount: 2
Fore
SplineSet
151 851 m 1x38
 42 960 l 1
 87 960 l 1
 206 906 l 1
 325 960 l 1
 370 960 l 1
 261 851 l 1
 151 851 l 1x38
EndSplineSet
Refer: 31 76 S 1 0 0 1 0 0 3
EndChar

StartChar: Ncaron
Encoding: 327 327 244
Width: 902
Flags: W
HStem: -10 21G<678.824 754> 0 38<45 125.212 238.669 314> 732 38<55 125.945 595 669.031 783.664 864>
VStem: 155 60<63.9236 614.883> 694 60<187 705.81>
LayerCount: 2
Fore
SplineSet
409 851 m 1x38
 300 960 l 1
 345 960 l 1
 464 906 l 1
 583 960 l 1
 628 960 l 1
 519 851 l 1
 409 851 l 1x38
EndSplineSet
Refer: 45 78 S 1 0 0 1 0 0 3
EndChar

StartChar: Rcaron
Encoding: 344 344 245
Width: 788
Flags: W
HStem: 0 38<45 130.24 289.316 398 743.801 815> 365 50<260 348.149> 723 47<260 466.549> 732 38<55 132.268>
VStem: 155 105<62.9525 365 415 712.458> 528 130<482.163 661.761>
LayerCount: 2
Fore
SplineSet
320 851 m 1xcc
 211 960 l 1
 256 960 l 1
 375 906 l 1
 494 960 l 1
 539 960 l 1
 430 851 l 1
 320 851 l 1xcc
EndSplineSet
Refer: 47 82 S 1 0 0 1 0 0 3
EndChar

StartChar: Scaron
Encoding: 352 352 246
Width: 645
Flags: W
HStem: -10 51<220.531 418.404> 729 51<231.676 401.6>
VStem: 58 37<172.381 235> 90 94<551.708 664.953> 482 109<122.173 239.509> 496 37<567 615.244>
LayerCount: 2
Fore
SplineSet
261 851 m 1xc0
 152 960 l 1
 197 960 l 1
 316 906 l 1
 435 960 l 1
 480 960 l 1
 371 851 l 1
 261 851 l 1xc0
EndSplineSet
Refer: 48 83 S 1 0 0 1 0 0 3
EndChar

StartChar: Tcaron
Encoding: 356 356 247
Width: 803
Flags: W
HStem: 0 38<212 303.686 499.982 590> 727.073 42.9265<113.51 340.449 462.233 683.893>
VStem: 21 37<579 665.829> 342 119<70.7673 720.846> 745 41<579 664.053>
LayerCount: 2
Fore
SplineSet
347 851 m 1
 238 960 l 1
 283 960 l 1
 402 906 l 1
 521 960 l 1
 566 960 l 1
 457 851 l 1
 347 851 l 1
EndSplineSet
Refer: 49 84 S 1 0 0 1 0 0 3
EndChar

StartChar: Zcaron
Encoding: 381 381 248
Width: 770
Flags: W
HStem: 0 46<179 608.15> 728 42<177.573 542>
VStem: 76 37<586 651.424> 679 43<135.007 235>
LayerCount: 2
Fore
SplineSet
336 851 m 1
 227 960 l 1
 272 960 l 1
 391 906 l 1
 510 960 l 1
 555 960 l 1
 446 851 l 1
 336 851 l 1
EndSplineSet
Refer: 54 90 S 1 0 0 1 0 0 3
EndChar

StartChar: ring
Encoding: 730 730 252
Width: 214
Flags: W
HStem: 656 39<68.1168 142.647> 787 43<65.8143 144.896>
VStem: 20 39<704.117 778.647> 151 43<701.815 780.896>
LayerCount: 2
Fore
SplineSet
106 656 m 0
 56.9792946574 656 20 692.980394927 20 742 c 0
 20 791.821028055 56.4561501232 830 106 830 c 0
 156.354038676 830 194 792.352938406 194 742 c 0
 194 692.457363596 155.817481935 656 106 656 c 0
106 787 m 256
 79.5156996613 787 59 768.535946558 59 742 c 256
 59 715.515699661 79.5163414854 695 106 695 c 256
 132.536405004 695 151 715.516341485 151 742 c 256
 151 768.536405004 132.535946558 787 106 787 c 256
EndSplineSet
EndChar

StartChar: aring
Encoding: 229 229 253
Width: 554
Flags: W
HStem: -10 61<166.221 267.51 413.045 521.692> 502 38<191.352 308.683> 656 39<234.117 308.647> 787 43<231.814 310.896>
VStem: 43 101<72.7466 179.695> 67 102<398.02 482.337> 186 39<704.117 778.647> 317 43<701.815 780.896> 349 98<124.573 296 339 463.026> 357 90<58.2934 97>
LayerCount: 2
Fore
SplineSet
272 656 m 0xf3
 222.979294657 656 186 692.980394927 186 742 c 0
 186 791.821028055 222.456150123 830 272 830 c 0
 322.354038676 830 360 792.352938406 360 742 c 0
 360 692.457363596 321.817481935 656 272 656 c 0xf3
272 787 m 256
 245.515699661 787 225 768.535946558 225 742 c 256
 225 715.515699661 245.516341485 695 272 695 c 256
 298.536405004 695 317 715.516341485 317 742 c 256
 317 768.536405004 298.535946558 787 272 787 c 256
EndSplineSet
Refer: 28 97 S 1 0 0 1 0 0 3
EndChar

StartChar: uring
Encoding: 367 367 254
Width: 670
Flags: W
HStem: -10 60<249.313 367.634> 1 35<575.733 648> 495 35<21 84.8602 380 443.86> 656 39<284.117 358.647> 787 43<281.814 360.896>
VStem: 104 98<107.208 479.817> 236 39<704.117 778.647> 367 43<701.815 780.896> 463 98<154.471 479.817>
LayerCount: 2
Fore
SplineSet
322 656 m 0x3f80
 272.979294657 656 236 692.980394927 236 742 c 0
 236 791.821028055 272.456150123 830 322 830 c 0
 372.354038676 830 410 792.352938406 410 742 c 0
 410 692.457363596 371.817481935 656 322 656 c 0x3f80
322 787 m 256
 295.515699661 787 275 768.535946558 275 742 c 256
 275 715.515699661 295.516341485 695 322 695 c 256
 348.536405004 695 367 715.516341485 367 742 c 256
 367 768.536405004 348.535946558 787 322 787 c 256
EndSplineSet
Refer: 5 117 S 1 0 0 1 0 0 3
EndChar

StartChar: ring.cap
Encoding: 65549 -1 255
Width: 170
Flags: W
HStem: 830 31<56.1878 112.637> 928 32<56.0415 112.78>
VStem: 20 31<866.188 922.637> 118 32<866.042 922.78>
LayerCount: 2
Fore
SplineSet
85 830 m 256
 47.9011376597 830 20 857.901962862 20 895 c 256
 20 932.09886234 47.9019628622 960 85 960 c 256
 122.09886234 960 150 932.098037138 150 895 c 256
 150 857.90113766 122.098037138 830 85 830 c 256
85 928 m 0
 65.6362482585 928 51 914.060263724 51 895 c 0
 51 875.10420933 65.1045760869 861 85 861 c 0
 104.058433329 861 118 875.639053801 118 895 c 0
 118 913.536405004 103.535946558 928 85 928 c 0
EndSplineSet
EndChar

StartChar: Aring
Encoding: 197 197 256
Width: 772
Flags: W
HStem: 0 39<-6 58.8288 166.674 237 459 544.738 714.374 785> 279 50<241 469> 750 20G<355.012 414.05> 830 31<354.188 410.637> 928 32<354.041 410.78>
VStem: 318 31<866.188 922.637> 416 32<866.042 922.78>
LayerCount: 2
Fore
SplineSet
383 830 m 256
 345.90113766 830 318 857.901962862 318 895 c 256
 318 932.09886234 345.901962862 960 383 960 c 256
 420.09886234 960 448 932.098037138 448 895 c 256
 448 857.90113766 420.098037138 830 383 830 c 256
383 928 m 0
 363.636248259 928 349 914.060263724 349 895 c 0
 349 875.10420933 363.104576087 861 383 861 c 0
 402.058433329 861 416 875.639053801 416 895 c 0
 416 913.536405004 401.535946558 928 383 928 c 0
EndSplineSet
Refer: 37 65 S 1 0 0 1 0 0 3
EndChar

StartChar: Uring
Encoding: 366 366 257
Width: 861
Flags: W
HStem: -10 62<351.778 565.861> 732 38<29 113.028 287.155 370 542 628.078 754.678 832> 830 31<430.188 486.637> 928 32<430.041 486.78>
VStem: 140 120<148.279 706.955> 394 31<866.188 922.637> 492 32<866.042 922.78> 662 60<157.523 697.395>
LayerCount: 2
Fore
SplineSet
459 830 m 256
 421.90113766 830 394 857.901962862 394 895 c 256
 394 932.09886234 421.901962862 960 459 960 c 256
 496.09886234 960 524 932.098037138 524 895 c 256
 524 857.90113766 496.098037138 830 459 830 c 256
459 928 m 0
 439.636248259 928 425 914.060263724 425 895 c 0
 425 875.10420933 439.104576087 861 459 861 c 0
 478.058433329 861 492 875.639053801 492 895 c 0
 492 913.536405004 477.535946558 928 459 928 c 0
EndSplineSet
Refer: 50 85 S 1 0 0 1 0 0 3
EndChar

StartChar: aringacute
Encoding: 507 507 258
Width: 554
Flags: W
HStem: -10 61<166.221 267.51 413.045 521.692> 502 38<191.352 308.683> 659 38<225.961 297.729> 780 40<226.143 298.531> 810 20G<343.035 362.352>
VStem: 43 101<72.7466 179.695> 67 102<398.02 482.337> 183 37<710.415 773.114> 304 38<703.151 760.368> 349 98<124.573 296 339 463.026> 357 90<58.2934 97>
LayerCount: 2
Fore
SplineSet
185 717 m 1xe980
 183.775061469 723.124692657 183 730.905353337 183 738 c 0
 183 784.670178465 215.912725324 820 262 820 c 0xf180
 278.666666667 820 293.666666667 815.666666667 307 807 c 1
 320.520901683 820.520901683 332.069918412 830 354 830 c 0
 370.704338164 830 383 820.442618844 383 804 c 0
 383 779.644913754 359.089473433 764.499210388 340 754 c 1
 341.333333333 747.333333333 342 742 342 738 c 0
 342 693.282737885 307.343313029 659 262 659 c 0
 242.666666667 659 225.666666667 664.666666667 211 676 c 1
 179 661 l 1
 125 661 l 1
 185 717 l 1xe980
262 780 m 256
 236.770875997 780 220 763.228757246 220 738 c 0
 220 713.610269558 237.301572751 697 262 697 c 256
 286.701093102 697 304 713.60854476 304 738 c 0
 304 763.229124003 287.228757246 780 262 780 c 256
EndSplineSet
Refer: 28 97 S 1 0 0 1 0 0 3
EndChar

StartChar: Aringacute
Encoding: 506 506 259
Width: 772
Flags: W
HStem: 0 39<-5 62.3386 167.88 238 460 543.046 719.391 786> 279 50<246 463> 799 38<342.961 414.729> 920 40<343.143 415.531>
VStem: 300 37<850.415 913.114> 421 38<843.151 900.368>
LayerCount: 2
Fore
SplineSet
460 39 m 1
 512.544074234 39 553 44.3987940861 553 88 c 0
 553 107.333333333 545.333333333 135 530 171 c 2
 484 279 l 1
 223 279 l 1
 181 173 l 2
 167.489071723 139.742330395 159 123.666552357 159 89 c 0
 159 46.3977563586 191.120192117 38 238 38 c 1
 238 0 l 1
 -5 0 l 1
 -5 38 l 1
 58.6630990052 38 83.0818217464 70.1909174083 104 119 c 2
 364 720 l 1
 407 720 l 1
 661 142 l 2
 677.666666667 104 695.333333333 77.3333333333 714 62 c 0
 732.666666667 46.6666666667 756.666666667 39 786 39 c 1
 786 0 l 1
 460 0 l 1
 460 39 l 1
246 329 m 1
 463 329 l 1
 359 594 l 1
 246 329 l 1
302 857 m 1
 300.775061469 863.124692657 300 870.905353337 300 878 c 0
 300 924.670178465 332.912725324 960 379 960 c 0
 395.666666667 960 410.666666667 955.666666667 424 947 c 1
 437.520901683 960.520901683 449.069918412 970 471 970 c 0
 487.704338164 970 500 960.442618844 500 944 c 0
 500 919.644913754 476.089473433 904.499210388 457 894 c 1
 458.333333333 887.333333333 459 882 459 878 c 0
 459 833.282737885 424.343313029 799 379 799 c 0
 359.666666667 799 342.666666667 804.666666667 328 816 c 1
 296 801 l 1
 242 801 l 1
 302 857 l 1
379 920 m 256
 353.770875997 920 337 903.228757246 337 878 c 0
 337 853.610269558 354.301572751 837 379 837 c 256
 403.701093102 837 421 853.60854476 421 878 c 0
 421 903.229124003 404.228757246 920 379 920 c 256
EndSplineSet
EndChar

StartChar: Dcaron
Encoding: 270 270 260
Width: 884
Flags: W
HStem: 0 38<38 131.644> 0 49<310.145 530.738> 721 49<263 521.348> 732 38<58 135.268>
VStem: 158 105<94.5043 712.458> 695 130<242.649 506.165>
LayerCount: 2
Fore
SplineSet
388 851 m 1x0c
 279 960 l 1
 324 960 l 1
 443 906 l 1
 562 960 l 1
 607 960 l 1
 498 851 l 1
 388 851 l 1x0c
EndSplineSet
Refer: 42 68 S 1 0 0 1 0 0 3
EndChar

StartChar: macron
Encoding: 175 175 261
Width: 310
Flags: W
HStem: 702 50<20 290>
VStem: 20 270<702 752>
LayerCount: 2
Fore
SplineSet
20 702 m 1
 20 752 l 1
 290 752 l 1
 290 702 l 1
 20 702 l 1
EndSplineSet
EndChar

StartChar: amacron
Encoding: 257 257 262
Width: 554
Flags: W
HStem: -10 61<166.221 267.51 413.045 521.692> 502 38<191.352 308.683> 702 50<130 400>
VStem: 43 101<72.7466 179.695> 67 102<398.02 482.337> 349 98<124.573 296 339 463.026> 357 90<58.2934 97>
LayerCount: 2
Fore
SplineSet
130 702 m 1xe0
 130 752 l 1
 400 752 l 1
 400 702 l 1
 130 702 l 1xe0
EndSplineSet
Refer: 28 97 S 1 0 0 1 0 0 3
EndChar

StartChar: umacron
Encoding: 363 363 263
Width: 670
Flags: W
HStem: -10 60<249.313 367.634> 1 35<575.733 648> 495 35<21 84.8602 380 443.86> 702 50<178 448>
VStem: 104 98<107.208 479.817> 463 98<154.471 479.817>
LayerCount: 2
Fore
SplineSet
178 702 m 1x3c
 178 752 l 1
 448 752 l 1
 448 702 l 1
 178 702 l 1x3c
EndSplineSet
Refer: 5 117 S 1 0 0 1 0 0 3
EndChar

StartChar: omacron
Encoding: 333 333 264
Width: 654
Flags: W
HStem: -10 51<248.359 403.873> 492 48<247.576 402.476> 702 50<190 460>
VStem: 48 113<159.033 375.913> 493 113<158.847 375.44>
LayerCount: 2
Fore
SplineSet
325 540 m 0
 408.827232024 540 476.685949801 505.839111874 522.5 463 c 0
 568.964230183 419.552927622 606 354.597724328 606 269 c 0
 606 181.198490975 569.309497864 113.985751194 522.5 69 c 0
 476.870216028 25.1479998186 409.327955353 -10 325 -10 c 0
 241.775511533 -10 174.84135518 24.3386804822 130 68 c 0
 83.6834205435 113.097722102 48 181.418922038 48 269 c 0
 48 354.362758344 84.0530353769 420.471296673 130 464 c 0
 175.116750918 506.742185081 242.142152488 540 325 540 c 0
325 492 m 0
 237.930958224 492 192.003259961 429.881329426 172.5 359.5 c 0
 164.833333333 331.833333333 161 301.333333333 161 268 c 0
 161 168.436335726 192.724061885 91.2805003279 257 57 c 0
 277 46.3333333333 299.666666667 41 325 41 c 256
 414.160931377 41 460.560552828 103.461934898 481 175 c 0
 489 203 493 234 493 268 c 0
 493 366.460335598 457.991331831 441.440097574 394 475.5 c 0
 373.333333333 486.5 350.333333333 492 325 492 c 0
190 702 m 1
 190 752 l 1
 460 752 l 1
 460 702 l 1
 190 702 l 1
EndSplineSet
EndChar

StartChar: emacron
Encoding: 275 275 265
Width: 573
Flags: W
HStem: -10 52<258.718 417.447> 317 46<173 416.565> 492 48<233.095 380.159> 702 50<178 448>
VStem: 49 113<152.318 314.418> 417 109<327.426 442.141>
LayerCount: 2
Fore
SplineSet
178 702 m 1
 178 752 l 1
 448 752 l 1
 448 702 l 1
 178 702 l 1
EndSplineSet
Refer: 17 101 S 1 0 0 1 0 0 3
EndChar

StartChar: imacron
Encoding: 299 299 266
Width: 341
Flags: W
HStem: 0 37<34 105.749 251.169 321> 465 37<32 68.1053> 520 20G<124.842 228> 702 50<45 315>
VStem: 130 98<58.4301 451.172>
LayerCount: 2
Fore
SplineSet
45 702 m 1
 45 752 l 1
 315 752 l 1
 315 702 l 1
 45 702 l 1
EndSplineSet
Refer: 9 305 S 1 0 0 1 0 0 3
EndChar

StartChar: macron.cap
Encoding: 65550 -1 267
Width: 310
Flags: W
HStem: 880 50<20 290>
VStem: 20 270<880 930>
LayerCount: 2
Fore
SplineSet
20 880 m 1
 20 930 l 1
 290 930 l 1
 290 880 l 1
 20 880 l 1
EndSplineSet
EndChar

StartChar: Amacron
Encoding: 256 256 268
Width: 772
Flags: W
HStem: 0 39<-6 58.8288 166.674 237 459 544.738 714.374 785> 279 50<241 469> 750 20G<355.012 414.05> 880 50<248 518>
LayerCount: 2
Fore
SplineSet
248 880 m 1
 248 930 l 1
 518 930 l 1
 518 880 l 1
 248 880 l 1
EndSplineSet
Refer: 37 65 S 1 0 0 1 0 0 3
EndChar

StartChar: Emacron
Encoding: 274 274 269
Width: 726
Flags: W
HStem: 0 43<45 137.734 300.41 557.852> 383 40<260 390.883> 518 20G<449 484> 727 43<55 139.159 260 538.512> 880 50<244 514>
VStem: 155 105<80.7239 383 423 712.458> 449 35<265 329.926 474.062 538> 607 35<594 654.296> 643 38<137.1 197>
LayerCount: 2
Fore
SplineSet
244 880 m 1
 244 930 l 1
 514 930 l 1
 514 880 l 1
 244 880 l 1
EndSplineSet
Refer: 32 69 S 1 0 0 1 0 0 3
EndChar

StartChar: Imacron
Encoding: 298 298 270
Width: 415
Flags: W
HStem: 0 38<45 125.212 287.105 369> 732 38<55 125.945 289.12 359> 880 50<71 341>
VStem: 155 105<63.668 705.038>
LayerCount: 2
Fore
SplineSet
71 880 m 1
 71 930 l 1
 341 930 l 1
 341 880 l 1
 71 880 l 1
EndSplineSet
Refer: 29 73 S 1 0 0 1 0 0 3
EndChar

StartChar: Omacron
Encoding: 332 332 271
Width: 946
Flags: W
HStem: -10 55<357.397 587.523> 725 55<359.875 584.842> 880 50<339 609>
VStem: 57 130<256.59 510.994> 759 130<254.728 511.549>
LayerCount: 2
Fore
SplineSet
339 880 m 1
 339 930 l 1
 609 930 l 1
 609 880 l 1
 339 880 l 1
EndSplineSet
Refer: 38 79 S 1 0 0 1 0 0 3
EndChar

StartChar: Umacron
Encoding: 362 362 272
Width: 861
Flags: W
HStem: -10 62<351.778 565.861> 732 38<29 113.028 287.155 370 542 628.078 754.678 832> 880 50<324 594>
VStem: 140 120<148.279 706.955> 662 60<157.523 697.395>
LayerCount: 2
Fore
SplineSet
324 880 m 1
 324 930 l 1
 594 930 l 1
 594 880 l 1
 324 880 l 1
EndSplineSet
Refer: 50 85 S 1 0 0 1 0 0 3
EndChar

StartChar: asciicircum
Encoding: 94 94 273
Width: 480
Flags: W
HStem: 230 179
VStem: 76 328
LayerCount: 2
Fore
SplineSet
285 409 m 1
 404 230 l 1
 359 230 l 1
 240 348 l 1
 121 230 l 1
 76 230 l 1
 195 409 l 1
 285 409 l 1
EndSplineSet
EndChar

StartChar: cedilla
Encoding: 184 184 274
Width: 232
Flags: W
HStem: -260 43<78.3479 156.559> -113 41<123 152.063>
VStem: 165 82<-208.314 -126.14>
LayerCount: 2
Fore
SplineSet
86 -113 m 0
 75.1089042913 -113 60.8683178795 -113.766460265 51 -115 c 1
 48 -110 l 1
 101 12 l 1
 154 12 l 1
 123 -72 l 1
 205.666666667 -72 247 -100.666666667 247 -158 c 0
 247 -226.50681173 192.319899401 -260 121 -260 c 0
 63.9297963295 -260 6 -236.403258457 6 -184 c 0
 6 -160 16.3333333333 -148 37 -148 c 0
 56.9183304928 -148 61.3381725647 -161.713919859 70 -180 c 0
 79.795947875 -202.857211708 87.2907811231 -217 115 -217 c 0
 144.703000726 -217 165 -197.039832041 165 -167 c 0
 165 -131 138.666666667 -113 86 -113 c 0
EndSplineSet
EndChar

StartChar: ccedilla
Encoding: 231 231 275
Width: 536
Flags: W
HStem: -260 43<243.348 321.559> -113 41<288 317.063> 493 47<231.489 372.001>
VStem: 49 114<140.783 379.002> 330 82<-208.314 -126.14>
LayerCount: 2
Fore
SplineSet
322 42 m 0
 392.370863138 42 434.690768539 71.777853577 476 112 c 1
 506 83 l 1
 464.687725834 31.672629067 395.324589479 -3.37836070138 311 -9 c 1
 288 -72 l 1
 370.666666667 -72 412 -100.666666667 412 -158 c 0
 412 -226.50681173 357.319899401 -260 286 -260 c 0
 228.92979633 -260 171 -236.403258457 171 -184 c 0
 171 -160 181.333333333 -148 202 -148 c 0
 221.918330493 -148 226.338172565 -161.713919859 235 -180 c 0
 244.795947875 -202.857211708 252.290781123 -217 280 -217 c 0
 309.703000726 -217 330 -197.039832041 330 -167 c 0
 330 -131 303.666666667 -113 251 -113 c 0
 240.108904291 -113 225.868317879 -113.766460265 216 -115 c 1
 213 -110 l 1
 257 -8 l 1
 155.691342376 4.93302012221 92.0237868582 70.1921345109 64 158 c 0
 54 189.333333333 49 223.666666667 49 261 c 0
 49 395.553498195 114.955951926 483.187205098 213.5 520.5 c 0
 247.833333333 533.5 285.666666667 540 327 540 c 0
 395.734169169 540 460.241488173 525.270418858 490 487.5 c 0
 498.666666667 476.5 503 464.666666667 503 452 c 0
 503 423.94785825 482.91235903 410 454 410 c 0
 442 410 432 412.5 424 417.5 c 0
 416 422.5 405.666666667 433.666666667 393 451 c 0
 369.57029679 477.944158691 352.05104073 493 307 493 c 0
 197.405197549 493 163 396.732887451 163 276 c 0
 163 144.970782667 202.40172685 42 322 42 c 0
EndSplineSet
EndChar

StartChar: Ccedilla
Encoding: 199 199 276
Width: 802
Flags: W
HStem: -260 43<383.348 461.559> -113 41<428 457.063> -9 53<451 562.148> 0 21G<703.177 744> 540 21G<675.595 726> 728 52<348.493 555.69> 750 20G<683.194 717.783>
VStem: 60 134<228.03 518.546> 470 82<-208.314 -126.14> 689 37<540 588.122> 689 28<745.889 770> 709 35<0 24.0435 218.22 249>
LayerCount: 2
Fore
SplineSet
391 -113 m 0xe990
 380.108904291 -113 365.868317879 -113.766460265 356 -115 c 1
 353 -110 l 1
 397 -9 l 1
 234.002886538 1.58422814691 128.513288486 90.7487822526 83.5 221 c 0
 67.8333333333 266.333333333 60 316.666666667 60 372 c 0
 60 499.513114511 103.099593404 599.205505818 166.5 667 c 0
 228.310007317 733.09386921 320.593992287 780 443 780 c 0xed90
 483 780 520.666666667 774.333333333 556 763 c 0
 591.333333333 751.666666667 629.666666667 733.333333333 671 708 c 1
 689 770 l 1
 717 770 l 1xcba0
 726 540 l 1
 689 540 l 1
 662.190071749 647.239713004 580.191184193 728 452 728 c 0
 312.751465922 728 241.854121451 637.743879674 211.5 525 c 0
 199.833333333 481.666666667 194 432.666666667 194 378 c 0
 194 183.108475514 270.228163679 44 455 44 c 0xedc0
 583.666666667 44 666.333333333 112.333333333 703 249 c 1
 744 249 l 1
 744 0 l 1
 709 0 l 1xd990
 686 79 l 1
 619.333333333 23.6666666667 541 -5.66666666667 451 -9 c 1
 428 -72 l 1
 510.666666667 -72 552 -100.666666667 552 -158 c 0
 552 -226.50681173 497.319899401 -260 426 -260 c 0
 368.92979633 -260 311 -236.403258457 311 -184 c 0
 311 -160 321.333333333 -148 342 -148 c 0
 361.918330493 -148 366.338172565 -161.713919859 375 -180 c 0
 384.795947875 -202.857211708 392.290781123 -217 420 -217 c 0
 449.703000726 -217 470 -197.039832041 470 -167 c 0
 470 -131 443.666666667 -113 391 -113 c 0xe990
EndSplineSet
EndChar

StartChar: uni015F
Encoding: 351 351 277
Width: 454
Flags: W
HStem: -260 43<189.348 267.559> -113 41<234 263.063> 0 21G<64 97.4286> 499 41<167.431 281.501> 510 20G<323.952 362>
VStem: 64 25<135.132 172> 67 82<378.414 469.876> 276 82<-208.314 -126.14> 318 89<60.8073 157.379> 336 26<386 417.544>
LayerCount: 2
Fore
SplineSet
197 -113 m 0xf1
 186.108904291 -113 171.868317879 -113.766460265 162 -115 c 1
 159 -110 l 1
 203 -7 l 1
 165 -1 132.666666667 13 106 35 c 1
 86 0 l 1
 64 0 l 1
 64 172 l 1
 89 172 l 1xf5
 115 78 162.333333333 31 231 31 c 0
 284.150967005 31 318 56.6405226449 318 110 c 0
 318 134.204550461 310.877959477 144.272277281 296.5 157.5 c 0
 243.97217065 205.825603002 150.150369723 244.012832948 101 297.5 c 0
 80.159523236 320.179342361 67 344.995880471 67 386 c 0
 67 458.781690903 105.410471866 506.526682462 157 528.5 c 0
 175 536.166666667 194.666666667 540 216 540 c 0xf280
 255.813630577 540 297.358736506 525.317167678 323 509 c 1
 343 530 l 1
 362 530 l 1
 362 386 l 1
 336 386 l 1xea40
 321.333333333 426.666666667 305.333333333 455.666666667 288 473 c 0
 270.666666667 490.333333333 249.333333333 499 224 499 c 0
 179.942886474 499 149 474.553148186 149 431 c 0
 149 405.051617272 157.802986967 391.197013033 172 377 c 0
 192.732199758 356.267800242 218.030622054 341.827309505 247 324 c 0
 294.69773934 294.050256693 336.993830218 270.111920028 370 234.5 c 0
 392.438048364 210.290526765 407 184.770052174 407 142 c 0xf280
 407 50.4580796884 343.268291373 -2.562067808 257 -9 c 1
 234 -72 l 1
 316.666666667 -72 358 -100.666666667 358 -158 c 0
 358 -226.50681173 303.319899401 -260 232 -260 c 0
 174.92979633 -260 117 -236.403258457 117 -184 c 0
 117 -160 127.333333333 -148 148 -148 c 0
 167.918330493 -148 172.338172565 -161.713919859 181 -180 c 0
 190.795947875 -202.857211708 198.290781123 -217 226 -217 c 0
 255.703000726 -217 276 -197.039832041 276 -167 c 0
 276 -131 249.666666667 -113 197 -113 c 0xf1
EndSplineSet
EndChar

StartChar: uni0163
Encoding: 355 355 278
Width: 378
Flags: W
HStem: -260 43<158.348 236.559> -113 41<203 232.063> -10 49<226 322.574> 467 47<198 332>
VStem: 100 98<57.2607 467> 169 29<608.525 640> 245 82<-208.314 -126.14>
LayerCount: 2
Fore
SplineSet
166 -113 m 0xfa
 155.108904291 -113 140.868317879 -113.766460265 131 -115 c 1
 128 -110 l 1
 175 -1 l 1
 125 15 100 52.6666666667 100 112 c 2
 100 467 l 1xfa
 40 467 l 1
 40 504 l 1
 102.793195504 540.728095483 144.273265029 573.546899765 169 640 c 1
 198 640 l 1
 198 514 l 1xf6
 332 514 l 1
 332 467 l 1
 198 467 l 1
 198 163 l 2
 198 95.8442984687 201.716756563 39 267 39 c 0
 307.525994592 39 325.167652611 57.3053714862 344 85 c 1
 369 66 l 1
 350.376517478 16.7807961906 302.862709184 -10 235 -10 c 2
 226 -10 l 1
 203 -72 l 1
 285.666666667 -72 327 -100.666666667 327 -158 c 0
 327 -226.50681173 272.319899401 -260 201 -260 c 0
 143.92979633 -260 86 -236.403258457 86 -184 c 0
 86 -160 96.3333333333 -148 117 -148 c 0
 136.918330493 -148 141.338172565 -161.713919859 150 -180 c 0
 159.795947875 -202.857211708 167.290781123 -217 195 -217 c 0
 224.703000726 -217 245 -197.039832041 245 -167 c 0
 245 -131 218.666666667 -113 166 -113 c 0xfa
EndSplineSet
EndChar

StartChar: uni015E
Encoding: 350 350 279
Width: 645
Flags: W
HStem: -260 43<270.348 348.559> -113 41<315 344.063> 729 51<231.676 401.6>
VStem: 58 37<172.381 235> 90 94<551.708 664.953> 357 82<-208.314 -126.14> 482 109<121.757 239.509> 496 37<567 615.244>
LayerCount: 2
Fore
SplineSet
284 -8 m 1xee
 213.986279139 -1.7765581457 169.963492403 22.2863652078 124 60 c 1
 96 11 l 1
 73 11 l 1
 58 235 l 1
 95 235 l 1
 109.099581257 144.359834776 160.969712536 81.6859449548 238.5 54.5 c 0
 264.166666667 45.5 292 41 322 41 c 0
 412.364437289 41 482 84.6681559159 482 171 c 0xf6
 482 211.083687716 467.7354818 235.332905245 445 257.5 c 0
 409.444407421 292.166702765 362.911596026 312.881272302 307 337 c 0
 238.025727194 367.037183319 178.44249514 395.162105249 136 441 c 0
 105.719261853 473.703197199 90 509.397507481 90 568 c 0
 90 670.019331079 148.599519616 735.994940342 224 764.5 c 0
 251.333333333 774.833333333 281.333333333 780 314 780 c 0
 384.707640701 780 428.678205602 756.230144265 473 721 c 1
 499 766 l 1
 522 766 l 1
 533 567 l 1
 496 567 l 1xed
 469.758315963 656.659087127 419.888182328 729 317 729 c 0
 241.606132498 729 184 690.544273353 184 618 c 0
 184 580.600194964 197.113350142 557.80646514 218 537.5 c 0
 249.018391099 507.343230876 289.211764392 487.115732013 337 466 c 0
 386.333333333 444 427.333333333 423.5 460 404.5 c 0
 492.666666667 385.5 518.666666667 366.5 538 347.5 c 0
 571.887185144 314.197076669 591 277.97996064 591 217 c 0
 591 107.194826091 522.331481287 42.2967940327 440.5 11.5 c 0
 409.5 -0.166666666667 375.333333333 -7 338 -9 c 1
 315 -72 l 1
 397.666666667 -72 439 -100.666666667 439 -158 c 0
 439 -226.50681173 384.319899401 -260 313 -260 c 0
 255.92979633 -260 198 -236.403258457 198 -184 c 0
 198 -160 208.333333333 -148 229 -148 c 0
 248.918330493 -148 253.338172565 -161.713919859 262 -180 c 0
 271.795947875 -202.857211708 279.290781123 -217 307 -217 c 0
 336.703000726 -217 357 -197.039832041 357 -167 c 0
 357 -131 330.666666667 -113 278 -113 c 0
 267.108904291 -113 252.868317879 -113.766460265 243 -115 c 1
 240 -110 l 1
 284 -8 l 1xee
EndSplineSet
EndChar

StartChar: uni0162
Encoding: 354 354 280
Width: 803
Flags: W
HStem: -260 43<352.348 430.559> -113 41<397 426.063> 0 38<212 303.686 499.982 590> 727.073 42.9265<113.51 340.449 462.233 683.893>
VStem: 21 37<579 665.829> 342 119<70.7673 720.846> 439 82<-208.314 -126.14> 745 41<579 664.053>
LayerCount: 2
Fore
SplineSet
360 -113 m 0xfb
 349.108904291 -113 334.868317879 -113.766460265 325 -115 c 1
 322 -110 l 1
 370 0 l 1
 212 0 l 1
 212 38 l 1
 279.184799339 39.5996380795 326.73920107 51.0003610259 337.5 106 c 0
 340.5 121.333333333 342 139.666666667 342 161 c 2
 342 696 l 2
 342 720.28322081 319.801705178 723.541970644 295 725.5 c 0
 282.333333333 726.5 265.333333333 727 244 727 c 0
 192.119018249 727 146.129527807 725.811353192 113.5 706.5 c 0
 75.9213249317 684.259559653 59.193055852 642.231960156 58 579 c 1
 21 579 l 1
 21 770 l 1
 776 770 l 1
 786 579 l 1
 745 579 l 1
 739.52094789 657.533080236 715.326437682 704.797256007 648 720 c 0
 627.333333333 724.666666667 602.666666667 727 574 727 c 0
 564.845323767 727 556.132189769 727.073483179 547.833378542 727.073483179 c 0
 521.276781686 727.073483179 498.962978111 726.320992704 480 720 c 0
 466.64090614 715.546968713 461 711.121411338 461 696 c 2
 461 161 l 2xfd
 461 96.5588404545 472.466188263 61.2158269815 522.5 46.5 c 0
 539.5 41.5 562 38.6666666667 590 38 c 1
 590 0 l 1
 423 0 l 1
 397 -72 l 1
 479.666666667 -72 521 -100.666666667 521 -158 c 0
 521 -226.50681173 466.319899401 -260 395 -260 c 0
 337.92979633 -260 280 -236.403258457 280 -184 c 0
 280 -160 290.333333333 -148 311 -148 c 0
 330.918330493 -148 335.338172565 -161.713919859 344 -180 c 0
 353.795947875 -202.857211708 361.290781123 -217 389 -217 c 0
 418.703000726 -217 439 -197.039832041 439 -167 c 0
 439 -131 412.666666667 -113 360 -113 c 0xfb
EndSplineSet
EndChar

